<svg width="100" height="100" viewBox="0 0 100 100" fill="none" xmlns="http://www.w3.org/2000/svg">
<g clip-path="url(#clip0_452_16002)">
<rect width="100" height="100" fill="#0C50FF"/>
<path d="M56.9438 31.9185C58.4479 31.8607 59.8812 32.5542 60.7614 33.7656L65.0551 39.6754L69.8524 45.191C70.8357 46.3216 71.1828 47.8657 70.7769 49.3036L68.7964 56.3186L67.4406 63.4783C67.1627 64.9459 66.1622 66.1778 64.7758 66.7595L58.0124 69.5972L51.5245 73.0096C50.1946 73.7091 48.5999 73.7012 47.2771 72.9886L40.8238 69.5122L34.0893 66.6077C32.7088 66.0124 31.7208 64.7706 31.4576 63.3003L30.1739 56.1276L28.264 49.0933C27.8725 47.6514 28.2351 46.1108 29.2298 44.99L34.0823 39.5222L38.4352 33.6552C39.3275 32.4525 40.7677 31.7732 42.2712 31.8459L49.6059 32.2003L56.9438 31.9185Z" fill="white"/>
<path fill-rule="evenodd" clip-rule="evenodd" d="M49.5398 10.1997C52.9985 10.1997 55.8462 11.295 58.0828 13.4855C60.2922 15.6272 62.227 18.4299 63.8853 21.8942C67.6515 21.001 71.0439 20.7463 74.062 21.1292C77.1518 21.5212 79.792 23.0892 81.9825 25.8331C84.1269 28.5309 85.0492 31.4362 84.7495 34.549C84.4541 37.6165 83.4424 40.8748 81.7139 44.3229C84.7267 46.6646 87.03 49.1479 88.6232 51.7734C90.2603 54.4482 90.6985 57.4688 89.9375 60.8352C89.1536 64.2248 87.4357 66.7727 84.7841 68.479C82.2425 70.1065 79.1185 71.3357 75.413 72.1656C75.4311 76.029 74.9234 79.3771 73.8891 82.2101C72.8284 85.1385 70.7302 87.352 67.5943 88.8508C65.7496 89.7501 63.905 90.1997 62.0603 90.1997C59.939 90.1997 57.8292 89.6694 55.7309 88.6087C53.6895 87.588 51.6258 86.2215 49.5398 84.5091C47.4313 86.2217 45.3557 87.5879 43.3141 88.6087C41.2389 89.6694 39.1406 90.1997 37.0192 90.1997C35.1516 90.1997 33.3184 89.7616 31.5199 88.8854C28.3609 87.3866 26.2511 85.173 25.1905 82.2447C24.1562 79.3892 23.6485 76.0295 23.6666 72.1656C19.9385 71.3349 16.803 70.0945 14.2609 68.4444C11.6323 66.7381 9.93753 64.2017 9.17662 60.8352C8.4157 57.4688 8.85381 54.4482 10.4909 51.7734C12.0841 49.1481 14.377 46.6644 17.3677 44.3229C15.6407 40.8718 14.6275 37.6025 14.3301 34.5145C14.0303 31.4016 14.9642 28.4963 17.1317 25.7985C19.2761 23.0776 21.9047 21.5212 25.0175 21.1292C28.0539 20.7244 31.4522 20.9786 35.2126 21.8902C36.8664 18.3994 38.783 15.5972 40.9622 13.4855C43.2219 11.295 46.0811 10.1997 49.5398 10.1997ZM49.5398 18.7081C48.2716 18.7081 47.234 19.0655 46.4269 19.7803C45.643 20.4951 44.9743 21.3829 44.4209 22.4435C44.1521 22.9811 43.8862 23.5193 43.6234 24.0569C43.3677 24.5798 43.1146 25.1027 42.8645 25.6256C42.4059 26.6191 41.9413 27.6325 41.4707 28.6657C40.6321 30.5068 38.5985 31.4884 36.6348 31.0019C35.5109 30.7234 34.4055 30.4531 33.3184 30.1911C32.7725 30.071 32.2236 29.954 31.6725 29.8391C31.0599 29.7113 30.4441 29.5861 29.8251 29.4647C28.6722 29.2111 27.577 29.1765 26.5394 29.361C25.5017 29.5454 24.5794 30.1334 23.7724 31.1249C22.9884 32.1164 22.631 33.1425 22.7002 34.2032C22.7694 35.2408 23.0461 36.3015 23.5303 37.3852C23.7834 37.9517 24.0399 38.5118 24.2993 39.0657C24.5362 39.5714 24.7754 40.072 25.0175 40.5672C25.5206 41.5927 26.0317 42.6264 26.5509 43.6683C27.4475 45.4673 26.9459 47.651 25.3538 48.878C24.4654 49.5626 23.5924 50.2396 22.7348 50.9087C22.2674 51.2827 21.8004 51.6601 21.333 52.0399C20.8782 52.4095 20.4225 52.7817 19.9678 53.1569C19.0685 53.9178 18.3537 54.771 17.8234 55.7164C17.3161 56.6387 17.2008 57.7109 17.4775 58.933C17.7542 60.1781 18.3307 61.1119 19.2069 61.7345C20.0831 62.334 21.0977 62.7837 22.2505 63.0834C22.8087 63.2174 23.364 63.3523 23.9168 63.4862C24.5057 63.629 25.092 63.7708 25.6747 63.9135C26.7394 64.1283 27.8174 64.3468 28.9086 64.569C30.8818 64.9709 32.2808 66.7298 32.2399 68.7431C32.217 69.8718 32.1961 70.9828 32.1771 72.0761L32.2462 75.6731C32.2693 76.8721 32.4768 77.9559 32.8688 78.9243C33.2838 79.9158 34.0563 80.6883 35.1861 81.2416C36.316 81.772 37.3882 81.8873 38.4027 81.5875C39.4173 81.2878 40.3973 80.7805 41.3426 80.0657C41.8537 79.7006 42.3581 79.3287 42.8563 78.9508C43.302 78.6127 43.7434 78.2696 44.1788 77.9213C45.065 77.2043 45.9665 76.4701 46.8831 75.7187C48.4324 74.4485 50.6639 74.4479 52.2162 75.7145C53.1213 76.4529 54.0161 77.177 54.9008 77.8867C55.3394 78.2376 55.7814 78.5868 56.2253 78.9324C56.7144 79.3134 57.2069 79.6911 57.7023 80.0657C58.6477 80.8035 59.6277 81.3108 60.6422 81.5875C61.6568 81.8873 62.7405 81.772 63.8934 81.2416C65.0002 80.6883 65.7611 79.9158 66.1762 78.9243C66.5912 77.9559 66.8103 76.8721 66.8333 75.6731L66.9025 72.0761C66.8834 70.9882 66.8602 69.8805 66.833 68.7531C66.7841 66.7245 68.1913 64.947 70.1806 64.5466C71.2569 64.3299 72.3087 64.1189 73.3357 63.9135L76.7944 63.0834C77.9704 62.7837 78.9965 62.334 79.8727 61.7345C80.7489 61.1119 81.3253 60.1781 81.602 58.933C81.8787 57.7109 81.7635 56.6387 81.2562 55.7164C80.7489 54.771 80.0341 53.9178 79.1118 53.1569C78.6556 52.7806 78.1987 52.4066 77.7425 52.0359C77.2766 51.6573 76.8107 51.2815 76.3448 50.9087C75.4885 50.2407 74.6151 49.5648 73.7244 48.8812C72.117 47.6477 71.6133 45.4437 72.5227 43.6332C73.046 42.5915 73.559 41.558 74.062 40.5326C74.2986 40.0487 74.5324 39.5596 74.764 39.0657C75.0289 38.5006 75.2909 37.9288 75.5493 37.3506C76.0566 36.2669 76.3333 35.1947 76.3794 34.134C76.4486 33.0733 76.0796 32.0588 75.2726 31.0903C74.4886 30.1219 73.5778 29.5454 72.5402 29.361C71.5026 29.1765 70.3958 29.1996 69.2199 29.4301C68.6039 29.5509 67.9903 29.6772 67.3806 29.8106C66.8266 29.9319 66.2754 30.0593 65.7266 30.1911C64.657 30.4489 63.5696 30.7148 62.4645 30.9885C60.4983 31.4756 58.4645 30.4899 57.6159 28.6506C57.147 27.6343 56.68 26.6374 56.2151 25.6601C55.963 25.1216 55.7055 24.5857 55.442 24.0529C55.1754 23.5138 54.9023 22.9768 54.6241 22.4435C54.0938 21.3829 53.4251 20.4951 52.618 19.7803C51.8341 19.0655 50.808 18.7081 49.5398 18.7081Z" fill="white"/>
</g>
<defs>
<clipPath id="clip0_452_16002">
<rect width="100" height="100" rx="20" fill="white"/>
</clipPath>
</defs>
</svg>
