<svg width="151" height="152" viewBox="0 0 151 152" fill="none" xmlns="http://www.w3.org/2000/svg">
<rect x="0.148438" y="0.148438" width="150.703" height="151.703" rx="14" fill="black"/>
<rect x="0.148438" y="0.148438" width="150.703" height="151.703" rx="14" stroke="black" stroke-width="0.296875"/>
<path d="M102.719 98.0469C105.655 98.0469 108.326 98.7726 110.734 100.224C113.142 101.642 115.056 103.572 116.474 106.013C117.925 108.421 118.651 111.093 118.651 114.029C118.651 116.964 117.925 119.636 116.474 122.044C115.056 124.452 113.142 126.365 110.734 127.784C108.326 129.202 105.655 129.911 102.719 129.911C99.783 129.911 97.0946 129.202 94.6536 127.784C92.2457 126.365 90.316 124.452 88.8646 122.044C87.4462 119.636 86.737 116.964 86.737 114.029C86.737 111.093 87.4462 108.421 88.8646 106.013C90.316 103.572 92.2457 101.642 94.6536 100.224C97.0946 98.7726 99.783 98.0469 102.719 98.0469ZM47.5495 54.7526C44.6137 54.7526 41.9418 54.0434 39.5339 52.625C37.1259 51.1736 35.1962 49.2439 33.7448 46.8359C32.3264 44.395 31.6172 41.7066 31.6172 38.7708C31.6172 35.8351 32.3264 33.1632 33.7448 30.7552C35.1962 28.3472 37.1259 26.434 39.5339 25.0156C41.9418 23.5642 44.6137 22.8385 47.5495 22.8385C50.4852 22.8385 53.1571 23.5642 55.5651 25.0156C57.9731 26.434 59.8863 28.3472 61.3047 30.7552C62.7561 33.1632 63.4818 35.8351 63.4818 38.7708C63.4818 41.7066 62.7561 44.395 61.3047 46.8359C59.8863 49.2439 57.9731 51.1736 55.5651 52.625C53.1571 54.0434 50.4852 54.7526 47.5495 54.7526ZM43.5417 56.5833V53.1693H51.5078V56.5833C51.5078 62.6198 55.6311 66.7925 63.8776 69.1016L88.7656 76.1276C94.6701 77.7439 99.1233 80.2674 102.125 83.6979C105.16 87.0955 106.677 91.2517 106.677 96.1667V99.6302H98.7109V96.1667C98.7109 90.1962 94.6042 86.0399 86.3906 83.6979L61.5026 76.6719C55.5981 75.0556 51.1285 72.5486 48.0938 69.151C45.059 65.7205 43.5417 61.5312 43.5417 56.5833Z" fill="white"/>
</svg>
