<svg width="1397" height="1731" viewBox="0 0 1397 1731" fill="none" xmlns="http://www.w3.org/2000/svg">
<style>
path { fill: #111820; }
@media (prefers-color-scheme: dark) {
  path { fill: #ffffff; }
}
</style>
<path d="M107.04 450.892C-40.9601 447.692 86.3732 689.225 168.54 810.392L292.04 721.391L323.04 589.891H914.04V721.391C973.373 726.558 1088.94 767.791 1076.54 891.391C1135.71 890.058 1254.04 902.091 1254.04 960.891C1340.44 886.891 1315.71 803.724 1292.54 771.391C1391.34 690.991 1354.37 616.891 1323.54 589.891C1468.74 413.491 1363.37 369.724 1292.54 369.891C1357.34 215.491 1237.21 207.558 1169.04 222.891C1199.84 58.8911 1063.54 79.8911 991.54 110.891C969.94 -28.3089 861.54 19.5577 810.04 60.8911C742.44 -59.5089 645.207 26.0579 605.04 83.8913C463.04 -58.5089 406.873 65.8913 396.54 145.891C208.14 31.4914 189.373 175.558 203.54 261.892C52.34 227.892 76.2066 373.725 107.04 450.892Z" fill="black"/>
<path d="M164.772 931.953C171.265 931.653 177.758 931.352 184.251 931.052C182.709 869.738 197.213 808.159 219.669 750.684C290.481 572.002 443.532 421.346 630.114 380.857C893.264 337.991 1081.95 641.294 1135.1 874.495L1137.34 893.959L1156.86 896.825C1253.86 904.129 1307.8 993.621 1273.62 1082.26C1254.74 1139.59 1209.34 1194.72 1155.6 1205.66L1142.63 1208.15L1137.06 1220.24C1054.29 1464.62 849.002 1708.11 580.734 1632.6C352.709 1587.19 238.841 1339.69 202.18 1118.18C191.552 1056.58 185.41 994.085 184.261 931.503C177.761 931.503 171.261 931.503 164.761 931.503C163.747 995.219 167.91 1058.94 176.816 1122.17C207.237 1347.27 316.721 1616.76 571.288 1674.41C863.237 1766.12 1106.15 1482.97 1183.97 1241.77L1165.42 1256.34C1248.41 1237.59 1298.57 1168.89 1323 1098.55C1340.35 1046.21 1342.77 982.685 1310.21 930.232C1277.47 877.145 1217.78 853.42 1164.16 846.18L1185.92 868.51C1122.21 608.69 934.104 294.379 620.909 341.148C419.291 389.625 263.581 553.734 195.626 741.677C174.084 802.336 160.929 867.033 164.772 931.953ZM184.251 931.052L164.772 931.953L164.761 931.503H184.261L184.251 931.052Z" fill="black"/>
<path d="M169.165 939.656C171.398 940.313 173.817 940.52 176.095 939.918C178.372 939.318 180.306 937.983 181.535 936.108C182.764 934.234 183.218 931.927 182.861 929.6C182.504 927.271 181.351 925.135 179.858 923.349C179.858 923.349 179.858 923.349 179.858 923.349C174.097 916.976 167.048 911.557 159.006 907.514C125.896 890.77 84.4359 900.679 57.5084 922.319C8.61313 959.812 -11.2355 1028.35 6.25834 1084.49C22.9352 1140.93 64.3376 1180.91 107.721 1209.65C113.821 1213.64 120.193 1217.57 126.846 1221.44C128.992 1222.66 131.528 1223.17 133.992 1222.71C136.455 1222.26 138.631 1220.89 140.06 1218.89C141.49 1216.89 142.074 1214.39 141.706 1211.91C141.339 1209.43 140.035 1207.2 138.176 1205.56C138.176 1205.56 138.176 1205.56 138.176 1205.56C132.629 1200.72 127.398 1195.9 122.47 1191.12C47.7985 1126.73 18.9423 1016.05 89.5826 963.249C107.679 949.365 127.152 938.485 150.611 937.563C156.506 937.413 162.668 937.991 169.165 939.656Z" fill="black"/>
<path d="M624.349 1386.56C630.473 1389.99 630.833 1390.07 633.691 1388.59C641.337 1384.64 650.878 1382.77 659.262 1381.02C666.943 1379.41 685.704 1381.67 693.539 1385.15C695.891 1386.2 698.275 1387.05 698.837 1387.05C713.79 1387.05 727.777 1408.2 728.47 1420.73C728.884 1428.22 728.75 1428.99 726.842 1430.01C725.698 1430.62 724.744 1431.67 724.721 1432.34C724.29 1445.25 693.403 1451.83 684.748 1455.17C682.473 1456.04 674.597 1456.89 673.191 1459.17C667.333 1468.65 642.41 1458.73 634.574 1462.87C631.119 1464.69 601.038 1463.89 593.262 1461.76C579.589 1458.03 568.433 1455.68 556.171 1447.63C547.984 1442.25 537.347 1432.33 540.234 1421.55C542.307 1413.82 542.519 1413.51 548.995 1408.89C557.262 1403 566.695 1397.05 574.841 1391.42C586.227 1383.55 613.298 1380.39 624.349 1386.56Z" fill="black"/>
<path d="M549.763 1166.01C555.442 1160.25 561.124 1156.26 564.297 1155.79C572.581 1154.57 577.727 1162.72 571.419 1169.8C560.298 1182.28 547.694 1193.05 537.06 1206.05C525.502 1220.18 521.62 1273.35 547.513 1247.44C561.8 1233.18 582.628 1239.71 595.921 1250C603.66 1255.98 618.673 1255.41 626.749 1252.22C655.865 1240.72 675.408 1253.9 703.497 1252.42C708.971 1247.04 711.241 1242.06 714.988 1236.06C717.791 1231.58 708.202 1217.05 721.197 1217.05C736.405 1217.05 739.683 1236.23 739.174 1247.16C738.073 1270.75 716.965 1290.7 693.296 1290.23C689.2 1290.14 636.763 1274.24 636.763 1288.55C636.763 1302.9 589.476 1291.42 583.591 1285.8C571.985 1274.68 569.101 1265.15 552.094 1273.43C539.491 1279.56 531.065 1280.21 521.763 1275.76C507.993 1269.18 500.539 1250.44 500.636 1236.69C500.875 1202.97 529.573 1186.47 549.763 1166.01Z" fill="black"/>
<path d="M769.013 937.492C779.139 932.252 793.023 934.776 802.488 929.637C828.159 915.73 980.593 949.409 959.311 997.539C945.807 1028.07 880.713 979.294 879.099 993.159C874.862 1029.54 847.744 1036.1 820.338 1036.28C795.715 1036.44 800.017 977.958 790.517 979.476C767.014 983.236 711.677 1007.28 719.303 984.733C728.693 956.936 741.609 951.674 769.013 937.492Z" fill="black"/>
<path d="M397.105 998.228C399.392 995.702 399.189 994.378 396.219 992.431C393.768 990.826 311.938 1031.76 319.432 1000.09C329.166 958.857 399.871 935.069 440.94 933.749C453.238 933.354 469.195 933.749 480.406 934.46C497.695 935.557 563.559 960.91 552.014 985.751C538.558 1014.71 489.382 974.554 483.726 985.125C479.763 992.525 471.469 1026.86 460.404 1039.9C436.243 1068.39 377.675 1019.71 397.105 998.228Z" fill="black"/>
<path d="M772.763 786.091C795.069 784.662 819.712 783.936 841.763 788.472C852.785 790.739 888.763 791.853 888.763 809.043C888.763 830.116 835.379 817.032 820.586 817.11C797.694 817.235 790.733 825.985 771.934 834.144C752.537 842.563 730.017 850.888 708.763 851.277C698.218 851.468 668.824 849.699 668.748 832.823C668.739 831.024 668.34 828.933 667.86 828.176C661.164 817.603 687.999 805.302 693.763 803.58C719.642 795.846 745.319 787.845 772.763 786.091Z" fill="black"/>
<path d="M532.762 848.752C532.762 851.197 527.645 858.222 526.253 857.688C505.728 849.801 465.086 831.471 445.443 846.846C429.086 859.63 324.149 848.239 323.172 820.135C322.988 814.796 322.15 809.45 321.539 804.144C329.272 797.082 337.02 794.678 347.099 792.952C385.205 786.434 442.568 800.355 478.501 816.186C490.961 821.674 532.762 832.685 532.762 848.752Z" fill="black"/>
<path d="M628.31 1322.24C538.955 1289.93 505.748 1343.82 500.313 1374.8C528.115 1419.45 585.104 1351.18 628.31 1364C662.876 1374.26 723.941 1375.34 750.153 1369C761.052 1363.44 778.786 1351.44 750.153 1316.04C721.52 1280.65 656.994 1305.43 628.31 1322.24Z" fill="black"/>
<path d="M554.856 1584.23C587.256 1569.03 606.689 1590.56 612.356 1603.23C634.756 1570.83 664.356 1589.73 676.355 1603.23C707.555 1569.63 725.689 1589.23 730.855 1603.23C740.189 1592.23 762.855 1576.83 778.855 1603.23C798.855 1636.23 783.355 1667.23 767.855 1692.23C755.455 1712.23 732.689 1700.56 722.855 1692.23C718.689 1704.56 706.055 1729.23 688.855 1729.23C671.655 1729.23 659.689 1714.89 655.855 1707.73C648.689 1717.06 629.956 1734.43 612.356 1729.23C594.756 1724.03 586.356 1694.06 584.355 1679.73C561.955 1693.33 547.022 1667.73 542.356 1653.23C533.022 1623.23 522.456 1599.43 554.856 1584.23Z" fill="black"/>
</svg>
