<?xml version="1.0" encoding="utf-8"?>
<svg xmlns="http://www.w3.org/2000/svg" xmlns:xlink="http://www.w3.org/1999/xlink" width="1920" height="1080">
  <path fill="#EBF5FF" d="M-0 -0L1920 0L1920 1080L-0 1080L0 -0Z"></path>
  <clipPath id="cl_8a">
    <rect x="276.47675" y="398.87454" width="1367.0464" height="282.25095"></rect>
  </clipPath>
  <g clip-path="url(#cl_8a)">
    <path fill="white" transform="matrix(3.40061 0 0 3.40061 960 540)" d="M-201 -41.5L201 -41.5L201 41.5L-201 41.5L-201 -41.5Z" style="mix-blend-mode: hard-light"></path>
  </g>
  <path fill="#0866FF" transform="matrix(3.40061 0 0 3.40061 413.837 540.096)" d="M-13.4839 3.4717L-13.4839 -3.5742L-12.3902 -3.5742L-12.3902 -0.5957L-8.7769 -0.5957L-8.7769 -3.5742L-7.6782 -3.5742L-7.6782 3.4717L-8.7769 3.4717L-8.7769 0.3516L-12.3902 0.3516L-12.3902 3.4717L-13.4839 3.4717ZM-3.7818 3.5742C-4.2993 3.5742 -4.7469 3.4636 -5.1245 3.2422C-5.4989 3.0209 -5.787 2.7051 -5.9888 2.2949C-6.1906 1.8815 -6.2915 1.3916 -6.2915 0.8252C-6.2915 0.8252 -6.2915 0.8155 -6.2915 0.8155C-6.2915 0.2458 -6.1906 -0.2441 -5.9888 -0.6543C-5.7837 -1.0644 -5.494 -1.3802 -5.1197 -1.6015C-4.742 -1.8229 -4.2961 -1.9336 -3.7818 -1.9336C-3.2642 -1.9336 -2.8182 -1.8229 -2.4439 -1.6015C-2.0695 -1.3834 -1.7814 -1.0677 -1.5796 -0.6543C-1.3745 -0.2441 -1.272 0.2458 -1.272 0.8155C-1.272 0.8155 -1.272 0.8252 -1.272 0.8252C-1.272 1.3916 -1.3745 1.8815 -1.5796 2.2949C-1.7814 2.7051 -2.0695 3.0209 -2.4439 3.2422C-2.815 3.4636 -3.2609 3.5742 -3.7818 3.5742ZM-3.7818 2.6856C-3.479 2.6856 -3.2219 2.6123 -3.0103 2.4658C-2.7987 2.3161 -2.6376 2.1029 -2.5269 1.8262C-2.4162 1.5495 -2.3609 1.2158 -2.3609 0.8252C-2.3609 0.8252 -2.3609 0.8155 -2.3609 0.8155C-2.3609 0.4216 -2.4162 0.0863 -2.5269 -0.1904C-2.6376 -0.4671 -2.7987 -0.6787 -3.0103 -0.8252C-3.2219 -0.9749 -3.479 -1.0498 -3.7818 -1.0498C-4.0845 -1.0498 -4.3417 -0.9749 -4.5532 -0.8252C-4.7648 -0.6787 -4.9276 -0.4671 -5.0415 -0.1904C-5.1522 0.0863 -5.2075 0.4216 -5.2075 0.8155C-5.2075 0.8155 -5.2075 0.8252 -5.2075 0.8252C-5.2075 1.2158 -5.1522 1.5495 -5.0415 1.8262C-4.9276 2.1029 -4.7648 2.3161 -4.5532 2.4658C-4.3417 2.6123 -4.0845 2.6856 -3.7818 2.6856ZM-0.0122 3.4717L-0.0122 -1.831L1.0473 -1.831L1.0473 -1.0156C1.0473 -1.0156 1.1303 -1.0156 1.1303 -1.0156C1.2475 -1.3086 1.4298 -1.5348 1.6772 -1.6943C1.9279 -1.8538 2.2274 -1.9336 2.5757 -1.9336C2.8165 -1.9336 3.033 -1.8945 3.2251 -1.8164C3.4171 -1.7383 3.5815 -1.6276 3.7182 -1.4844C3.8582 -1.3444 3.9673 -1.1784 4.0454 -0.9863C4.0454 -0.9863 4.1284 -0.9863 4.1284 -0.9863C4.2163 -1.1784 4.34 -1.3444 4.4995 -1.4844C4.659 -1.6276 4.8445 -1.7383 5.0561 -1.8164C5.271 -1.8945 5.4988 -1.9336 5.7397 -1.9336C6.0978 -1.9336 6.4038 -1.8636 6.6577 -1.7236C6.9116 -1.5869 7.1053 -1.3883 7.2387 -1.1279C7.3722 -0.8675 7.4389 -0.5534 7.4389 -0.1855C7.4389 -0.1855 7.4389 3.4717 7.4389 3.4717L6.3794 3.4717C6.3794 3.4717 6.3794 0.0684 6.3794 0.0684C6.3794 -0.1758 6.3419 -0.3776 6.2671 -0.5371C6.1922 -0.6998 6.0783 -0.8219 5.9253 -0.9033C5.7755 -0.9847 5.5867 -1.0254 5.3589 -1.0254C5.1343 -1.0254 4.9373 -0.9733 4.768 -0.8691C4.602 -0.7682 4.4718 -0.6315 4.3774 -0.459C4.2863 -0.2897 4.2407 -0.0976 4.2407 0.1172C4.2407 0.1172 4.2407 3.4717 4.2407 3.4717L3.1811 3.4717C3.1811 3.4717 3.1811 -0.039 3.1811 -0.039C3.1811 -0.2409 3.1388 -0.415 3.0542 -0.5615C2.9728 -0.7112 2.8556 -0.8252 2.7026 -0.9033C2.5496 -0.9847 2.369 -1.0254 2.1606 -1.0254C1.949 -1.0254 1.7586 -0.97 1.5893 -0.8594C1.4233 -0.7487 1.2915 -0.5989 1.1938 -0.4101C1.0962 -0.2246 1.0473 -0.0163 1.0473 0.2149C1.0473 0.2149 1.0473 3.4717 1.0473 3.4717L-0.0122 3.4717ZM11.1499 3.5742C10.6323 3.5742 10.188 3.4636 9.8169 3.2422C9.4458 3.0176 9.1593 2.7002 8.9575 2.2901C8.7589 1.8799 8.6596 1.3949 8.6596 0.835C8.6596 0.835 8.6596 0.8301 8.6596 0.8301C8.6596 0.2767 8.7589 -0.2067 8.9575 -0.6201C9.1593 -1.0335 9.4425 -1.3558 9.8071 -1.5869C10.1749 -1.818 10.6046 -1.9336 11.0962 -1.9336C11.591 -1.9336 12.0158 -1.8229 12.3706 -1.6015C12.7287 -1.3802 13.0037 -1.0693 13.1958 -0.6689C13.3878 -0.2718 13.4839 0.1937 13.4839 0.7276C13.4839 0.7276 13.4839 1.0987 13.4839 1.0987L9.1968 1.0987L9.1968 0.3418L12.9565 0.3418L12.4487 1.0449C12.4487 1.0449 12.4487 0.6201 12.4487 0.6201C12.4487 0.2425 12.3901 -0.07 12.2729 -0.3174C12.159 -0.568 12.0011 -0.7552 11.7993 -0.8789C11.5975 -1.0026 11.3647 -1.0644 11.101 -1.0644C10.8374 -1.0644 10.6014 -0.9993 10.393 -0.8691C10.188 -0.7422 10.0252 -0.5534 9.9048 -0.3027C9.7876 -0.0521 9.729 0.2556 9.729 0.6201C9.729 0.6201 9.729 1.0449 9.729 1.0449C9.729 1.3932 9.7876 1.6911 9.9048 1.9385C10.0219 2.1859 10.188 2.3747 10.4028 2.5049C10.6209 2.6351 10.8781 2.7002 11.1743 2.7002C11.4022 2.7002 11.5975 2.6693 11.7602 2.6074C11.9262 2.5423 12.0613 2.4626 12.1655 2.3682C12.2729 2.2738 12.3462 2.181 12.3852 2.0899C12.3852 2.0899 12.4048 2.0508 12.4048 2.0508L13.4302 2.0508C13.4302 2.0508 13.4204 2.0947 13.4204 2.0947C13.3748 2.2705 13.2951 2.4463 13.1811 2.6221C13.0672 2.7946 12.9158 2.9525 12.727 3.0957C12.5415 3.239 12.3169 3.3545 12.0532 3.4424C11.7928 3.5303 11.4917 3.5742 11.1499 3.5742Z"></path>
  <path fill="#0866FF" transform="matrix(3.40061 0 0 3.40061 413.166 458.651)" d="M-2.536 -10.464C-1.706 -10.947 -0.908 -11.25 0 -11.25C0.908 -11.25 1.707 -10.947 2.537 -10.464C3.332 -10.002 4.237 -9.322 5.352 -8.487C5.352 -8.487 7.584 -6.81203 7.584 -6.81203C8.975 -5.77003 9.943 -5.04603 10.472 -3.98603C11.002 -2.92703 11.002 -1.71803 11 0.0199697C11 0.0199697 11 4.31997 11 4.31997C11 5.67497 11 6.79097 10.881 7.67497C10.757 8.60297 10.485 9.42197 9.829 10.078C9.172 10.735 8.353 11.006 7.425 11.131C6.541 11.25 5.425 11.25 4.071 11.25C4.071 11.25 -4.07 11.25 -4.07 11.25C-5.424 11.25 -6.541 11.25 -7.425 11.131C-8.353 11.006 -9.172 10.735 -9.828 10.078C-10.484 9.42197 -10.756 8.60297 -10.881 7.67497C-11 6.79097 -11 5.67497 -11 4.31997C-11 4.31997 -11 0.0199697 -11 0.0199697C-11 -1.71803 -11.002 -2.92703 -10.472 -3.98603C-9.942 -5.04603 -8.975 -5.77003 -7.584 -6.81203C-7.584 -6.81203 -5.35 -8.487 -5.35 -8.487C-4.236 -9.322 -3.33 -10.002 -2.535 -10.464C-2.535 -10.464 -2.536 -10.464 -2.536 -10.464ZM-1.5 1.24997C-1.8978 1.24997 -2.2793 1.40807 -2.5606 1.68937C-2.8419 1.97067 -3 2.35217 -3 2.74997C-3 2.74997 -3 9.24997 -3 9.24997L3 9.24997C3 9.24997 3 2.74997 3 2.74997C3 2.35217 2.842 1.97067 2.5607 1.68937C2.2794 1.40807 1.8978 1.24997 1.5 1.24997C1.5 1.24997 -1.5 1.24997 -1.5 1.24997Z"></path>
  <path transform="matrix(3.40061 0 0 3.40061 686.325 539.2)" d="M-10.899 3.73535L-13.403 -3.31055L-12.212 -3.31055L-10.332 2.41215L-10.249 2.41215L-8.36902 -3.31055L-7.17302 -3.31055L-9.68301 3.73535L-10.899 3.73535ZM-6.05502 3.73535L-6.05502 -1.56735L-4.99002 -1.56735L-4.99002 3.73535L-6.05502 3.73535ZM-5.51802 -2.51465C-5.70002 -2.51465 -5.85602 -2.57975 -5.98602 -2.70995C-6.11702 -2.84015 -6.18202 -2.99645 -6.18202 -3.17875C-6.18202 -3.36105 -6.11702 -3.51565 -5.98602 -3.64255C-5.85602 -3.77275 -5.70002 -3.83785 -5.51802 -3.83785C-5.33502 -3.83785 -5.17902 -3.77275 -5.04902 -3.64255C-4.91901 -3.51565 -4.85402 -3.36105 -4.85402 -3.17875C-4.85402 -2.99645 -4.91901 -2.84015 -5.04902 -2.70995C-5.17902 -2.57975 -5.33502 -2.51465 -5.51802 -2.51465ZM-1.51902 3.82325C-1.96102 3.82325 -2.34902 3.71255 -2.68102 3.49125C-3.01002 3.26655 -3.26502 2.94925 -3.44702 2.53905C-3.62602 2.12895 -3.71602 1.64555 -3.71602 1.08885C-3.71602 1.08885 -3.71602 1.07915 -3.71602 1.07915C-3.71602 0.51925 -3.62602 0.03415 -3.44702 -0.37595C-3.26802 -0.78615 -3.01402 -1.10185 -2.68602 -1.32325C-2.35702 -1.54785 -1.96802 -1.66015 -1.51902 -1.66015C-1.27502 -1.66015 -1.04702 -1.62105 -0.835015 -1.54295C-0.623015 -1.46815 -0.436015 -1.36065 -0.274015 -1.22075C-0.111015 -1.08395 0.0179848 -0.91955 0.111985 -0.72755C0.111985 -0.72755 0.189985 -0.72755 0.189985 -0.72755L0.189985 -3.64745L1.25498 -3.64745L1.25498 3.73535L0.189985 3.73535L0.189985 2.90035C0.189985 2.90035 0.111985 2.90035 0.111985 2.90035C0.00798474 3.09245 -0.124015 3.25845 -0.283015 3.39845C-0.443015 3.53515 -0.627015 3.64095 -0.835015 3.71585C-1.04302 3.78745 -1.27102 3.82325 -1.51902 3.82325ZM-1.21602 2.91505C-0.923015 2.91505 -0.669015 2.84175 -0.454015 2.69535C-0.239015 2.54885 -0.0750153 2.33885 0.0389847 2.06545C0.152985 1.78875 0.209985 1.46325 0.209985 1.08885C0.209985 1.08885 0.209985 1.07915 0.209985 1.07915C0.209985 0.70145 0.150985 0.37595 0.0339847 0.10255C-0.0800153 -0.17085 -0.244015 -0.38085 -0.459015 -0.52735C-0.671015 -0.67705 -0.923015 -0.75195 -1.21602 -0.75195C-1.50902 -0.75195 -1.76302 -0.67705 -1.97802 -0.52735C-2.18902 -0.38085 -2.35202 -0.17085 -2.46602 0.10255C-2.57702 0.37275 -2.63202 0.69825 -2.63202 1.07915C-2.63202 1.07915 -2.63202 1.08885 -2.63202 1.08885C-2.63202 1.46645 -2.57702 1.79195 -2.46602 2.06545C-2.35202 2.33885 -2.18902 2.54885 -1.97802 2.69535C-1.76302 2.84175 -1.50902 2.91505 -1.21602 2.91505ZM5.05398 3.83785C4.53598 3.83785 4.09198 3.72725 3.72098 3.50585C3.34898 3.28125 3.06298 2.96385 2.86098 2.55375C2.66298 2.14355 2.56298 1.65855 2.56298 1.09865C2.56298 1.09865 2.56298 1.09375 2.56298 1.09375C2.56298 0.54035 2.66298 0.05695 2.86098 -0.35645C3.06298 -0.76985 3.34598 -1.09215 3.71098 -1.32325C4.07898 -1.55435 4.50798 -1.66995 4.99998 -1.66995C5.49498 -1.66995 5.91898 -1.55925 6.27398 -1.33785C6.63198 -1.11655 6.90698 -0.80565 7.09898 -0.40525C7.29198 -0.00815001 7.38798 0.45735 7.38798 0.99125C7.38798 0.99125 7.38798 1.36235 7.38798 1.36235L3.09998 1.36235L3.09998 0.60545L6.85998 0.60545L6.35198 1.30855C6.35198 1.30855 6.35198 0.88375 6.35198 0.88375C6.35198 0.50615 6.29398 0.19365 6.17698 -0.05375C6.06298 -0.30435 5.90498 -0.49155 5.70298 -0.61525C5.50098 -0.73895 5.26798 -0.80075 5.00498 -0.80075C4.74098 -0.80075 4.50498 -0.73565 4.29698 -0.60545C4.09198 -0.47855 3.92898 -0.28975 3.80798 -0.03905C3.69098 0.21155 3.63298 0.51925 3.63298 0.88375C3.63298 0.88375 3.63298 1.30855 3.63298 1.30855C3.63298 1.65685 3.69098 1.95475 3.80798 2.20215C3.92598 2.44955 4.09198 2.63835 4.30698 2.76855C4.52498 2.89875 4.78198 2.96385 5.07798 2.96385C5.30598 2.96385 5.50098 2.93295 5.66398 2.87105C5.82998 2.80595 5.96498 2.72625 6.06898 2.63185C6.17698 2.53745 6.24998 2.44465 6.28898 2.35355C6.28898 2.35355 6.30798 2.31445 6.30798 2.31445L7.33398 2.31445C7.33398 2.31445 7.32398 2.35835 7.32398 2.35835C7.27898 2.53415 7.19898 2.70995 7.08498 2.88575C6.97098 3.05825 6.81998 3.21615 6.63098 3.35935C6.44498 3.50265 6.22098 3.61815 5.95698 3.70605C5.69598 3.79395 5.39498 3.83785 5.05398 3.83785ZM10.893 3.83785C10.376 3.83785 9.92798 3.72725 9.55098 3.50585C9.17598 3.28455 8.88798 2.96875 8.68598 2.55855C8.48498 2.14515 8.38398 1.65525 8.38398 1.08885C8.38398 1.08885 8.38398 1.07915 8.38398 1.07915C8.38398 0.50945 8.48498 0.01955 8.68598 -0.39065C8.89098 -0.80075 9.18098 -1.11655 9.55598 -1.33785C9.93298 -1.55925 10.379 -1.66995 10.893 -1.66995C11.411 -1.66995 11.857 -1.55925 12.231 -1.33785C12.606 -1.11975 12.894 -0.80405 13.096 -0.39065C13.301 0.01955 13.403 0.50945 13.403 1.07915C13.403 1.07915 13.403 1.08885 13.403 1.08885C13.403 1.65525 13.301 2.14515 13.096 2.55855C12.894 2.96875 12.606 3.28455 12.231 3.50585C11.86 3.72725 11.414 3.83785 10.893 3.83785ZM10.893 2.94925C11.196 2.94925 11.453 2.87595 11.665 2.72945C11.877 2.57975 12.038 2.36655 12.148 2.08985C12.259 1.81315 12.314 1.47945 12.314 1.08885C12.314 1.08885 12.314 1.07915 12.314 1.07915C12.314 0.68525 12.259 0.34995 12.148 0.07325C12.038 -0.20345 11.877 -0.41505 11.665 -0.56155C11.453 -0.71125 11.196 -0.78615 10.893 -0.78615C10.591 -0.78615 10.334 -0.71125 10.122 -0.56155C9.90998 -0.41505 9.74798 -0.20345 9.63398 0.07325C9.52298 0.34995 9.46799 0.68525 9.46799 1.07915C9.46799 1.07915 9.46799 1.08885 9.46799 1.08885C9.46799 1.47945 9.52298 1.81315 9.63398 2.08985C9.74798 2.36655 9.90998 2.57975 10.122 2.72945C10.334 2.87595 10.591 2.94925 10.893 2.94925Z"></path>
  <clipPath id="cl_8b">
    <rect x="645.76971" y="418.69409" width="81.614746" height="81.614746"></rect>
  </clipPath>
  <g clip-path="url(#cl_8b)">
    <path transform="matrix(3.40061 0 0 3.40061 687.426 456.101)" d="M-1.2535 -2.86805C-1.4055 -2.95485 -1.5785 -3.00025 -1.7535 -2.99965C-1.9285 -2.99915 -2.1005 -2.95255 -2.2515 -2.86465C-2.4035 -2.77675 -2.5285 -2.65065 -2.6165 -2.49895C-2.7035 -2.34715 -2.7495 -2.17515 -2.7495 -2.00005C-2.7495 -2.00005 -2.7495 1.99995 -2.7495 1.99995C-2.7495 2.17505 -2.7035 2.34715 -2.6165 2.49885C-2.5285 2.65065 -2.4035 2.77675 -2.2515 2.86465C-2.1005 2.95245 -1.9285 2.99905 -1.7535 2.99965C-1.5785 3.00025 -1.4055 2.95485 -1.2535 2.86795C-1.2535 2.86795 2.2465 0.86795 2.2465 0.86795C2.3995 0.78045 2.5265 0.65415 2.6145 0.50165C2.7025 0.34925 2.7495 0.17615 2.7495 -5e-05C2.7495 -0.17625 2.7025 -0.34935 2.6145 -0.50175C2.5265 -0.65415 2.3995 -0.78055 2.2465 -0.86805C2.2465 -0.86805 -1.2535 -2.86805 -1.2535 -2.86805Z"></path>
    <path transform="matrix(3.40061 0 0 3.40061 686.577 462.052)" d="M2.573 -10.75C2.573 -10.75 -2.573 -10.75 -2.573 -10.75C-4.397 -10.75 -5.866 -10.75 -7.023 -10.595C-8.223 -10.433 -9.233 -10.088 -10.036 -9.28498C-10.838 -8.48401 -11.183 -7.47301 -11.345 -6.27302C-11.5 -5.11601 -11.5 -3.64702 -11.5 -1.82301C-11.5 -1.82301 -11.5 -1.67701 -11.5 -1.67701C-11.5 0.146985 -11.5 1.61599 -11.345 2.77298C-11.183 3.97299 -10.838 4.98299 -10.035 5.78499C-9.233 6.58799 -8.222 6.93298 -7.022 7.09499C-5.866 7.24999 -4.397 7.24999 -2.573 7.24999C-2.573 7.24999 2.573 7.24999 2.573 7.24999C4.397 7.24999 5.866 7.24999 7.023 7.09499C8.223 6.93298 9.233 6.58799 10.035 5.78499C10.838 4.98299 11.183 3.97199 11.345 2.77199C11.5 1.61599 11.5 0.146985 11.5 -1.67701C11.5 -1.67701 11.5 -1.82301 11.5 -1.82301C11.5 -3.64702 11.5 -5.11601 11.345 -6.27302C11.183 -7.47301 10.838 -8.48302 10.035 -9.28598C9.233 -10.088 8.222 -10.433 7.022 -10.595C5.866 -10.75 4.397 -10.75 2.573 -10.75ZM-8.62 -7.87102C-8.251 -8.24102 -7.733 -8.48102 -6.755 -8.61199C-5.749 -8.74798 -4.414 -8.74998 -2.5 -8.74998C-2.5 -8.74998 2.5 -8.74998 2.5 -8.74998C4.414 -8.74998 5.749 -8.74798 6.756 -8.61199C7.734 -8.48102 8.252 -8.24002 8.621 -7.87201C8.991 -7.50202 9.231 -6.98401 9.363 -6.00601C9.498 -4.99901 9.5 -3.66402 9.5 -1.75002C9.5 0.163985 9.498 1.49899 9.363 2.50599C9.231 3.48398 8.99 4.00199 8.621 4.37099C8.252 4.74098 7.734 4.98099 6.756 5.11299C5.749 5.24799 4.414 5.24999 2.5 5.24999C2.5 5.24999 -2.5 5.24999 -2.5 5.24999C-4.414 5.24999 -5.749 5.24799 -6.756 5.11299C-7.734 4.98099 -8.252 4.73998 -8.621 4.37099C-8.991 4.00199 -9.231 3.48398 -9.362 2.50599C-9.498 1.49898 -9.5 0.163985 -9.5 -1.75002C-9.5 -3.66402 -9.498 -4.99901 -9.362 -6.00601C-9.231 -6.98401 -8.99 -7.50202 -8.622 -7.87102C-8.622 -7.87102 -8.62 -7.87102 -8.62 -7.87102ZM-4 8.74998C-4.266 8.74998 -4.52 8.85538 -4.707 9.04288C-4.895 9.23048 -5 9.48479 -5 9.74998C-5 10.0152 -4.895 10.2696 -4.707 10.4571C-4.52 10.6447 -4.266 10.75 -4 10.75C-4 10.75 4 10.75 4 10.75C4.265 10.75 4.519 10.6447 4.707 10.4571C4.894 10.2696 5 10.0152 5 9.74998C5 9.48479 4.894 9.23048 4.707 9.04288C4.519 8.85538 4.265 8.74998 4 8.74998C4 8.74998 -4 8.74998 -4 8.74998Z"></path>
  </g>
  <path transform="matrix(3.40061 0 0 3.40061 960.655 542.355)" d="M-29.1285 2.8076L-29.1285 -4.2383L-27.8635 -4.2383L-25.6225 1.3769L-25.5395 1.3769L-23.2975 -4.2383L-22.0335 -4.2383L-22.0335 2.8076L-23.0345 2.8076L-23.0345 -2.3584L-23.5765 -2.3584L-22.4335 -4.043L-25.1775 2.8076L-25.9885 2.8076L-28.7275 -4.043L-27.5895 -2.3584L-28.1275 -2.3584L-28.1275 2.8076L-29.1285 2.8076ZM-18.9375 2.8955C-19.2725 2.8955 -19.5745 2.832 -19.8405 2.7051C-20.1045 2.5749 -20.3125 2.3909 -20.4655 2.1533C-20.6185 1.9157 -20.6955 1.6374 -20.6955 1.3183C-20.6955 1.3183 -20.6955 1.3086 -20.6955 1.3086C-20.6955 0.9896 -20.6185 0.7178 -20.4655 0.4931C-20.3095 0.2685 -20.0855 0.0928 -19.7925 -0.0342C-19.4955 -0.1644 -19.1375 -0.2425 -18.7175 -0.2686C-18.7175 -0.2686 -16.7595 -0.3858 -16.7595 -0.3858L-16.7595 0.3613C-16.7595 0.3613 -18.5715 0.4785 -18.5715 0.4785C-18.9355 0.5013 -19.2045 0.5794 -19.3775 0.7129C-19.5495 0.8431 -19.6355 1.027 -19.6355 1.2646C-19.6355 1.2646 -19.6355 1.2744 -19.6355 1.2744C-19.6355 1.5153 -19.5435 1.7057 -19.3575 1.8457C-19.1715 1.9824 -18.9375 2.0508 -18.6545 2.0508C-18.3905 2.0508 -18.1565 1.9987 -17.9515 1.8945C-17.7425 1.7871 -17.5805 1.6439 -17.4635 1.4648C-17.3455 1.2825 -17.2875 1.0775 -17.2875 0.8496C-17.2875 0.8496 -17.2875 -0.8203 -17.2875 -0.8203C-17.2875 -1.1133 -17.3785 -1.3363 -17.5605 -1.4893C-17.7395 -1.6455 -18.0065 -1.7236 -18.3615 -1.7236C-18.6575 -1.7236 -18.9005 -1.6716 -19.0885 -1.5674C-19.2745 -1.4632 -19.3985 -1.3167 -19.4605 -1.1279C-19.4605 -1.1279 -19.4695 -1.1133 -19.4695 -1.1133L-20.4905 -1.1133C-20.4905 -1.1133 -20.4855 -1.1475 -20.4855 -1.1475C-20.4435 -1.4404 -20.3275 -1.6944 -20.1385 -1.9092C-19.9465 -2.1273 -19.6965 -2.2966 -19.3865 -2.417C-19.0745 -2.5375 -18.7175 -2.5977 -18.3175 -2.5977C-17.8715 -2.5977 -17.4935 -2.5261 -17.1845 -2.3828C-16.8725 -2.2429 -16.6365 -2.0394 -16.4765 -1.7725C-16.3135 -1.5088 -16.2325 -1.1914 -16.2325 -0.8203C-16.2325 -0.8203 -16.2325 2.8076 -16.2325 2.8076L-17.2875 2.8076L-17.2875 2.0556C-17.2875 2.0556 -17.3655 2.0556 -17.3655 2.0556C-17.4695 2.2347 -17.5995 2.3877 -17.7555 2.5146C-17.9125 2.6383 -18.0895 2.7327 -18.2885 2.7978C-18.4865 2.8629 -18.7035 2.8955 -18.9375 2.8955ZM-14.7385 2.8076L-14.7385 -2.4951L-13.6785 -2.4951L-13.6785 -1.6944C-13.6785 -1.6944 -13.5955 -1.6944 -13.5955 -1.6944C-13.5015 -1.9776 -13.3355 -2.1973 -13.0975 -2.3535C-12.8565 -2.5098 -12.5605 -2.5879 -12.2095 -2.5879C-12.1215 -2.5879 -12.0345 -2.583 -11.9505 -2.5733C-11.8655 -2.5635 -11.7975 -2.5521 -11.7455 -2.5391C-11.7455 -2.5391 -11.7455 -1.5625 -11.7455 -1.5625C-11.8395 -1.582 -11.9345 -1.5967 -12.0285 -1.6065C-12.1195 -1.6162 -12.2155 -1.6211 -12.3165 -1.6211C-12.5865 -1.6211 -12.8245 -1.569 -13.0295 -1.4649C-13.2315 -1.3607 -13.3905 -1.2142 -13.5075 -1.0254C-13.6215 -0.8399 -13.6785 -0.6185 -13.6785 -0.3613C-13.6785 -0.3613 -13.6785 2.8076 -13.6785 2.8076L-14.7385 2.8076ZM-10.6755 2.8076L-10.6755 -4.5752L-9.6165 -4.5752L-9.6165 2.8076L-10.6755 2.8076ZM-7.3365 2.8076L-9.2405 0.3222L-8.4545 -0.3369L-6.0425 2.8076L-7.3365 2.8076ZM-9.7185 0.9863L-9.7625 -0.2637L-9.5335 -0.2637L-7.4335 -2.4951L-6.1885 -2.4951L-8.5815 -0.0733L-8.9915 0.2637L-9.7185 0.9863ZM-3.1275 2.9101C-3.6445 2.9101 -4.0885 2.7995 -4.4605 2.5781C-4.8315 2.3535 -5.1175 2.0361 -5.3195 1.626C-5.5185 1.2158 -5.6175 0.7308 -5.6175 0.1709C-5.6175 0.1709 -5.6175 0.166 -5.6175 0.166C-5.6175 -0.3874 -5.5185 -0.8708 -5.3195 -1.2842C-5.1175 -1.6976 -4.8345 -2.0199 -4.4695 -2.251C-4.1015 -2.4821 -3.6725 -2.5977 -3.1805 -2.5977C-2.6855 -2.5977 -2.2615 -2.487 -1.9065 -2.2656C-1.5485 -2.0443 -1.2735 -1.7334 -1.0815 -1.333C-0.8895 -0.9359 -0.7935 -0.4704 -0.7935 0.0635C-0.7935 0.0635 -0.7935 0.4346 -0.7935 0.4346L-5.0805 0.4346L-5.0805 -0.3223L-1.3205 -0.3223L-1.8285 0.3808C-1.8285 0.3808 -1.8285 -0.044 -1.8285 -0.044C-1.8285 -0.4216 -1.8865 -0.7341 -2.0045 -0.9815C-2.1175 -1.2321 -2.2755 -1.4193 -2.4775 -1.543C-2.6795 -1.6667 -2.9125 -1.7285 -3.1755 -1.7285C-3.4395 -1.7285 -3.6755 -1.6634 -3.8835 -1.5332C-4.0885 -1.4063 -4.2515 -1.2175 -4.3725 -0.9668C-4.4895 -0.7162 -4.5475 -0.4085 -4.5475 -0.044C-4.5475 -0.044 -4.5475 0.3808 -4.5475 0.3808C-4.5475 0.7291 -4.4895 1.027 -4.3725 1.2744C-4.2545 1.5218 -4.0885 1.7106 -3.8745 1.8408C-3.6565 1.971 -3.3985 2.0361 -3.1025 2.0361C-2.8745 2.0361 -2.6795 2.0052 -2.5165 1.9433C-2.3505 1.8782 -2.2155 1.7985 -2.1115 1.7041C-2.0045 1.6097 -1.9305 1.5169 -1.8915 1.4258C-1.8915 1.4258 -1.8725 1.3867 -1.8725 1.3867L-0.8465 1.3867C-0.8465 1.3867 -0.8565 1.4306 -0.8565 1.4306C-0.9025 1.6064 -0.9815 1.7822 -1.0955 1.958C-1.2095 2.1305 -1.3615 2.2884 -1.5495 2.4316C-1.7355 2.5749 -1.9605 2.6904 -2.2235 2.7783C-2.4845 2.8662 -2.7855 2.9101 -3.1275 2.9101ZM2.4685 2.8418C1.8895 2.8418 1.4695 2.7311 1.2085 2.5097C0.9515 2.2851 0.8235 1.9189 0.8235 1.4111C0.8235 1.4111 0.8235 -1.6602 0.8235 -1.6602L-0.0065 -1.6602L-0.0065 -2.4951L0.8235 -2.4951L0.8235 -3.833L1.9075 -3.833L1.9075 -2.4951L3.0445 -2.4951L3.0445 -1.6602L1.9075 -1.6602C1.9075 -1.6602 1.9075 1.1523 1.9075 1.1523C1.9075 1.4388 1.9645 1.6455 2.0785 1.7724C2.1915 1.8961 2.3805 1.958 2.6445 1.958C2.7225 1.958 2.7895 1.9564 2.8445 1.9531C2.9035 1.9499 2.9695 1.945 3.0445 1.9385C3.0445 1.9385 3.0445 2.7881 3.0445 2.7881C2.9605 2.8011 2.8695 2.8125 2.7715 2.8222C2.6735 2.8353 2.5725 2.8418 2.4685 2.8418ZM4.2855 4.5752L4.2855 -2.4951L5.3445 -2.4951L5.3445 -1.6602C5.3445 -1.6602 5.4275 -1.6602 5.4275 -1.6602C5.5285 -1.8555 5.6585 -2.0215 5.8185 -2.1582C5.9815 -2.2949 6.1665 -2.4007 6.3745 -2.4756C6.5835 -2.5505 6.8115 -2.5879 7.0585 -2.5879C7.5045 -2.5879 7.8915 -2.474 8.2205 -2.2461C8.5495 -2.0215 8.8035 -1.7041 8.9825 -1.294C9.1645 -0.8871 9.2555 -0.4053 9.2555 0.1514C9.2555 0.1514 9.2555 0.1611 9.2555 0.1611C9.2555 0.721 9.1665 1.206 8.9875 1.6162C8.8085 2.0231 8.5545 2.3388 8.2255 2.5635C7.8965 2.7848 7.5075 2.8955 7.0585 2.8955C6.8145 2.8955 6.5865 2.8581 6.3745 2.7832C6.1635 2.7051 5.9765 2.5976 5.8135 2.4609C5.6505 2.3242 5.5225 2.1598 5.4275 1.9678C5.4275 1.9678 5.3445 1.9678 5.3445 1.9678L5.3445 4.5752L4.2855 4.5752ZM6.7555 1.9873C7.0515 1.9873 7.3055 1.914 7.5175 1.7676C7.7295 1.6211 7.8905 1.4111 8.0005 1.1377C8.1145 0.8642 8.1715 0.5387 8.1715 0.1611C8.1715 0.1611 8.1715 0.1514 8.1715 0.1514C8.1715 -0.2295 8.1145 -0.5567 8.0005 -0.8301C7.8905 -1.1035 7.7295 -1.3135 7.5175 -1.46C7.3055 -1.6065 7.0515 -1.6797 6.7555 -1.6797C6.4625 -1.6797 6.2085 -1.6048 5.9945 -1.4551C5.7795 -1.3086 5.6145 -1.0986 5.5005 -0.8252C5.3865 -0.555 5.3295 -0.2295 5.3295 0.1514C5.3295 0.1514 5.3295 0.1611 5.3295 0.1611C5.3295 0.5355 5.3865 0.8594 5.5005 1.1328C5.6145 1.4062 5.7795 1.6178 5.9945 1.7676C6.2085 1.914 6.4625 1.9873 6.7555 1.9873ZM10.5745 2.8076L10.5745 -4.5752L11.6335 -4.5752L11.6335 2.8076L10.5745 2.8076ZM14.6655 2.8955C14.3305 2.8955 14.0295 2.832 13.7625 2.7051C13.4985 2.5749 13.2905 2.3909 13.1375 2.1533C12.9845 1.9157 12.9085 1.6374 12.9085 1.3183C12.9085 1.3183 12.9085 1.3086 12.9085 1.3086C12.9085 0.9896 12.9845 0.7178 13.1375 0.4931C13.2935 0.2685 13.5185 0.0928 13.8115 -0.0342C14.1075 -0.1644 14.4655 -0.2425 14.8855 -0.2686C14.8855 -0.2686 16.8435 -0.3858 16.8435 -0.3858L16.8435 0.3613C16.8435 0.3613 15.0325 0.4785 15.0325 0.4785C14.6675 0.5013 14.3985 0.5794 14.2265 0.7129C14.0535 0.8431 13.9675 1.027 13.9675 1.2646C13.9675 1.2646 13.9675 1.2744 13.9675 1.2744C13.9675 1.5153 14.0605 1.7057 14.2455 1.8457C14.4315 1.9824 14.6655 2.0508 14.9495 2.0508C15.2125 2.0508 15.4475 1.9987 15.6525 1.8945C15.8605 1.7871 16.0235 1.6439 16.1405 1.4648C16.2575 1.2825 16.3165 1.0775 16.3165 0.8496C16.3165 0.8496 16.3165 -0.8203 16.3165 -0.8203C16.3165 -1.1133 16.2255 -1.3363 16.0425 -1.4893C15.8635 -1.6455 15.5965 -1.7236 15.2425 -1.7236C14.9455 -1.7236 14.7035 -1.6716 14.5145 -1.5674C14.3285 -1.4632 14.2055 -1.3167 14.1435 -1.1279C14.1435 -1.1279 14.1335 -1.1133 14.1335 -1.1133L13.1135 -1.1133C13.1135 -1.1133 13.1185 -1.1475 13.1185 -1.1475C13.1605 -1.4404 13.2755 -1.6944 13.4645 -1.9092C13.6565 -2.1273 13.9075 -2.2966 14.2165 -2.417C14.5295 -2.5375 14.8855 -2.5977 15.2865 -2.5977C15.7315 -2.5977 16.1095 -2.5261 16.4185 -2.3828C16.7315 -2.2429 16.9675 -2.0394 17.1265 -1.7725C17.2895 -1.5088 17.3705 -1.1914 17.3705 -0.8203C17.3705 -0.8203 17.3705 2.8076 17.3705 2.8076L16.3165 2.8076L16.3165 2.0556C16.3165 2.0556 16.2385 2.0556 16.2385 2.0556C16.1345 2.2347 16.0035 2.3877 15.8475 2.5146C15.6915 2.6383 15.5135 2.7327 15.3155 2.7978C15.1165 2.8629 14.9005 2.8955 14.6655 2.8955ZM21.0965 2.9101C20.5825 2.9101 20.1375 2.7995 19.7635 2.5781C19.3925 2.3535 19.1065 2.0345 18.9045 1.6211C18.7025 1.2077 18.6015 0.7145 18.6015 0.1416C18.6015 0.1416 18.6015 0.1318 18.6015 0.1318C18.6015 -0.4313 18.7005 -0.9164 18.8995 -1.3233C19.1015 -1.7302 19.3875 -2.0443 19.7585 -2.2656C20.1335 -2.487 20.5775 -2.5977 21.0915 -2.5977C21.5375 -2.5977 21.9205 -2.5195 22.2395 -2.3633C22.5615 -2.2103 22.8165 -1.9987 23.0055 -1.7285C23.1975 -1.4616 23.3185 -1.1572 23.3675 -0.8154C23.3675 -0.8154 23.3715 -0.791 23.3715 -0.791L22.3515 -0.791C22.3515 -0.791 22.3465 -0.8008 22.3465 -0.8008C22.2875 -1.0612 22.1525 -1.2777 21.9415 -1.4502C21.7295 -1.626 21.4485 -1.7139 21.0965 -1.7139C20.8035 -1.7139 20.5515 -1.639 20.3395 -1.4893C20.1285 -1.3428 19.9655 -1.1312 19.8515 -0.8545C19.7405 -0.5778 19.6855 -0.249 19.6855 0.1318C19.6855 0.1318 19.6855 0.1416 19.6855 0.1416C19.6855 0.5322 19.7425 0.8675 19.8565 1.1474C19.9705 1.4274 20.1335 1.6439 20.3445 1.7969C20.5565 1.9466 20.8065 2.0215 21.0965 2.0215C21.4285 2.0215 21.6975 1.9482 21.9025 1.8017C22.1105 1.6553 22.2575 1.4388 22.3415 1.1523C22.3415 1.1523 22.3515 1.1279 22.3515 1.1279L23.3675 1.123C23.3675 1.123 23.3575 1.167 23.3575 1.167C23.2955 1.512 23.1705 1.8148 22.9815 2.0752C22.7925 2.3356 22.5405 2.5407 22.2245 2.6904C21.9115 2.8369 21.5365 2.9101 21.0965 2.9101ZM26.7945 2.9101C26.2775 2.9101 25.8325 2.7995 25.4615 2.5781C25.0905 2.3535 24.8045 2.0361 24.6025 1.626C24.4035 1.2158 24.3045 0.7308 24.3045 0.1709C24.3045 0.1709 24.3045 0.166 24.3045 0.166C24.3045 -0.3874 24.4035 -0.8708 24.6025 -1.2842C24.8045 -1.6976 25.0875 -2.0199 25.4525 -2.251C25.8195 -2.4821 26.2495 -2.5977 26.7415 -2.5977C27.2355 -2.5977 27.6605 -2.487 28.0155 -2.2656C28.3735 -2.0443 28.6485 -1.7334 28.8405 -1.333C29.0325 -0.9359 29.1285 -0.4704 29.1285 0.0635C29.1285 0.0635 29.1285 0.4346 29.1285 0.4346L24.8415 0.4346L24.8415 -0.3223L28.6015 -0.3223L28.0935 0.3808C28.0935 0.3808 28.0935 -0.044 28.0935 -0.044C28.0935 -0.4216 28.0355 -0.7341 27.9175 -0.9815C27.8035 -1.2321 27.6465 -1.4193 27.4445 -1.543C27.2425 -1.6667 27.0095 -1.7285 26.7455 -1.7285C26.4825 -1.7285 26.2465 -1.6634 26.0375 -1.5332C25.8325 -1.4063 25.6705 -1.2175 25.5495 -0.9668C25.4325 -0.7162 25.3735 -0.4085 25.3735 -0.044C25.3735 -0.044 25.3735 0.3808 25.3735 0.3808C25.3735 0.7291 25.4325 1.027 25.5495 1.2744C25.6665 1.5218 25.8325 1.7106 26.0475 1.8408C26.2655 1.971 26.5235 2.0361 26.8195 2.0361C27.0475 2.0361 27.2425 2.0052 27.4055 1.9433C27.5715 1.8782 27.7065 1.7985 27.8105 1.7041C27.9175 1.6097 27.9915 1.5169 28.0305 1.4258C28.0305 1.4258 28.0495 1.3867 28.0495 1.3867L29.0755 1.3867C29.0755 1.3867 29.0655 1.4306 29.0655 1.4306C29.0195 1.6064 28.9395 1.7822 28.8265 1.958C28.7125 2.1305 28.5605 2.2884 28.3715 2.4316C28.1865 2.5749 27.9615 2.6904 27.6985 2.7783C27.4375 2.8662 27.1365 2.9101 26.7945 2.9101Z"></path>
  <path transform="matrix(3.40061 0 0 3.40061 959.986 459.501)" d="M3 -2.00002C3 -1.20432 2.684 -0.441315 2.121 0.121385C1.558 0.683985 0.795 0.999985 -2.84217e-14 0.999985C-0.796 0.999985 -1.559 0.683985 -2.122 0.121385C-2.684 -0.441315 -3 -1.20432 -3 -2.00002C-3 -2.26522 -3.106 -2.51952 -3.293 -2.70712C-3.481 -2.89462 -3.735 -3.00002 -4 -3.00002C-4.266 -3.00002 -4.52 -2.89462 -4.708 -2.70712C-4.895 -2.51952 -5 -2.26522 -5 -2.00002C-5 -0.673915 -4.474 0.597885 -3.536 1.53558C-2.598 2.47318 -1.326 2.99998 0 2.99998C1.326 2.99998 2.597 2.47318 3.535 1.53558C4.473 0.597885 5 -0.673915 5 -2.00002C5 -2.26522 4.894 -2.51952 4.707 -2.70712C4.519 -2.89462 4.265 -3.00002 4 -3.00002C3.734 -3.00002 3.48 -2.89462 3.292 -2.70712C3.105 -2.51952 3 -2.26522 3 -2.00002Z"></path>
  <path transform="matrix(3.40061 0 0 3.40061 959.986 459.501)" d="M-2.84217e-14 -11C-1.153 -10.9998 -2.27 -10.6017 -3.163 -9.87282C-4.056 -9.14398 -4.67 -8.12916 -4.9 -7C-4.9 -7 -7.033 -7 -7.033 -7C-7.165 -7 -7.294 -7 -7.416 -6.988C-7.941 -6.9375 -8.436 -6.7225 -8.831 -6.3737C-9.226 -6.0249 -9.501 -5.5602 -9.616 -5.046C-9.642 -4.921 -9.661 -4.7948 -9.674 -4.668C-9.674 -4.668 -10.198 -0.476 -10.198 -0.476C-10.47 1.693 -10.684 3.411 -10.69 4.78C-10.696 6.182 -10.488 7.364 -9.79 8.385C-9.51 8.795 -9.181 9.168 -8.81 9.496C-7.883 10.314 -6.736 10.668 -5.344 10.836C-3.985 11 -2.254 11 -0.068 11C-0.068 11 0.067 11 0.067 11C2.253 11 3.985 11 5.343 10.836C6.736 10.668 7.883 10.314 8.809 9.496C9.181 9.168 9.51 8.794 9.79 8.385C10.487 7.365 10.696 6.182 10.69 4.78C10.684 3.411 10.47 1.693 10.198 -0.476C10.198 -0.476 9.674 -4.668 9.674 -4.668C9.658 -4.798 9.642 -4.928 9.615 -5.046C9.499 -5.5602 9.225 -6.0249 8.83 -6.3737C8.434 -6.7225 7.939 -6.9375 7.415 -6.988C7.294 -7 7.165 -7 7.033 -7C7.033 -7 4.9 -7 4.9 -7C4.669 -8.12916 4.055 -9.14398 3.162 -9.87282C2.269 -10.6017 1.152 -10.9998 0 -11C0 -11 -2.84217e-14 -11 -2.84217e-14 -11ZM-2.84217e-14 -8.99997C1.306 -8.99997 2.418 -8.16497 2.83 -7C2.83 -7 -2.83 -7 -2.83 -7C-2.623 -7.585 -2.24 -8.09155 -1.733 -8.44973C-1.226 -8.80791 -0.621 -9.00015 0 -8.99997C0 -8.99997 -2.84217e-14 -8.99997 -2.84217e-14 -8.99997ZM-7.224 -4.998C-7.226 -4.998 -7.167 -5 -7 -5C-7 -5 7 -5 7 -5C7.156 -5 7.22 -4.998 7.224 -4.998C7.329 -4.9878 7.428 -4.9447 7.507 -4.8749C7.586 -4.805 7.641 -4.7119 7.664 -4.609C7.664 -4.611 7.673 -4.553 7.694 -4.388C7.694 -4.388 8.205 -0.295 8.205 -0.295C8.487 1.955 8.685 3.555 8.69 4.788C8.695 6.002 8.51 6.714 8.139 7.256C7.952 7.5291 7.732 7.778 7.485 7.997C6.992 8.433 6.309 8.705 5.104 8.851C3.879 8.998 2.268 9 -2.84217e-14 9C-2.268 9 -3.88 8.998 -5.104 8.85C-6.309 8.705 -6.993 8.432 -7.484 7.997C-7.732 7.7784 -7.952 7.5298 -8.139 7.257C-8.509 6.714 -8.696 6.002 -8.69 4.788C-8.685 3.555 -8.487 1.956 -8.206 -0.295C-8.206 -0.295 -7.694 -4.388 -7.694 -4.388C-7.674 -4.553 -7.664 -4.611 -7.664 -4.609C-7.641 -4.7119 -7.587 -4.805 -7.508 -4.8749C-7.428 -4.9447 -7.329 -4.9878 -7.224 -4.998Z"></path>
  <path transform="matrix(3.40061 0 0 3.40061 1234.07 539.2)" d="M-30.095 3.73535L-30.095 -3.31055L-29.104 -3.31055L-25.217 2.19235L-25.964 1.80665L-25.413 1.80665L-25.413 -3.31055L-24.343 -3.31055L-24.343 3.73535L-25.335 3.73535L-29.226 -1.76265L-28.474 -1.37695L-29.031 -1.37695L-29.031 3.73535L-30.095 3.73535ZM-20.452 3.83785C-20.969 3.83785 -21.417 3.72725 -21.795 3.50585C-22.169 3.28455 -22.457 2.96875 -22.659 2.55855C-22.861 2.14515 -22.962 1.65525 -22.962 1.08885C-22.962 1.08885 -22.962 1.07915 -22.962 1.07915C-22.962 0.50945 -22.861 0.01955 -22.659 -0.39065C-22.454 -0.80075 -22.164 -1.11655 -21.79 -1.33785C-21.412 -1.55925 -20.966 -1.66995 -20.452 -1.66995C-19.934 -1.66995 -19.488 -1.55925 -19.114 -1.33785C-18.74 -1.11975 -18.451 -0.80405 -18.25 -0.39065C-18.045 0.01955 -17.942 0.50945 -17.942 1.07915C-17.942 1.07915 -17.942 1.08885 -17.942 1.08885C-17.942 1.65525 -18.045 2.14515 -18.25 2.55855C-18.451 2.96875 -18.74 3.28455 -19.114 3.50585C-19.485 3.72725 -19.931 3.83785 -20.452 3.83785ZM-20.452 2.94925C-20.149 2.94925 -19.892 2.87595 -19.68 2.72945C-19.469 2.57975 -19.308 2.36655 -19.197 2.08985C-19.086 1.81315 -19.031 1.47945 -19.031 1.08885C-19.031 1.08885 -19.031 1.07915 -19.031 1.07915C-19.031 0.68525 -19.086 0.34995 -19.197 0.07325C-19.308 -0.20345 -19.469 -0.41505 -19.68 -0.56155C-19.892 -0.71125 -20.149 -0.78615 -20.452 -0.78615C-20.755 -0.78615 -21.012 -0.71125 -21.223 -0.56155C-21.435 -0.41505 -21.598 -0.20345 -21.712 0.07325C-21.822 0.34995 -21.878 0.68525 -21.878 1.07915C-21.878 1.07915 -21.878 1.08885 -21.878 1.08885C-21.878 1.47945 -21.822 1.81315 -21.712 2.08985C-21.598 2.36655 -21.435 2.57975 -21.223 2.72945C-21.012 2.87595 -20.755 2.94925 -20.452 2.94925ZM-14.68 3.76955C-15.26 3.76955 -15.68 3.65885 -15.94 3.43745C-16.197 3.21285 -16.326 2.84665 -16.326 2.33885C-16.326 2.33885 -16.326 -0.73245 -16.326 -0.73245L-17.156 -0.73245L-17.156 -1.56735L-16.326 -1.56735L-16.326 -2.90525L-15.242 -2.90525L-15.242 -1.56735L-14.104 -1.56735L-14.104 -0.73245L-15.242 -0.73245C-15.242 -0.73245 -15.242 2.08005 -15.242 2.08005C-15.242 2.36655 -15.185 2.57325 -15.071 2.70015C-14.957 2.82385 -14.768 2.88575 -14.505 2.88575C-14.426 2.88575 -14.36 2.88415 -14.304 2.88085C-14.246 2.87765 -14.179 2.87275 -14.104 2.86625C-14.104 2.86625 -14.104 3.71585 -14.104 3.71585C-14.189 3.72885 -14.28 3.74025 -14.378 3.74995C-14.475 3.76305 -14.576 3.76955 -14.68 3.76955ZM-12.849 3.73535L-12.849 -1.56735L-11.785 -1.56735L-11.785 3.73535L-12.849 3.73535ZM-12.312 -2.51465C-12.494 -2.51465 -12.651 -2.57975 -12.781 -2.70995C-12.911 -2.84015 -12.976 -2.99645 -12.976 -3.17875C-12.976 -3.36105 -12.911 -3.51565 -12.781 -3.64255C-12.651 -3.77275 -12.494 -3.83785 -12.312 -3.83785C-12.13 -3.83785 -11.974 -3.77275 -11.843 -3.64255C-11.713 -3.51565 -11.648 -3.36105 -11.648 -3.17875C-11.648 -2.99645 -11.713 -2.84015 -11.843 -2.70995C-11.974 -2.57975 -12.13 -2.51465 -12.312 -2.51465ZM-9.87097 3.73535L-9.87097 -0.73245L-10.745 -0.73245L-10.745 -1.56735L-9.87097 -1.56735C-9.87097 -1.56735 -9.87097 -2.12405 -9.87097 -2.12405C-9.87097 -2.47885 -9.81197 -2.77185 -9.69497 -3.00295C-9.57397 -3.23735 -9.39197 -3.41145 -9.14797 -3.52535C-8.90397 -3.63935 -8.59597 -3.69625 -8.22497 -3.69625C-8.10797 -3.69625 -7.99897 -3.69145 -7.89797 -3.68165C-7.79397 -3.67515 -7.69497 -3.66375 -7.59997 -3.64745C-7.59997 -3.64745 -7.59997 -2.86625 -7.59997 -2.86625C-7.64897 -2.87595 -7.70897 -2.88245 -7.78097 -2.88575C-7.84897 -2.89225 -7.92397 -2.89555 -8.00497 -2.89555C-8.29797 -2.89555 -8.50797 -2.82555 -8.63497 -2.68555C-8.75897 -2.54555 -8.82097 -2.34215 -8.82097 -2.07515C-8.82097 -2.07515 -8.82097 -1.56735 -8.82097 -1.56735L-7.64897 -1.56735L-7.64897 -0.73245L-8.81097 -0.73245L-8.81097 3.73535L-9.87097 3.73535ZM-6.44297 3.73535L-6.44297 -1.56735L-5.37897 -1.56735L-5.37897 3.73535L-6.44297 3.73535ZM-5.90597 -2.51465C-6.08797 -2.51465 -6.24397 -2.57975 -6.37497 -2.70995C-6.50497 -2.84015 -6.56997 -2.99645 -6.56997 -3.17875C-6.56997 -3.36105 -6.50497 -3.51565 -6.37497 -3.64255C-6.24397 -3.77275 -6.08797 -3.83785 -5.90597 -3.83785C-5.72397 -3.83785 -5.56697 -3.77275 -5.43697 -3.64255C-5.30697 -3.51565 -5.24197 -3.36105 -5.24197 -3.17875C-5.24197 -2.99645 -5.30697 -2.84015 -5.43697 -2.70995C-5.56697 -2.57975 -5.72397 -2.51465 -5.90597 -2.51465ZM-1.60897 3.83785C-2.12297 3.83785 -2.56797 3.72725 -2.94197 3.50585C-3.31297 3.28125 -3.59997 2.96225 -3.80097 2.54885C-4.00297 2.13545 -4.10397 1.64225 -4.10397 1.06935C-4.10397 1.06935 -4.10397 1.05955 -4.10397 1.05955C-4.10397 0.49645 -4.00497 0.01135 -3.80597 -0.39555C-3.60397 -0.80245 -3.31797 -1.11655 -2.94697 -1.33785C-2.57297 -1.55925 -2.12797 -1.66995 -1.61397 -1.66995C-1.16797 -1.66995 -0.784969 -1.59175 -0.465969 -1.43555C-0.143969 -1.28255 0.111031 -1.07095 0.300031 -0.80075C0.492031 -0.53385 0.613031 -0.22945 0.662031 0.11235C0.662031 0.11235 0.666031 0.13675 0.666031 0.13675L-0.353969 0.13675C-0.353969 0.13675 -0.358969 0.12695 -0.358969 0.12695C-0.417969 -0.13345 -0.552969 -0.34995 -0.763969 -0.52245C-0.975969 -0.69825 -1.25697 -0.78615 -1.60897 -0.78615C-1.90197 -0.78615 -2.15397 -0.71125 -2.36597 -0.56155C-2.57697 -0.41505 -2.73997 -0.20345 -2.85397 0.07325C-2.96497 0.34995 -3.01997 0.67875 -3.01997 1.05955C-3.01997 1.05955 -3.01997 1.06935 -3.01997 1.06935C-3.01997 1.45995 -2.96297 1.79525 -2.84897 2.07515C-2.73497 2.35515 -2.57297 2.57165 -2.36097 2.72465C-2.14897 2.87435 -1.89897 2.94925 -1.60897 2.94925C-1.27697 2.94925 -1.00797 2.87595 -0.802969 2.72945C-0.594969 2.58305 -0.448969 2.36655 -0.363969 2.08005C-0.363969 2.08005 -0.353969 2.05565 -0.353969 2.05565L0.662031 2.05075C0.662031 2.05075 0.652031 2.09475 0.652031 2.09475C0.590031 2.43975 0.46503 2.74255 0.276031 3.00295C0.0870305 3.26335 -0.16497 3.46845 -0.480969 3.61815C-0.79397 3.76465 -1.16997 3.83785 -1.60897 3.83785ZM3.31803 3.82325C2.98203 3.82325 2.68103 3.75975 2.41403 3.63285C2.15103 3.50265 1.94203 3.31865 1.78903 3.08105C1.63603 2.84345 1.56003 2.56515 1.56003 2.24605C1.56003 2.24605 1.56003 2.23635 1.56003 2.23635C1.56003 1.91735 1.63603 1.64555 1.78903 1.42085C1.94603 1.19625 2.17003 1.02055 2.46303 0.89355C2.75903 0.76335 3.11803 0.68525 3.53703 0.65915C3.53703 0.65915 5.49503 0.54195 5.49503 0.54195L5.49503 1.28905C5.49503 1.28905 3.68403 1.40625 3.68403 1.40625C3.31903 1.42905 3.05103 1.50715 2.87803 1.64065C2.70603 1.77085 2.62003 1.95475 2.62003 2.19235C2.62003 2.19235 2.62003 2.20215 2.62003 2.20215C2.62003 2.44305 2.71203 2.63345 2.89803 2.77345C3.08303 2.91015 3.31803 2.97855 3.60103 2.97855C3.86503 2.97855 4.09903 2.92645 4.30403 2.82225C4.51203 2.71485 4.67503 2.57165 4.79203 2.39255C4.91003 2.21025 4.96803 2.00525 4.96803 1.77735C4.96803 1.77735 4.96803 0.10745 4.96803 0.10745C4.96803 -0.18555 4.87703 -0.40855 4.69503 -0.56155C4.51603 -0.71775 4.24903 -0.79585 3.89403 -0.79585C3.59803 -0.79585 3.35503 -0.74385 3.16603 -0.63965C2.98103 -0.53545 2.85703 -0.38895 2.79503 -0.20015C2.79503 -0.20015 2.78603 -0.18555 2.78603 -0.18555L1.76503 -0.18555C1.76503 -0.18555 1.77003 -0.21975 1.77003 -0.21975C1.81203 -0.51265 1.92803 -0.76665 2.11703 -0.98145C2.30903 -1.19955 2.55903 -1.36885 2.86903 -1.48925C3.18103 -1.60975 3.53703 -1.66995 3.93803 -1.66995C4.38403 -1.66995 4.76103 -1.59835 5.07103 -1.45505C5.38303 -1.31515 5.61903 -1.11165 5.77903 -0.84475C5.94103 -0.58105 6.02303 -0.26365 6.02303 0.10745C6.02303 0.10745 6.02303 3.73535 6.02303 3.73535L4.96803 3.73535L4.96803 2.98335C4.96803 2.98335 4.89003 2.98335 4.89003 2.98335C4.78603 3.16245 4.65603 3.31545 4.49903 3.44235C4.34303 3.56605 4.16603 3.66045 3.96703 3.72555C3.76903 3.79065 3.55203 3.82325 3.31803 3.82325ZM9.51903 3.76955C8.93903 3.76955 8.52003 3.65885 8.25903 3.43745C8.00203 3.21285 7.87303 2.84665 7.87303 2.33885C7.87303 2.33885 7.87303 -0.73245 7.87303 -0.73245L7.04303 -0.73245L7.04303 -1.56735L7.87303 -1.56735L7.87303 -2.90525L8.95703 -2.90525L8.95703 -1.56735L10.095 -1.56735L10.095 -0.73245L8.95703 -0.73245C8.95703 -0.73245 8.95703 2.08005 8.95703 2.08005C8.95703 2.36655 9.01403 2.57325 9.12803 2.70015C9.24203 2.82385 9.43103 2.88575 9.69503 2.88575C9.77303 2.88575 9.84003 2.88415 9.89503 2.88085C9.95303 2.87765 10.02 2.87275 10.095 2.86625C10.095 2.86625 10.095 3.71585 10.095 3.71585C10.01 3.72885 9.91903 3.74025 9.82203 3.74995C9.72403 3.76305 9.62303 3.76955 9.51903 3.76955ZM11.35 3.73535L11.35 -1.56735L12.414 -1.56735L12.414 3.73535L11.35 3.73535ZM11.887 -2.51465C11.705 -2.51465 11.549 -2.57975 11.418 -2.70995C11.288 -2.84015 11.223 -2.99645 11.223 -3.17875C11.223 -3.36105 11.288 -3.51565 11.418 -3.64255C11.549 -3.77275 11.705 -3.83785 11.887 -3.83785C12.069 -3.83785 12.226 -3.77275 12.356 -3.64255C12.486 -3.51565 12.551 -3.36105 12.551 -3.17875C12.551 -2.99645 12.486 -2.84015 12.356 -2.70995C12.226 -2.57975 12.069 -2.51465 11.887 -2.51465ZM16.199 3.83785C15.681 3.83785 15.233 3.72725 14.856 3.50585C14.481 3.28455 14.193 2.96875 13.992 2.55855C13.79 2.14515 13.689 1.65525 13.689 1.08885C13.689 1.08885 13.689 1.07915 13.689 1.07915C13.689 0.50945 13.79 0.01955 13.992 -0.39065C14.197 -0.80075 14.486 -1.11655 14.861 -1.33785C15.238 -1.55925 15.684 -1.66995 16.199 -1.66995C16.716 -1.66995 17.162 -1.55925 17.537 -1.33785C17.911 -1.11975 18.199 -0.80405 18.401 -0.39065C18.606 0.01955 18.708 0.50945 18.708 1.07915C18.708 1.07915 18.708 1.08885 18.708 1.08885C18.708 1.65525 18.606 2.14515 18.401 2.55855C18.199 2.96875 17.911 3.28455 17.537 3.50585C17.165 3.72725 16.719 3.83785 16.199 3.83785ZM16.199 2.94925C16.501 2.94925 16.759 2.87595 16.97 2.72945C17.182 2.57975 17.343 2.36655 17.453 2.08985C17.564 1.81315 17.62 1.47945 17.62 1.08885C17.62 1.08885 17.62 1.07915 17.62 1.07915C17.62 0.68525 17.564 0.34995 17.453 0.07325C17.343 -0.20345 17.182 -0.41505 16.97 -0.56155C16.759 -0.71125 16.501 -0.78615 16.199 -0.78615C15.896 -0.78615 15.639 -0.71125 15.427 -0.56155C15.216 -0.41505 15.053 -0.20345 14.939 0.07325C14.828 0.34995 14.773 0.68525 14.773 1.07915C14.773 1.07915 14.773 1.08885 14.773 1.08885C14.773 1.47945 14.828 1.81315 14.939 2.08985C15.053 2.36655 15.216 2.57975 15.427 2.72945C15.639 2.87595 15.896 2.94925 16.199 2.94925ZM19.968 3.73535L19.968 -1.56735L21.028 -1.56735L21.028 -0.76665C21.028 -0.76665 21.111 -0.76665 21.111 -0.76665C21.241 -1.04985 21.433 -1.27115 21.687 -1.43065C21.941 -1.59015 22.261 -1.66995 22.649 -1.66995C23.245 -1.66995 23.7 -1.49905 24.016 -1.15725C24.332 -0.81545 24.49 -0.32875 24.49 0.30275C24.49 0.30275 24.49 3.73535 24.49 3.73535L23.425 3.73535C23.425 3.73535 23.425 0.55175 23.425 0.55175C23.425 0.10905 23.332 -0.21975 23.147 -0.43455C22.965 -0.65265 22.678 -0.76175 22.287 -0.76175C22.03 -0.76175 21.807 -0.70475 21.619 -0.59085C21.43 -0.48015 21.283 -0.32065 21.179 -0.11235C21.078 0.09275 21.028 0.33855 21.028 0.62495C21.028 0.62495 21.028 3.73535 21.028 3.73535L19.968 3.73535ZM27.893 3.83785C27.467 3.83785 27.095 3.77605 26.78 3.65235C26.464 3.52535 26.213 3.35125 26.028 3.12985C25.842 2.90525 25.733 2.64485 25.701 2.34865C25.701 2.34865 25.701 2.33885 25.701 2.33885L26.765 2.33885C26.765 2.33885 26.765 2.34865 26.765 2.34865C26.833 2.54715 26.964 2.70835 27.156 2.83205C27.348 2.95575 27.602 3.01755 27.917 3.01755C28.135 3.01755 28.326 2.98665 28.489 2.92485C28.655 2.86295 28.785 2.77665 28.879 2.66605C28.974 2.55535 29.021 2.42835 29.021 2.28515C29.021 2.28515 29.021 2.27535 29.021 2.27535C29.021 2.10935 28.954 1.96935 28.821 1.85545C28.687 1.74155 28.467 1.64875 28.162 1.57715C28.162 1.57715 27.312 1.38185 27.312 1.38185C26.98 1.30695 26.705 1.20445 26.487 1.07425C26.269 0.94405 26.107 0.78455 26.003 0.59575C25.899 0.40365 25.847 0.17905 25.847 -0.07815C25.847 -0.07815 25.847 -0.08305 25.847 -0.08305C25.847 -0.39225 25.935 -0.66565 26.111 -0.90335C26.287 -1.14425 26.529 -1.33135 26.838 -1.46485C27.151 -1.60155 27.507 -1.66995 27.908 -1.66995C28.311 -1.66995 28.663 -1.60645 28.962 -1.47945C29.265 -1.35575 29.504 -1.18325 29.68 -0.96195C29.856 -0.74385 29.96 -0.48995 29.993 -0.20015C29.993 -0.20015 29.993 -0.19535 29.993 -0.19535L28.977 -0.19535C28.977 -0.19535 28.977 -0.20505 28.977 -0.20505C28.928 -0.39065 28.811 -0.54525 28.625 -0.66895C28.443 -0.79265 28.202 -0.85445 27.903 -0.85445C27.711 -0.85445 27.54 -0.82355 27.39 -0.76175C27.24 -0.70315 27.121 -0.62015 27.034 -0.51265C26.949 -0.40855 26.907 -0.28485 26.907 -0.14165C26.907 -0.14165 26.907 -0.13185 26.907 -0.13185C26.907 -0.02115 26.934 0.07645 26.99 0.16115C27.048 0.24255 27.139 0.31575 27.263 0.38085C27.387 0.44275 27.546 0.49805 27.742 0.54685C27.742 0.54685 28.586 0.73735 28.586 0.73735C29.094 0.85775 29.472 1.03185 29.719 1.25975C29.97 1.48765 30.095 1.79365 30.095 2.17775C30.095 2.17775 30.095 2.18745 30.095 2.18745C30.095 2.51305 29.999 2.80115 29.807 3.05175C29.615 3.29915 29.353 3.49285 29.021 3.63285C28.692 3.76955 28.316 3.83785 27.893 3.83785Z"></path>
  <clipPath id="cl_8c">
    <rect x="1192.5883" y="418.69409" width="81.614746" height="81.614746"></rect>
  </clipPath>
  <g clip-path="url(#cl_8c)">
    <path fill="none" stroke="black" stroke-width="2" stroke-miterlimit="4" transform="matrix(3.40061 0 0 3.40061 1233.39 459.515)" d="M-2.83153 9.05563C-3.12353 8.65293 -3.32953 8.18983 -3.42953 7.69533C-3.42953 7.69533 -3.43253 7.68263 -3.43253 7.68263C-3.34853 8.10973 -3.18553 8.51543 -2.95453 8.87983C-2.95453 8.87983 -2.83153 9.05563 -2.83153 9.05563ZM-2.83153 9.05563C-2.77653 9.13163 -2.71753 9.20483 -2.65653 9.27633C-2.71753 9.20493 -2.77653 9.13153 -2.83153 9.05563ZM-2.20953 9.71383C-1.58553 10.2216 -0.804531 10.4989 -0.000530518 10.499C0.806469 10.499 1.58947 10.2196 2.21447 9.70893C2.28947 9.64803 2.36047 9.58303 2.42947 9.51653C2.39747 9.54723 2.36847 9.58073 2.33547 9.61033C1.69347 10.1855 0.861469 10.5039 -0.000530518 10.5039C-0.807531 10.5038 -1.58653 10.2219 -2.20953 9.71383ZM2.84647 9.03223C3.13047 8.63483 3.33147 8.18063 3.43047 7.69533C3.43047 7.69533 3.43247 7.68263 3.43247 7.68263C3.33547 8.17123 3.13347 8.62943 2.84647 9.03223ZM-0.000530518 -10.5039C1.05047 -10.5039 2.09047 -10.2966 3.06147 -9.89456C4.03147 -9.49255 4.91447 -8.90394 5.65647 -8.16116C6.39947 -7.41827 6.98947 -6.53607 7.39147 -5.56547C7.79347 -4.59487 7.99947 -3.55447 7.99947 -2.50397C7.99947 -2.50397 7.99947 0.42283 7.99947 0.42283C7.99947 2.30033 8.52847 4.13883 9.52247 5.73043C9.52247 5.73043 9.52247 5.73143 9.52247 5.73143C9.56947 5.80703 9.59647 5.89423 9.59847 5.98333C9.60047 6.07233 9.57847 6.16043 9.53547 6.23823C9.49247 6.31623 9.42947 6.38143 9.35247 6.42673C9.27547 6.47203 9.18747 6.49603 9.09847 6.49603C9.09847 6.49603 -9.09753 6.49603 -9.09753 6.49603C-9.09753 6.49603 -9.16453 6.49123 -9.16453 6.49123C-9.23053 6.48233 -9.29453 6.46073 -9.35153 6.42673C-9.42853 6.38143 -9.49253 6.31623 -9.53553 6.23823C-9.57853 6.16033 -9.60053 6.07233 -9.59753 5.98333C-9.59553 5.89423 -9.56853 5.80703 -9.52153 5.73143C-8.52753 4.14063 -8.00053 2.30173 -8.00053 0.42573C-8.00053 0.42573 -8.00053 -2.50397 -8.00053 -2.50397C-8.00053 -3.55447 -7.79253 -4.59487 -7.39053 -5.56547C-6.98853 -6.53607 -6.39953 -7.41827 -5.65653 -8.16116C-4.91353 -8.90375 -4.03253 -9.49258 -3.06153 -9.89456C-2.09153 -10.2965 -1.05053 -10.5039 -0.000530518 -10.5039ZM2.64247 9.29393C2.57847 9.36703 2.51147 9.43683 2.44247 9.50483C2.51147 9.43703 2.57847 9.36703 2.64247 9.29393ZM-2.44253 9.50483C-2.51253 9.43703 -2.57853 9.36693 -2.64153 9.29393C-2.57853 9.36683 -2.51253 9.43713 -2.44253 9.50483ZM-2.33553 9.61033C-2.37153 9.57773 -2.40453 9.54183 -2.43953 9.50783C-2.36853 9.57673 -2.29453 9.64293 -2.21853 9.70603C-2.25653 9.67403 -2.29753 9.64403 -2.33553 9.61033ZM2.83047 9.05563C2.77547 9.13163 2.71747 9.20483 2.65647 9.27633C2.71747 9.20493 2.77547 9.13153 2.83047 9.05563Z"></path>
  </g>
  <path transform="matrix(3.40061 0 0 3.40061 1507.03 540.096)" d="M-12.512 3.4717L-12.512 -3.5742L-11.247 -3.5742L-9.00597 2.041L-8.92297 2.041L-6.68197 -3.5742L-5.41697 -3.5742L-5.41697 3.4717L-6.41797 3.4717L-6.41797 -1.6943L-6.95997 -1.6943L-5.81797 -3.3789L-8.56197 3.4717L-9.37197 3.4717L-12.112 -3.3789L-10.974 -1.6943L-11.511 -1.6943L-11.511 3.4717L-12.512 3.4717ZM-1.54997 3.5742C-2.06797 3.5742 -2.51197 3.4636 -2.88297 3.2422C-3.25397 3.0176 -3.54097 2.7002 -3.74297 2.2901C-3.94097 1.8799 -4.03997 1.3949 -4.03997 0.835C-4.03997 0.835 -4.03997 0.8301 -4.03997 0.8301C-4.03997 0.2767 -3.94097 -0.2067 -3.74297 -0.6201C-3.54097 -1.0335 -3.25797 -1.3558 -2.89297 -1.5869C-2.52497 -1.818 -2.09497 -1.9336 -1.60397 -1.9336C-1.10897 -1.9336 -0.683969 -1.8229 -0.329969 -1.6015C0.0290305 -1.3802 0.304031 -1.0693 0.496031 -0.6689C0.68803 -0.2718 0.78403 0.1937 0.78403 0.7276C0.78403 0.7276 0.78403 1.0987 0.78403 1.0987L-3.50297 1.0987L-3.50297 0.3418L0.256031 0.3418L-0.250969 1.0449C-0.250969 1.0449 -0.250969 0.6201 -0.250969 0.6201C-0.250969 0.2425 -0.309969 -0.07 -0.426969 -0.3174C-0.540969 -0.568 -0.698969 -0.7552 -0.90097 -0.8789C-1.10297 -1.0026 -1.33497 -1.0644 -1.59897 -1.0644C-1.86297 -1.0644 -2.09897 -0.9993 -2.30697 -0.8691C-2.51197 -0.7422 -2.67497 -0.5534 -2.79497 -0.3027C-2.91297 -0.0521 -2.97097 0.2556 -2.97097 0.6201C-2.97097 0.6201 -2.97097 1.0449 -2.97097 1.0449C-2.97097 1.3932 -2.91297 1.6911 -2.79497 1.9385C-2.67797 2.1859 -2.51197 2.3747 -2.29697 2.5049C-2.07897 2.6351 -1.82197 2.7002 -1.52597 2.7002C-1.29797 2.7002 -1.10297 2.6693 -0.939969 2.6074C-0.773969 2.5423 -0.638969 2.4626 -0.53497 2.3682C-0.42697 2.2738 -0.353969 2.181 -0.314969 2.0899C-0.314969 2.0899 -0.294969 2.0508 -0.294969 2.0508L0.730031 2.0508C0.730031 2.0508 0.720031 2.0947 0.720031 2.0947C0.675031 2.2705 0.595031 2.4463 0.481031 2.6221C0.367031 2.7946 0.216031 2.9525 0.0270305 3.0957C-0.158969 3.239 -0.382969 3.3545 -0.646969 3.4424C-0.906969 3.5303 -1.20797 3.5742 -1.54997 3.5742ZM2.04403 3.4717L2.04403 -1.831L3.10303 -1.831L3.10303 -1.0303C3.10303 -1.0303 3.18603 -1.0303 3.18603 -1.0303C3.31603 -1.3135 3.50803 -1.5348 3.76203 -1.6943C4.01603 -1.8538 4.33703 -1.9336 4.72403 -1.9336C5.32003 -1.9336 5.77603 -1.7627 6.09103 -1.4209C6.40703 -1.0791 6.56503 -0.5924 6.56503 0.0391C6.56503 0.0391 6.56503 3.4717 6.56503 3.4717L5.50103 3.4717C5.50103 3.4717 5.50103 0.2881 5.50103 0.2881C5.50103 -0.1546 5.40803 -0.4834 5.22203 -0.6982C5.04003 -0.9163 4.75303 -1.0254 4.36303 -1.0254C4.10603 -1.0254 3.88303 -0.9684 3.69403 -0.8545C3.50503 -0.7438 3.35903 -0.5843 3.25403 -0.376C3.15403 -0.1709 3.10303 0.0749 3.10303 0.3613C3.10303 0.3613 3.10303 3.4717 3.10303 3.4717L2.04403 3.4717ZM9.80703 3.5742C9.41003 3.5742 9.07503 3.4977 8.80103 3.3447C8.53103 3.1885 8.32803 2.9639 8.19103 2.6709C8.05803 2.3747 7.99103 2.0182 7.99103 1.6016C7.99103 1.6016 7.99103 -1.831 7.99103 -1.831L9.05003 -1.831C9.05003 -1.831 9.05003 1.3526 9.05003 1.3526C9.05003 1.7888 9.13703 2.1159 9.30903 2.334C9.48203 2.5521 9.76303 2.6612 10.154 2.6612C10.362 2.6612 10.548 2.6302 10.711 2.5684C10.873 2.5033 11.01 2.4105 11.121 2.2901C11.231 2.1696 11.313 2.0248 11.365 1.8555C11.42 1.6862 11.448 1.4942 11.448 1.2793C11.448 1.2793 11.448 -1.831 11.448 -1.831L12.512 -1.831L12.512 3.4717L11.448 3.4717L11.448 2.6709C11.448 2.6709 11.37 2.6709 11.37 2.6709C11.285 2.8597 11.17 3.0225 11.023 3.1592C10.877 3.2927 10.701 3.3952 10.496 3.4668C10.294 3.5384 10.064 3.5742 9.80703 3.5742Z"></path>
  <path transform="matrix(3.40061 0 0 3.40061 1506.8 460.101)" d="M-10.6345 6.0688C-10.8865 6.0688 -11.1005 5.981 -11.2765 5.8052C-11.4465 5.6235 -11.5315 5.4097 -11.5315 5.1636C-11.5315 4.9175 -11.4465 4.7065 -11.2765 4.5308C-11.1005 4.355 -10.8865 4.2671 -10.6345 4.2671C-10.6345 4.2671 10.6265 4.2671 10.6265 4.2671C10.8785 4.2671 11.0915 4.355 11.2675 4.5308C11.4435 4.7065 11.5315 4.9175 11.5315 5.1636C11.5315 5.4155 11.4405 5.6294 11.2585 5.8052C11.0835 5.981 10.8725 6.0688 10.6265 6.0688C10.6265 6.0688 -10.6345 6.0688 -10.6345 6.0688ZM-10.6345 0.9009C-10.8865 0.9009 -11.1005 0.813 -11.2765 0.6372C-11.4465 0.4556 -11.5315 0.2417 -11.5315 -0.0044C-11.5315 -0.2505 -11.4465 -0.4614 -11.2765 -0.6372C-11.1005 -0.813 -10.8865 -0.9009 -10.6345 -0.9009C-10.6345 -0.9009 10.6265 -0.9009 10.6265 -0.9009C10.8785 -0.9009 11.0915 -0.813 11.2675 -0.6372C11.4435 -0.4614 11.5315 -0.2505 11.5315 -0.0044C11.5315 0.2476 11.4405 0.4614 11.2585 0.6372C11.0835 0.813 10.8725 0.9009 10.6265 0.9009C10.6265 0.9009 -10.6345 0.9009 -10.6345 0.9009ZM-10.6345 -4.2671C-10.8865 -4.2671 -11.1005 -4.355 -11.2765 -4.5308C-11.4465 -4.7124 -11.5315 -4.9233 -11.5315 -5.1636C-11.5315 -5.4155 -11.4465 -5.6294 -11.2765 -5.8052C-11.1005 -5.981 -10.8865 -6.0688 -10.6345 -6.0688C-10.6345 -6.0688 10.6265 -6.0688 10.6265 -6.0688C10.8785 -6.0688 11.0915 -5.981 11.2675 -5.8052C11.4435 -5.6294 11.5315 -5.4155 11.5315 -5.1636C11.5315 -4.9175 11.4405 -4.7065 11.2585 -4.5308C11.0835 -4.355 10.8725 -4.2671 10.6265 -4.2671C10.6265 -4.2671 -10.6345 -4.2671 -10.6345 -4.2671Z"></path>
  <path fill="#0866FF" transform="matrix(3.40061 0 0 3.40061 687.951 341.064)" d="M6 0C6 3.314 3.314 6 0 6C-3.314 6 -6 3.314 -6 0C-6 -3.314 -3.314 -6 0 -6C3.314 -6 6 -3.314 6 0Z"></path>
</svg>