<?xml version="1.0" encoding="utf-8"?>
<svg xmlns="http://www.w3.org/2000/svg" xmlns:xlink="http://www.w3.org/1999/xlink" width="1920" height="1080">
  <path fill="white" d="M-0 -0L1920 0L1920 1080L-0 1080L0 -0Z"></path>
  <path transform="translate(960 540.5)" d="M-960 -540.5L960 -540.5L960 539.5L-960 539.5L-960 -540.5Z"></path>
  <path fill="white" fill-opacity="0.2" transform="translate(960.192 540.087)" d="M133.236 104.677C147.417 104.677 160.322 108.182 171.952 115.193C183.583 122.044 192.825 131.364 199.676 143.155C206.687 154.785 210.191 167.691 210.191 181.871C210.191 196.051 206.687 208.956 199.676 220.587C192.825 232.218 183.583 241.459 171.952 248.31C160.322 255.161 147.417 258.587 133.236 258.587C119.056 258.587 106.072 255.161 94.2815 248.31C82.6505 241.459 73.3295 232.218 66.3195 220.587C59.4685 208.956 56.0425 196.051 56.0425 181.871C56.0425 167.691 59.4685 154.785 66.3195 143.155C73.3295 131.364 82.6505 122.044 94.2815 115.193C106.072 108.182 119.056 104.677 133.236 104.677ZM-133.237 -104.439C-147.417 -104.439 -160.322 -107.864 -171.953 -114.715C-183.584 -121.726 -192.905 -131.046 -199.915 -142.677C-206.766 -154.467 -210.191 -167.452 -210.191 -181.632C-210.191 -195.812 -206.766 -208.718 -199.915 -220.349C-192.905 -231.979 -183.584 -241.22 -171.953 -248.072C-160.322 -255.082 -147.417 -258.587 -133.237 -258.587C-119.057 -258.587 -106.151 -255.082 -94.5205 -248.072C-82.8895 -241.22 -73.6485 -231.979 -66.7975 -220.349C-59.7875 -208.718 -56.2825 -195.812 -56.2825 -181.632C-56.2825 -167.452 -59.7875 -154.467 -66.7975 -142.677C-73.6485 -131.046 -82.8895 -121.726 -94.5205 -114.715C-106.152 -107.864 -119.057 -104.439 -133.237 -104.439ZM-152.595 -95.596L-152.595 -112.086L-114.118 -112.086C-114.118 -112.086 -114.118 -95.596 -114.118 -95.596C-114.118 -66.439 -94.2015 -46.285 -54.3705 -35.132C-54.3705 -35.132 65.8415 -1.195 65.8415 -1.195C94.3605 6.612 115.87 18.8 130.368 35.37C145.027 51.781 152.355 71.856 152.355 95.596C152.355 95.596 152.355 112.325 152.355 112.325L113.879 112.325C113.879 112.325 113.879 95.596 113.879 95.596C113.879 66.758 94.0425 46.682 54.3705 35.37C54.3705 35.37 -65.8415 1.434 -65.8415 1.434C-94.3615 -6.373 -115.95 -18.482 -130.608 -34.893C-145.266 -51.463 -152.595 -71.697 -152.595 -95.596Z"></path>
  <clipPath id="cl_5d">
    <path d="M826.955 281.5C841.135 281.5 854.04 285.005 865.671 292.016C877.302 298.867 886.543 308.108 893.394 319.738C900.404 331.369 903.909 344.275 903.909 358.455C903.909 372.635 900.404 385.62 893.394 397.41C886.543 409.041 877.302 418.362 865.671 425.372C859.498 429.008 852.965 431.679 846.074 433.385C846.074 433.385 846.074 444.491 846.074 444.491C846.074 473.648 865.99 493.802 905.821 504.955C905.821 504.955 1026.03 538.892 1026.03 538.892C1054.55 546.699 1076.06 558.887 1090.56 575.457C1105.22 591.868 1112.55 611.943 1112.55 635.683C1112.55 635.683 1112.55 647.079 1112.55 647.079C1119.44 648.825 1125.97 651.559 1132.15 655.28C1143.78 662.131 1153.02 671.451 1159.87 683.241C1166.88 694.872 1170.38 707.778 1170.38 721.958C1170.38 736.138 1166.88 749.043 1159.87 760.674C1153.02 772.305 1143.78 781.546 1132.15 788.397C1120.51 795.248 1107.61 798.674 1093.43 798.674C1079.25 798.674 1066.26 795.248 1054.47 788.397C1042.84 781.546 1033.52 772.305 1026.51 760.674C1019.66 749.043 1016.23 736.138 1016.23 721.958C1016.23 707.778 1019.66 694.872 1026.51 683.241C1033.52 671.451 1042.84 662.131 1054.47 655.28C1060.67 651.593 1067.21 648.876 1074.07 647.128C1074.07 647.128 1074.07 635.683 1074.07 635.683C1074.07 606.845 1054.23 586.769 1014.56 575.457C1014.56 575.457 894.35 541.521 894.35 541.521C865.83 533.714 844.242 521.605 829.584 505.194C814.926 488.624 807.597 468.39 807.597 444.491C807.597 444.491 807.597 433.324 807.597 433.324C800.793 431.616 794.34 428.966 788.238 425.372C776.608 418.362 767.287 409.041 760.276 397.41C753.425 385.62 750 372.635 750 358.455C750 344.275 753.425 331.369 760.276 319.738C767.287 308.108 776.608 298.867 788.238 292.016C799.869 285.005 812.775 281.5 826.955 281.5ZM1106.41 671.558C1105.65 671.129 1104.78 671.03 1103.79 671.261C1102.83 671.492 1101.94 672.135 1101.12 673.19C1101.12 673.19 1056.14 729.349 1056.14 729.349C1055.28 730.47 1054.85 731.526 1054.85 732.516C1054.85 733.472 1055.18 734.281 1055.84 734.94C1056.5 735.567 1057.36 735.88 1058.42 735.88C1058.42 735.88 1086.37 735.88 1086.37 735.88C1086.37 735.88 1071.63 775.958 1071.63 775.958C1071.13 777.244 1071.03 778.35 1071.33 779.273C1071.66 780.197 1072.21 780.857 1072.96 781.253C1073.76 781.682 1074.63 781.764 1075.59 781.5C1076.58 781.269 1077.48 780.643 1078.31 779.62C1078.31 779.62 1123.28 723.411 1123.28 723.411C1124.14 722.323 1124.57 721.267 1124.57 720.245C1124.57 719.289 1124.24 718.497 1123.58 717.87C1122.92 717.21 1122.06 716.88 1121.01 716.88C1121.01 716.88 1093.05 716.88 1093.05 716.88C1093.05 716.88 1107.8 676.802 1107.8 676.802C1108.29 675.548 1108.37 674.46 1108.04 673.536C1107.75 672.613 1107.2 671.953 1106.41 671.558ZM840.48 373.974C842.887 374.007 845.477 374.353 848.247 375.013C851.051 375.639 853.707 376.514 856.214 377.636C858.721 378.757 860.782 380.093 862.398 381.644C864.015 383.194 864.823 384.892 864.823 386.739C864.823 388.883 863.899 390.83 862.052 392.578C860.205 394.359 857.616 395.893 854.284 397.18C850.986 398.499 847.077 399.506 842.558 400.198C838.072 400.924 833.173 401.286 827.862 401.286C822.519 401.286 817.587 400.924 813.067 400.198C808.581 399.506 804.672 398.516 801.341 397.229C798.042 395.943 795.469 394.409 793.622 392.628C791.808 390.847 790.901 388.883 790.901 386.739C790.902 384.892 791.693 383.194 793.276 381.644C794.893 380.093 796.954 378.757 799.461 377.636C801.968 376.514 804.623 375.639 807.427 375.013C810.231 374.353 812.82 374.007 815.195 373.974C815.195 373.974 815.195 366.75 815.195 366.75C812.491 366.75 809.571 367.08 806.438 367.739C803.337 368.366 800.269 369.29 797.234 370.511C794.233 371.698 791.495 373.149 789.021 374.864C786.547 376.58 784.567 378.543 783.083 380.753C781.599 382.93 780.857 385.321 780.856 387.927C780.856 390.664 781.896 393.287 783.974 395.794C786.085 398.334 789.153 400.594 793.177 402.573C797.201 404.585 802.116 406.169 807.922 407.323C813.76 408.511 820.408 409.104 827.862 409.104C835.317 409.104 841.948 408.511 847.753 407.323C853.591 406.169 858.523 404.585 862.547 402.573C866.571 400.594 869.622 398.334 871.7 395.794C873.778 393.287 874.817 390.665 874.817 387.927C874.817 385.321 874.075 382.93 872.591 380.753C871.139 378.543 869.177 376.58 866.703 374.864C864.229 373.149 861.475 371.698 858.44 370.511C855.439 369.29 852.371 368.366 849.237 367.739C846.137 367.08 843.217 366.75 840.48 366.75C840.48 366.75 840.48 373.974 840.48 373.974ZM827.812 300.448C824.382 300.448 821.265 301.289 818.461 302.972C815.657 304.654 813.414 306.913 811.731 309.75C810.082 312.554 809.258 315.671 809.258 319.102C809.258 322.004 809.852 324.693 811.039 327.167C812.26 329.641 813.925 331.752 816.036 333.5C818.147 335.248 820.539 336.453 823.211 337.112C823.211 337.112 823.211 368.433 823.211 368.433C823.211 372.094 823.359 375.326 823.656 378.13C823.953 380.934 824.332 383.293 824.794 385.206C825.256 387.119 825.751 388.57 826.278 389.56C826.806 390.516 827.318 390.995 827.812 390.995C828.307 390.995 828.819 390.516 829.347 389.56C829.907 388.57 830.402 387.119 830.831 385.206C831.293 383.293 831.672 380.934 831.969 378.13C832.266 375.326 832.414 372.094 832.414 368.433C832.414 368.433 832.414 337.112 832.414 337.112C835.086 336.453 837.478 335.248 839.589 333.5C841.7 331.752 843.366 329.641 844.586 327.167C845.806 324.693 846.417 322.004 846.417 319.102C846.417 315.671 845.576 312.554 843.894 309.75C842.244 306.913 840.018 304.654 837.214 302.972C834.41 301.289 831.276 300.448 827.812 300.448ZM822.519 307.375C824.267 307.375 825.767 308.002 827.021 309.255C828.274 310.508 828.901 311.993 828.901 313.708C828.901 315.423 828.274 316.925 827.021 318.211C825.767 319.464 824.267 320.091 822.519 320.091C820.836 320.091 819.352 319.464 818.065 318.211C816.812 316.925 816.185 315.423 816.185 313.708C816.185 311.993 816.812 310.508 818.065 309.255C819.352 308.002 820.836 307.375 822.519 307.375Z"></path>
  </clipPath>
  <g clip-path="url(#cl_5d)">
    <path fill="#30D158" transform="matrix(1 0 0 1.00065 960 281.423)" d="M-210 -258.5L210 -258.5L210 258.5L-210 258.5L-210 -258.5Z"></path>
  </g>
</svg>