<?xml version="1.0" encoding="utf-8"?>
<svg xmlns="http://www.w3.org/2000/svg" xmlns:xlink="http://www.w3.org/1999/xlink" width="1920" height="1080">
  <path fill="white" d="M-0 -0L1920 0L1920 1080L-0 1080L0 -0Z"></path>
  <path transform="translate(960 540.5)" d="M-960 -540.5L960 -540.5L960 539.5L-960 539.5L-960 -540.5Z"></path>
  <path fill="white" transform="translate(960.192 540.087)" d="M133.236 104.677C147.417 104.677 160.322 108.182 171.952 115.193C183.583 122.044 192.825 131.364 199.676 143.155C206.687 154.785 210.191 167.691 210.191 181.871C210.191 196.051 206.687 208.956 199.676 220.587C192.825 232.218 183.583 241.459 171.952 248.31C160.322 255.161 147.417 258.587 133.236 258.587C119.056 258.587 106.072 255.161 94.2815 248.31C82.6505 241.459 73.3295 232.218 66.3195 220.587C59.4685 208.956 56.0425 196.051 56.0425 181.871C56.0425 167.691 59.4685 154.785 66.3195 143.155C73.3295 131.364 82.6505 122.044 94.2815 115.193C106.072 108.182 119.056 104.677 133.236 104.677ZM-133.237 -104.439C-147.417 -104.439 -160.322 -107.864 -171.953 -114.715C-183.584 -121.726 -192.905 -131.046 -199.915 -142.677C-206.766 -154.467 -210.191 -167.452 -210.191 -181.632C-210.191 -195.812 -206.766 -208.718 -199.915 -220.349C-192.905 -231.979 -183.584 -241.22 -171.953 -248.072C-160.322 -255.082 -147.417 -258.587 -133.237 -258.587C-119.057 -258.587 -106.151 -255.082 -94.5205 -248.072C-82.8895 -241.22 -73.6485 -231.979 -66.7975 -220.349C-59.7875 -208.718 -56.2825 -195.812 -56.2825 -181.632C-56.2825 -167.452 -59.7875 -154.467 -66.7975 -142.677C-73.6485 -131.046 -82.8895 -121.726 -94.5205 -114.715C-106.152 -107.864 -119.057 -104.439 -133.237 -104.439ZM-152.595 -95.596L-152.595 -112.086L-114.118 -112.086C-114.118 -112.086 -114.118 -95.596 -114.118 -95.596C-114.118 -66.439 -94.2015 -46.285 -54.3705 -35.132C-54.3705 -35.132 65.8415 -1.195 65.8415 -1.195C94.3605 6.612 115.87 18.8 130.368 35.37C145.027 51.781 152.355 71.856 152.355 95.596C152.355 95.596 152.355 112.325 152.355 112.325L113.879 112.325C113.879 112.325 113.879 95.596 113.879 95.596C113.879 66.758 94.0425 46.682 54.3705 35.37C54.3705 35.37 -65.8415 1.434 -65.8415 1.434C-94.3615 -6.373 -115.95 -18.482 -130.608 -34.893C-145.266 -51.463 -152.595 -71.697 -152.595 -95.596Z"></path>
</svg>