<svg width="439" height="892" viewBox="0 0 439 892" fill="none" xmlns="http://www.w3.org/2000/svg">
<path d="M438 284.6C438 284.04 438 283.76 437.891 283.546C437.795 283.358 437.642 283.205 437.454 283.109C437.24 283 436.96 283 436.4 283H424.6C424.04 283 423.76 283 423.546 283.109C423.358 283.205 423.205 283.358 423.109 283.546C423 283.76 423 284.04 423 284.6V387.4C423 387.96 423 388.24 423.109 388.454C423.205 388.642 423.358 388.795 423.546 388.891C423.76 389 424.04 389 424.6 389H436.4C436.96 389 437.24 389 437.454 388.891C437.642 388.795 437.795 388.642 437.891 388.454C438 388.24 438 387.96 438 387.4V284.6Z" fill="url(#paint0_linear_2263_252)"/>
<path d="M438 382H424V387.4C424 387.96 424 388.24 424.109 388.454C424.205 388.642 424.358 388.795 424.546 388.891C424.76 389 425.04 389 425.6 389H436.4C436.96 389 437.24 389 437.454 388.891C437.642 388.795 437.795 388.642 437.891 388.454C438 388.24 438 387.96 438 387.4V382Z" fill="url(#paint1_linear_2263_252)"/>
<path d="M438 290H424V284.6C424 284.04 424 283.76 424.109 283.546C424.205 283.358 424.358 283.205 424.546 283.109C424.76 283 425.04 283 425.6 283H436.4C436.96 283 437.24 283 437.454 283.109C437.642 283.205 437.795 283.358 437.891 283.546C438 283.76 438 284.04 438 284.6V290Z" fill="url(#paint2_linear_2263_252)"/>
<path fill-rule="evenodd" clip-rule="evenodd" d="M423.218 388.908C423 388.48 423 387.92 423 386.8V285.2C423 284.08 423 283.52 423.218 283.092C423.41 282.716 423.716 282.41 424.092 282.218C424.52 282 425.08 282 426.2 282H435.8C436.92 282 437.48 282 437.908 282.218C438.284 282.41 438.59 282.716 438.782 283.092C439 283.52 439 284.08 439 285.2V386.8C439 387.92 439 388.48 438.782 388.908C438.59 389.284 438.284 389.59 437.908 389.782C437.48 390 436.92 390 435.8 390H426.2C425.08 390 424.52 390 424.092 389.782C423.716 389.59 423.41 389.284 423.218 388.908ZM424.109 388.454C424 388.24 424 387.96 424 387.4V284.6C424 284.04 424 283.76 424.109 283.546C424.205 283.358 424.358 283.205 424.546 283.109C424.76 283 425.04 283 425.6 283H436.4C436.96 283 437.24 283 437.454 283.109C437.642 283.205 437.795 283.358 437.891 283.546C438 283.76 438 284.04 438 284.6V387.4C438 387.96 438 388.24 437.891 388.454C437.795 388.642 437.642 388.795 437.454 388.891C437.24 389 436.96 389 436.4 389H425.6C425.04 389 424.76 389 424.546 388.891C424.358 388.795 424.205 388.642 424.109 388.454Z" fill="#353638"/>
<path d="M1 322.6C1 322.04 1 321.76 1.10899 321.546C1.20487 321.358 1.35785 321.205 1.54601 321.109C1.75992 321 2.03995 321 2.6 321H14.4C14.9601 321 15.2401 321 15.454 321.109C15.6422 321.205 15.7951 321.358 15.891 321.546C16 321.76 16 322.04 16 322.6V385.4C16 385.96 16 386.24 15.891 386.454C15.7951 386.642 15.6422 386.795 15.454 386.891C15.2401 387 14.9601 387 14.4 387H2.6C2.03995 387 1.75992 387 1.54601 386.891C1.35785 386.795 1.20487 386.642 1.10899 386.454C1 386.24 1 385.96 1 385.4V322.6Z" fill="url(#paint3_linear_2263_252)"/>
<path d="M1 380H15V385.4C15 385.96 15 386.24 14.891 386.454C14.7951 386.642 14.6422 386.795 14.454 386.891C14.2401 387 13.9601 387 13.4 387H2.6C2.03995 387 1.75992 387 1.54601 386.891C1.35785 386.795 1.20487 386.642 1.10899 386.454C1 386.24 1 385.96 1 385.4V380Z" fill="url(#paint4_linear_2263_252)"/>
<path d="M1 328H15V322.6C15 322.04 15 321.76 14.891 321.546C14.7951 321.358 14.6422 321.205 14.454 321.109C14.2401 321 13.9601 321 13.4 321H2.6C2.03995 321 1.75992 321 1.54601 321.109C1.35785 321.205 1.20487 321.358 1.10899 321.546C1 321.76 1 322.04 1 322.6V328Z" fill="url(#paint5_linear_2263_252)"/>
<path fill-rule="evenodd" clip-rule="evenodd" d="M0.217987 386.908C0 386.48 0 385.92 0 384.8V323.2C0 322.08 0 321.52 0.217987 321.092C0.409734 320.716 0.715695 320.41 1.09202 320.218C1.51984 320 2.0799 320 3.2 320H12.8C13.9201 320 14.4802 320 14.908 320.218C15.2843 320.41 15.5903 320.716 15.782 321.092C16 321.52 16 322.08 16 323.2V384.8C16 385.92 16 386.48 15.782 386.908C15.5903 387.284 15.2843 387.59 14.908 387.782C14.4802 388 13.9201 388 12.8 388H3.2C2.0799 388 1.51984 388 1.09202 387.782C0.715695 387.59 0.409734 387.284 0.217987 386.908ZM1.10899 386.454C1 386.24 1 385.96 1 385.4V322.6C1 322.04 1 321.76 1.10899 321.546C1.20487 321.358 1.35785 321.205 1.54601 321.109C1.75992 321 2.03995 321 2.6 321H13.4C13.9601 321 14.2401 321 14.454 321.109C14.6422 321.205 14.7951 321.358 14.891 321.546C15 321.76 15 322.04 15 322.6V385.4C15 385.96 15 386.24 14.891 386.454C14.7951 386.642 14.6422 386.795 14.454 386.891C14.2401 387 13.9601 387 13.4 387H2.6C2.03995 387 1.75992 387 1.54601 386.891C1.35785 386.795 1.20487 386.642 1.10899 386.454Z" fill="#353638"/>
<path d="M1 238.6C1 238.04 1 237.76 1.10899 237.546C1.20487 237.358 1.35785 237.205 1.54601 237.109C1.75992 237 2.03995 237 2.6 237H14.4C14.9601 237 15.2401 237 15.454 237.109C15.6422 237.205 15.7951 237.358 15.891 237.546C16 237.76 16 238.04 16 238.6V301.4C16 301.96 16 302.24 15.891 302.454C15.7951 302.642 15.6422 302.795 15.454 302.891C15.2401 303 14.9601 303 14.4 303H2.6C2.03995 303 1.75992 303 1.54601 302.891C1.35785 302.795 1.20487 302.642 1.10899 302.454C1 302.24 1 301.96 1 301.4V238.6Z" fill="url(#paint6_linear_2263_252)"/>
<path d="M1 296H15V301.4C15 301.96 15 302.24 14.891 302.454C14.7951 302.642 14.6422 302.795 14.454 302.891C14.2401 303 13.9601 303 13.4 303H2.6C2.03995 303 1.75992 303 1.54601 302.891C1.35785 302.795 1.20487 302.642 1.10899 302.454C1 302.24 1 301.96 1 301.4V296Z" fill="url(#paint7_linear_2263_252)"/>
<path d="M1 244H15V238.6C15 238.04 15 237.76 14.891 237.546C14.7951 237.358 14.6422 237.205 14.454 237.109C14.2401 237 13.9601 237 13.4 237H2.6C2.03995 237 1.75992 237 1.54601 237.109C1.35785 237.205 1.20487 237.358 1.10899 237.546C1 237.76 1 238.04 1 238.6V244Z" fill="url(#paint8_linear_2263_252)"/>
<path fill-rule="evenodd" clip-rule="evenodd" d="M0.217987 302.908C0 302.48 0 301.92 0 300.8V239.2C0 238.08 0 237.52 0.217987 237.092C0.409734 236.716 0.715695 236.41 1.09202 236.218C1.51984 236 2.0799 236 3.2 236H12.8C13.9201 236 14.4802 236 14.908 236.218C15.2843 236.41 15.5903 236.716 15.782 237.092C16 237.52 16 238.08 16 239.2V300.8C16 301.92 16 302.48 15.782 302.908C15.5903 303.284 15.2843 303.59 14.908 303.782C14.4802 304 13.9201 304 12.8 304H3.2C2.0799 304 1.51984 304 1.09202 303.782C0.715695 303.59 0.409734 303.284 0.217987 302.908ZM1.10899 302.454C1 302.24 1 301.96 1 301.4V238.6C1 238.04 1 237.76 1.10899 237.546C1.20487 237.358 1.35785 237.205 1.54601 237.109C1.75992 237 2.03995 237 2.6 237H13.4C13.9601 237 14.2401 237 14.454 237.109C14.6422 237.205 14.7951 237.358 14.891 237.546C15 237.76 15 238.04 15 238.6V301.4C15 301.96 15 302.24 14.891 302.454C14.7951 302.642 14.6422 302.795 14.454 302.891C14.2401 303 13.9601 303 13.4 303H2.6C2.03995 303 1.75992 303 1.54601 302.891C1.35785 302.795 1.20487 302.642 1.10899 302.454Z" fill="#353638"/>
<path d="M1 174.6C1 174.04 1 173.76 1.10899 173.546C1.20487 173.358 1.35785 173.205 1.54601 173.109C1.75992 173 2.03995 173 2.6 173H14.4C14.9601 173 15.2401 173 15.454 173.109C15.6422 173.205 15.7951 173.358 15.891 173.546C16 173.76 16 174.04 16 174.6V205.4C16 205.96 16 206.24 15.891 206.454C15.7951 206.642 15.6422 206.795 15.454 206.891C15.2401 207 14.9601 207 14.4 207H2.6C2.03995 207 1.75992 207 1.54601 206.891C1.35785 206.795 1.20487 206.642 1.10899 206.454C1 206.24 1 205.96 1 205.4V174.6Z" fill="url(#paint9_linear_2263_252)"/>
<path d="M1 180H15V174.6C15 174.04 15 173.76 14.891 173.546C14.7951 173.358 14.6422 173.205 14.454 173.109C14.2401 173 13.9601 173 13.4 173H2.6C2.03995 173 1.75992 173 1.54601 173.109C1.35785 173.205 1.20487 173.358 1.10899 173.546C1 173.76 1 174.04 1 174.6V180Z" fill="url(#paint10_linear_2263_252)"/>
<path d="M1 201H15V206.4C15 206.96 15 207.24 14.891 207.454C14.7951 207.642 14.6422 207.795 14.454 207.891C14.2401 208 13.9601 208 13.4 208H2.6C2.03995 208 1.75992 208 1.54601 207.891C1.35785 207.795 1.20487 207.642 1.10899 207.454C1 207.24 1 206.96 1 206.4V201Z" fill="url(#paint11_linear_2263_252)"/>
<path fill-rule="evenodd" clip-rule="evenodd" d="M0.217987 206.908C0 206.48 0 205.92 0 204.8V175.2C0 174.08 0 173.52 0.217987 173.092C0.409734 172.716 0.715695 172.41 1.09202 172.218C1.51984 172 2.0799 172 3.2 172H12.8C13.9201 172 14.4802 172 14.908 172.218C15.2843 172.41 15.5903 172.716 15.782 173.092C16 173.52 16 174.08 16 175.2V204.8C16 205.92 16 206.48 15.782 206.908C15.5903 207.284 15.2843 207.59 14.908 207.782C14.4802 208 13.9201 208 12.8 208H3.2C2.0799 208 1.51984 208 1.09202 207.782C0.715695 207.59 0.409734 207.284 0.217987 206.908ZM1.10899 206.454C1 206.24 1 205.96 1 205.4V174.6C1 174.04 1 173.76 1.10899 173.546C1.20487 173.358 1.35785 173.205 1.54601 173.109C1.75992 173 2.03995 173 2.6 173H13.4C13.9601 173 14.2401 173 14.454 173.109C14.6422 173.205 14.7951 173.358 14.891 173.546C15 173.76 15 174.04 15 174.6V205.4C15 205.96 15 206.24 14.891 206.454C14.7951 206.642 14.6422 206.795 14.454 206.891C14.2401 207 13.9601 207 13.4 207H2.6C2.03995 207 1.75992 207 1.54601 206.891C1.35785 206.795 1.20487 206.642 1.10899 206.454Z" fill="#353638"/>
<path fill-rule="evenodd" clip-rule="evenodd" d="M17.7385 45.7667C10 60.9544 10 80.8363 10 120.6V771.4C10 811.164 10 831.046 17.7385 846.233C24.5455 859.593 35.4072 870.454 48.7667 877.261C63.9544 885 83.8363 885 123.6 885H315.4C355.164 885 375.046 885 390.233 877.261C403.593 870.454 414.454 859.593 421.261 846.233C429 831.046 429 811.164 429 771.4V120.6C429 80.8363 429 60.9544 421.261 45.7667C414.454 32.4072 403.593 21.5455 390.233 14.7385C375.046 7 355.164 7 315.4 7H123.6C83.8363 7 63.9544 7 48.7667 14.7385C35.4072 21.5455 24.5455 32.4072 17.7385 45.7667ZM29.1036 50.5765C23 62.5556 23 78.2371 23 109.6V782.4C23 813.763 23 829.444 29.1036 841.423C34.4725 851.961 43.0395 860.527 53.5765 865.896C65.5556 872 81.2371 872 112.6 872H326.4C357.763 872 373.444 872 385.423 865.896C395.961 860.527 404.527 851.961 409.896 841.423C416 829.444 416 813.763 416 782.4V109.6C416 78.2371 416 62.5556 409.896 50.5765C404.527 40.0395 395.961 31.4725 385.423 26.1036C373.444 20 357.763 20 326.4 20H112.6C81.2371 20 65.5556 20 53.5765 26.1036C43.0395 31.4725 34.4725 40.0395 29.1036 50.5765Z" fill="black"/>
<path fill-rule="evenodd" clip-rule="evenodd" d="M16.6295 44.2207C9 59.1945 9 78.7963 9 118V774C9 813.204 9 832.806 16.6295 847.779C23.3407 860.951 34.0493 871.659 47.2207 878.37C62.1945 886 81.7963 886 121 886H318C357.204 886 376.806 886 391.779 878.37C404.951 871.659 415.659 860.951 422.37 847.779C430 832.806 430 813.204 430 774V118C430 78.7963 430 59.1945 422.37 44.2207C415.659 31.0493 404.951 20.3407 391.779 13.6295C376.806 6 357.204 6 318 6H121C81.7963 6 62.1945 6 47.2207 13.6295C34.0493 20.3407 23.3407 31.0493 16.6295 44.2207ZM17.7386 45.7667C10.0001 60.9544 10.0001 80.8363 10.0001 120.6V771.4C10.0001 811.164 10.0001 831.046 17.7386 846.233C24.5456 859.593 35.4072 870.454 48.7667 877.261C63.9545 885 83.8363 885 123.6 885H315.4C355.164 885 375.046 885 390.233 877.261C403.593 870.454 414.454 859.593 421.262 846.233C429 831.046 429 811.164 429 771.4V120.6C429 80.8363 429 60.9544 421.262 45.7667C414.454 32.4072 403.593 21.5455 390.233 14.7385C375.046 7 355.164 7 315.4 7H123.6C83.8363 7 63.9545 7 48.7667 14.7385C35.4072 21.5455 24.5456 32.4072 17.7386 45.7667Z" fill="#272624"/>
<path fill-rule="evenodd" clip-rule="evenodd" d="M14.8475 43.3127C7 58.7143 7 78.8762 7 119.2V772.8C7 813.124 7 833.286 14.8475 848.687C21.7504 862.235 32.765 873.25 46.3127 880.152C61.7143 888 81.8762 888 122.2 888H316.8C357.124 888 377.286 888 392.687 880.152C406.235 873.25 417.25 862.235 424.152 848.687C432 833.286 432 813.124 432 772.8V119.2C432 78.8762 432 58.7143 424.152 43.3127C417.25 29.765 406.235 18.7504 392.687 11.8475C377.286 4 357.124 4 316.8 4H122.2C81.8762 4 61.7143 4 46.3127 11.8475C32.765 18.7504 21.7504 29.765 14.8475 43.3127ZM16.6295 44.2207C9 59.1945 9 78.7963 9 118V774C9 813.204 9 832.806 16.6295 847.779C23.3407 860.951 34.0493 871.659 47.2207 878.37C62.1945 886 81.7963 886 121 886H318C357.204 886 376.806 886 391.779 878.37C404.951 871.659 415.659 860.951 422.37 847.779C430 832.806 430 813.204 430 774V118C430 78.7963 430 59.1945 422.37 44.2207C415.659 31.0493 404.951 20.3407 391.779 13.6295C376.806 6 357.204 6 318 6H121C81.7963 6 62.1945 6 47.2207 13.6295C34.0493 20.3407 23.3407 31.0493 16.6295 44.2207Z" fill="#4F4C49"/>
<path fill-rule="evenodd" clip-rule="evenodd" d="M13.0655 42.4047C5 58.2342 5 78.9561 5 120.4V771.6C5 813.044 5 833.766 13.0655 849.595C20.1601 863.519 31.4807 874.84 45.4047 881.935C61.2342 890 81.9561 890 123.4 890H315.6C357.044 890 377.766 890 393.595 881.935C407.519 874.84 418.84 863.519 425.934 849.595C434 833.766 434 813.044 434 771.6V120.4C434 78.9561 434 58.2342 425.934 42.4047C418.84 28.4807 407.519 17.1601 393.595 10.0655C377.766 2 357.044 2 315.6 2H123.4C81.9561 2 61.2342 2 45.4047 10.0655C31.4807 17.1601 20.1601 28.4807 13.0655 42.4047ZM14.8475 43.3127C7 58.7143 7 78.8762 7 119.2V772.8C7 813.124 7 833.286 14.8475 848.687C21.7504 862.235 32.765 873.25 46.3127 880.152C61.7143 888 81.8762 888 122.2 888H316.8C357.124 888 377.286 888 392.687 880.152C406.235 873.25 417.25 862.235 424.152 848.687C432 833.286 432 813.124 432 772.8V119.2C432 78.8762 432 58.7143 424.152 43.3127C417.25 29.765 406.235 18.7504 392.687 11.8475C377.286 4 357.124 4 316.8 4H122.2C81.8762 4 61.7143 4 46.3127 11.8475C32.765 18.7504 21.7504 29.765 14.8475 43.3127Z" fill="#C6C3C1"/>
<path fill-rule="evenodd" clip-rule="evenodd" d="M12.1745 41.9507C4 57.9941 4 78.9961 4 121V771C4 813.004 4 834.006 12.1745 850.049C19.365 864.161 30.8386 875.635 44.9507 882.826C60.9941 891 81.9961 891 124 891H315C357.004 891 378.006 891 394.049 882.826C408.161 875.635 419.635 864.161 426.826 850.049C435 834.006 435 813.004 435 771V121C435 78.9961 435 57.9941 426.826 41.9507C419.635 27.8386 408.161 16.365 394.049 9.17451C378.006 1 357.004 1 315 1H124C81.9961 1 60.9941 1 44.9507 9.17451C30.8386 16.365 19.365 27.8386 12.1745 41.9507ZM13.0655 42.4047C5 58.2342 5 78.9561 5 120.4V771.6C5 813.044 5 833.766 13.0655 849.595C20.1601 863.519 31.4807 874.84 45.4047 881.935C61.2342 890 81.9561 890 123.4 890H315.6C357.044 890 377.766 890 393.595 881.935C407.519 874.84 418.84 863.519 425.934 849.595C434 833.766 434 813.044 434 771.6V120.4C434 78.9561 434 58.2342 425.934 42.4047C418.84 28.4807 407.519 17.1601 393.595 10.0655C377.766 2 357.044 2 315.6 2H123.4C81.9561 2 61.2342 2 45.4047 10.0655C31.4807 17.1601 20.1601 28.4807 13.0655 42.4047Z" fill="#85817D"/>
<path fill-rule="evenodd" clip-rule="evenodd" d="M11.2835 41.4967C3 57.754 3 79.036 3 121.6V770.4C3 812.964 3 834.246 11.2835 850.503C18.5699 864.804 30.1964 876.43 44.4967 883.716C60.754 892 82.036 892 124.6 892H314.4C356.964 892 378.246 892 394.503 883.716C408.804 876.43 420.43 864.804 427.716 850.503C436 834.246 436 812.964 436 770.4V121.6C436 79.036 436 57.754 427.716 41.4967C420.43 27.1964 408.804 15.5699 394.503 8.2835C378.246 0 356.964 0 314.4 0H124.6C82.036 0 60.754 0 44.4967 8.2835C30.1964 15.5699 18.5699 27.1964 11.2835 41.4967ZM12.1745 41.9507C4 57.9941 4 78.9961 4 121V771C4 813.004 4 834.006 12.1745 850.049C19.365 864.161 30.8386 875.635 44.9507 882.826C60.9941 891 81.9961 891 124 891H315C357.004 891 378.006 891 394.049 882.826C408.161 875.635 419.635 864.161 426.826 850.049C435 834.006 435 813.004 435 771V121C435 78.9961 435 57.9941 426.826 41.9507C419.635 27.8386 408.161 16.365 394.049 9.17451C378.006 1 357.004 1 315 1H124C81.9961 1 60.9941 1 44.9507 9.17451C30.8386 16.365 19.365 27.8386 12.1745 41.9507Z" fill="#4F4B47"/>
<rect opacity="0.5" x="334" width="7" height="7" fill="#4F4C49"/>
<rect opacity="0.5" x="3" y="94" width="7" height="6" fill="#4F4C49"/>
<rect opacity="0.5" x="3" y="792" width="7" height="6" fill="#4F4C49"/>
<rect opacity="0.5" x="429" y="792" width="7" height="6" fill="#4F4C49"/>
<rect opacity="0.5" x="94" y="885" width="6" height="7" fill="#4F4C49"/>
<path opacity="0.5" d="M263.5 7.5V8C263.5 8.70832 263.5 9.20977 263.468 9.60156C263.436 9.98736 263.377 10.2231 263.282 10.4082C263.09 10.7845 262.784 11.0905 262.408 11.2822C262.223 11.3765 261.987 11.4362 261.602 11.4678C261.21 11.4998 260.708 11.5 260 11.5H179C178.292 11.5 177.79 11.4998 177.398 11.4678C177.013 11.4362 176.777 11.3765 176.592 11.2822C176.216 11.0905 175.91 10.7845 175.718 10.4082C175.623 10.2231 175.564 9.98736 175.532 9.60156C175.5 9.20977 175.5 8.70832 175.5 8V7.5H263.5Z" fill="#0F1013" stroke="url(#paint12_linear_2263_252)"/>
<path opacity="0.8" fill-rule="evenodd" clip-rule="evenodd" d="M177 9C177 8.44772 177.448 8 178 8H261C261.552 8 262 8.44772 262 9C262 9.55228 261.552 10 261 10H178C177.448 10 177 9.55228 177 9Z" fill="#1F2224"/>
<g clip-path="url(#clip0_2263_252)">
<path d="M157 50C157 40.0589 165.059 32 175 32H264C273.941 32 282 40.0589 282 50C282 59.9411 273.941 68 264 68H175C165.059 68 157 59.9411 157 50Z" fill="black"/>
<path fill-rule="evenodd" clip-rule="evenodd" d="M264 57C267.866 57 271 53.866 271 50C271 46.134 267.866 43 264 43C260.134 43 257 46.134 257 50C257 53.866 260.134 57 264 57ZM264 56C267.314 56 270 53.3137 270 50C270 46.6863 267.314 44 264 44C260.686 44 258 46.6863 258 50C258 53.3137 260.686 56 264 56Z" fill="url(#paint13_linear_2263_252)"/>
<g filter="url(#filter0_i_2263_252)">
<ellipse cx="264" cy="52.5568" rx="1.55682" ry="3" transform="rotate(90 264 52.5568)" fill="url(#paint14_radial_2263_252)"/>
</g>
<g filter="url(#filter1_i_2263_252)">
<ellipse cx="1.55682" cy="3" rx="1.55682" ry="3" transform="matrix(-1.19249e-08 -1 -1 1.19249e-08 267 49.1136)" fill="url(#paint15_radial_2263_252)"/>
</g>
</g>
<defs>
<filter id="filter0_i_2263_252" x="261" y="51" width="6" height="3.11365" filterUnits="userSpaceOnUse" color-interpolation-filters="sRGB">
<feFlood flood-opacity="0" result="BackgroundImageFix"/>
<feBlend mode="normal" in="SourceGraphic" in2="BackgroundImageFix" result="shape"/>
<feColorMatrix in="SourceAlpha" type="matrix" values="0 0 0 0 0 0 0 0 0 0 0 0 0 0 0 0 0 0 127 0" result="hardAlpha"/>
<feOffset/>
<feGaussianBlur stdDeviation="0.5"/>
<feComposite in2="hardAlpha" operator="arithmetic" k2="-1" k3="1"/>
<feColorMatrix type="matrix" values="0 0 0 0 0 0 0 0 0 0 0 0 0 0 0 0 0 0 0.5 0"/>
<feBlend mode="normal" in2="shape" result="effect1_innerShadow_2263_252"/>
</filter>
<filter id="filter1_i_2263_252" x="261" y="46" width="6" height="3.11365" filterUnits="userSpaceOnUse" color-interpolation-filters="sRGB">
<feFlood flood-opacity="0" result="BackgroundImageFix"/>
<feBlend mode="normal" in="SourceGraphic" in2="BackgroundImageFix" result="shape"/>
<feColorMatrix in="SourceAlpha" type="matrix" values="0 0 0 0 0 0 0 0 0 0 0 0 0 0 0 0 0 0 127 0" result="hardAlpha"/>
<feOffset/>
<feGaussianBlur stdDeviation="0.5"/>
<feComposite in2="hardAlpha" operator="arithmetic" k2="-1" k3="1"/>
<feColorMatrix type="matrix" values="0 0 0 0 0 0 0 0 0 0 0 0 0 0 0 0 0 0 0.5 0"/>
<feBlend mode="normal" in2="shape" result="effect1_innerShadow_2263_252"/>
</filter>
<linearGradient id="paint0_linear_2263_252" x1="430.5" y1="283" x2="430.5" y2="389" gradientUnits="userSpaceOnUse">
<stop stop-color="#272624"/>
<stop offset="0.484375" stop-color="#736F6B"/>
<stop offset="1" stop-color="#4E4A46"/>
</linearGradient>
<linearGradient id="paint1_linear_2263_252" x1="431" y1="382.7" x2="431" y2="388.3" gradientUnits="userSpaceOnUse">
<stop stop-color="#3C3631"/>
<stop offset="0.249443" stop-color="#050000"/>
<stop offset="0.475668" stop-color="#C1BDB9"/>
<stop offset="0.740898" stop-color="#C1BDB9"/>
<stop offset="1" stop-color="#736F6B"/>
</linearGradient>
<linearGradient id="paint2_linear_2263_252" x1="431" y1="289.3" x2="431" y2="283.7" gradientUnits="userSpaceOnUse">
<stop stop-color="#3C3631"/>
<stop offset="0.249443" stop-color="#050000"/>
<stop offset="0.475668" stop-color="#C1BDB9"/>
<stop offset="0.740898" stop-color="#C1BDB9"/>
<stop offset="1" stop-color="#736F6B"/>
</linearGradient>
<linearGradient id="paint3_linear_2263_252" x1="8.5" y1="321" x2="8.5" y2="387" gradientUnits="userSpaceOnUse">
<stop stop-color="#272624"/>
<stop offset="0.484375" stop-color="#736F6B"/>
<stop offset="1" stop-color="#4E4A46"/>
</linearGradient>
<linearGradient id="paint4_linear_2263_252" x1="8" y1="380.7" x2="8" y2="386.3" gradientUnits="userSpaceOnUse">
<stop stop-color="#3C3631"/>
<stop offset="0.249443" stop-color="#050000"/>
<stop offset="0.475668" stop-color="#C1BDB9"/>
<stop offset="0.740898" stop-color="#C1BDB9"/>
<stop offset="1" stop-color="#736F6B"/>
</linearGradient>
<linearGradient id="paint5_linear_2263_252" x1="8" y1="327.3" x2="8" y2="321.7" gradientUnits="userSpaceOnUse">
<stop stop-color="#3C3631"/>
<stop offset="0.249443" stop-color="#050000"/>
<stop offset="0.475668" stop-color="#C1BDB9"/>
<stop offset="0.740898" stop-color="#C1BDB9"/>
<stop offset="1" stop-color="#736F6B"/>
</linearGradient>
<linearGradient id="paint6_linear_2263_252" x1="8.5" y1="237" x2="8.5" y2="303" gradientUnits="userSpaceOnUse">
<stop stop-color="#272624"/>
<stop offset="0.484375" stop-color="#736F6B"/>
<stop offset="1" stop-color="#4E4A46"/>
</linearGradient>
<linearGradient id="paint7_linear_2263_252" x1="8" y1="296.7" x2="8" y2="302.3" gradientUnits="userSpaceOnUse">
<stop stop-color="#3C3631"/>
<stop offset="0.249443" stop-color="#050000"/>
<stop offset="0.475668" stop-color="#C1BDB9"/>
<stop offset="0.740898" stop-color="#C1BDB9"/>
<stop offset="1" stop-color="#736F6B"/>
</linearGradient>
<linearGradient id="paint8_linear_2263_252" x1="8" y1="243.3" x2="8" y2="237.7" gradientUnits="userSpaceOnUse">
<stop stop-color="#3C3631"/>
<stop offset="0.249443" stop-color="#050000"/>
<stop offset="0.475668" stop-color="#C1BDB9"/>
<stop offset="0.740898" stop-color="#C1BDB9"/>
<stop offset="1" stop-color="#736F6B"/>
</linearGradient>
<linearGradient id="paint9_linear_2263_252" x1="8.5" y1="173" x2="8.5" y2="207" gradientUnits="userSpaceOnUse">
<stop stop-color="#272624"/>
<stop offset="0.484375" stop-color="#736F6B"/>
<stop offset="1" stop-color="#4E4A46"/>
</linearGradient>
<linearGradient id="paint10_linear_2263_252" x1="8" y1="179.3" x2="8" y2="173.7" gradientUnits="userSpaceOnUse">
<stop stop-color="#3C3631"/>
<stop offset="0.249443" stop-color="#050000"/>
<stop offset="0.475668" stop-color="#C1BDB9"/>
<stop offset="0.740898" stop-color="#C1BDB9"/>
<stop offset="1" stop-color="#736F6B"/>
</linearGradient>
<linearGradient id="paint11_linear_2263_252" x1="8" y1="201.7" x2="8" y2="207.3" gradientUnits="userSpaceOnUse">
<stop stop-color="#3C3631"/>
<stop offset="0.249443" stop-color="#050000"/>
<stop offset="0.475668" stop-color="#C1BDB9"/>
<stop offset="0.740898" stop-color="#C1BDB9"/>
<stop offset="1" stop-color="#736F6B"/>
</linearGradient>
<linearGradient id="paint12_linear_2263_252" x1="175" y1="7" x2="175" y2="12" gradientUnits="userSpaceOnUse">
<stop stop-color="#101112"/>
<stop offset="1" stop-color="#232425"/>
</linearGradient>
<linearGradient id="paint13_linear_2263_252" x1="265.167" y1="41.8333" x2="255.25" y2="49.4167" gradientUnits="userSpaceOnUse">
<stop stop-color="#010005"/>
<stop offset="1" stop-color="#2E2D31"/>
</linearGradient>
<radialGradient id="paint14_radial_2263_252" cx="0" cy="0" r="1" gradientUnits="userSpaceOnUse" gradientTransform="translate(263.215 52.5568) rotate(90) scale(3.84704 1.58165)">
<stop stop-color="#1F85DE"/>
<stop offset="0.257948" stop-color="#1B75C9"/>
<stop offset="1" stop-color="#000232"/>
</radialGradient>
<radialGradient id="paint15_radial_2263_252" cx="0" cy="0" r="1" gradientUnits="userSpaceOnUse" gradientTransform="translate(0.772275 3) rotate(90) scale(3.84704 1.58165)">
<stop stop-color="#1F85DE"/>
<stop offset="0.257948" stop-color="#1B75C9"/>
<stop offset="1" stop-color="#000232"/>
</radialGradient>
<clipPath id="clip0_2263_252">
<rect x="157" y="32" width="125" height="36" rx="18" fill="white"/>
</clipPath>
</defs>
</svg>
