<svg width="1376" height="962" viewBox="0 0 1376 962" fill="none" xmlns="http://www.w3.org/2000/svg">
<rect x="272" width="352" height="176" rx="6" fill="white"/>
<path d="M378.916 103L370.592 73.9091H377.311L382.126 94.1222H382.368L387.68 73.9091H393.433L398.731 94.1648H398.987L403.802 73.9091H410.521L402.197 103H396.203L390.663 83.9801H390.436L384.91 103H378.916ZM416.697 103.412C415.305 103.412 414.065 103.17 412.976 102.688C411.887 102.195 411.025 101.471 410.39 100.514C409.765 99.5483 409.453 98.3456 409.453 96.9062C409.453 95.6941 409.675 94.6761 410.12 93.8523C410.566 93.0284 411.172 92.3655 411.939 91.8636C412.706 91.3617 413.577 90.983 414.552 90.7273C415.537 90.4716 416.569 90.2917 417.649 90.1875C418.918 90.0549 419.941 89.9318 420.717 89.8182C421.494 89.6951 422.057 89.5152 422.407 89.2784C422.758 89.0417 422.933 88.6913 422.933 88.2273V88.142C422.933 87.2424 422.649 86.5464 422.081 86.054C421.522 85.5616 420.726 85.3153 419.694 85.3153C418.605 85.3153 417.739 85.5568 417.095 86.0398C416.451 86.5133 416.025 87.1098 415.816 87.8295L410.22 87.375C410.504 86.0492 411.063 84.9034 411.896 83.9375C412.729 82.9621 413.804 82.214 415.12 81.6932C416.446 81.1629 417.98 80.8977 419.723 80.8977C420.935 80.8977 422.095 81.0398 423.203 81.3239C424.32 81.608 425.31 82.0483 426.172 82.6449C427.043 83.2415 427.729 84.0085 428.231 84.946C428.733 85.8741 428.984 86.9867 428.984 88.2841V103H423.245V99.9744H423.075C422.725 100.656 422.256 101.258 421.669 101.778C421.082 102.29 420.376 102.692 419.552 102.986C418.728 103.27 417.777 103.412 416.697 103.412ZM418.43 99.2358C419.32 99.2358 420.106 99.0606 420.788 98.7102C421.47 98.3504 422.005 97.8674 422.393 97.2614C422.781 96.6553 422.976 95.9687 422.976 95.2017V92.8864C422.786 93.0095 422.526 93.1231 422.194 93.2273C421.872 93.322 421.508 93.4119 421.101 93.4972C420.693 93.5729 420.286 93.6439 419.879 93.7102C419.472 93.767 419.102 93.8191 418.771 93.8665C418.061 93.9706 417.441 94.1364 416.91 94.3636C416.38 94.5909 415.968 94.8987 415.674 95.2869C415.381 95.6657 415.234 96.1392 415.234 96.7074C415.234 97.5312 415.532 98.161 416.129 98.5966C416.735 99.0227 417.502 99.2358 418.43 99.2358ZM435.753 111.182C434.986 111.182 434.266 111.12 433.594 110.997C432.931 110.884 432.382 110.737 431.946 110.557L433.31 106.04C434.02 106.258 434.659 106.376 435.228 106.395C435.805 106.414 436.302 106.281 436.719 105.997C437.145 105.713 437.491 105.23 437.756 104.548L438.111 103.625L430.284 81.1818H436.648L441.165 97.2045H441.392L445.952 81.1818H452.358L443.878 105.358C443.471 106.532 442.917 107.555 442.216 108.426C441.525 109.307 440.649 109.984 439.588 110.457C438.528 110.94 437.249 111.182 435.753 111.182ZM466.308 81.1818V85.7273H452.842V81.1818H466.308ZM455.924 103V79.6051C455.924 78.0237 456.232 76.7121 456.848 75.6705C457.473 74.6288 458.325 73.8475 459.404 73.3267C460.484 72.8059 461.71 72.5455 463.083 72.5455C464.011 72.5455 464.859 72.6165 465.626 72.7585C466.403 72.9006 466.98 73.0284 467.359 73.142L466.279 77.6875C466.043 77.6117 465.749 77.5407 465.399 77.4744C465.058 77.4081 464.708 77.375 464.348 77.375C463.458 77.375 462.837 77.5833 462.487 78C462.136 78.4072 461.961 78.9801 461.961 79.7188V103H455.924ZM469.125 103V81.1818H475.176V103H469.125ZM472.164 78.3693C471.265 78.3693 470.493 78.071 469.849 77.4744C469.215 76.8684 468.897 76.1439 468.897 75.3011C468.897 74.4678 469.215 73.7528 469.849 73.1562C470.493 72.5502 471.265 72.2472 472.164 72.2472C473.064 72.2472 473.831 72.5502 474.466 73.1562C475.109 73.7528 475.431 74.4678 475.431 75.3011C475.431 76.1439 475.109 76.8684 474.466 77.4744C473.831 78.071 473.064 78.3693 472.164 78.3693ZM485.194 90.3864V103H479.143V81.1818H484.91V85.0312H485.166C485.649 83.7623 486.458 82.7585 487.595 82.0199C488.731 81.2718 490.109 80.8977 491.728 80.8977C493.243 80.8977 494.564 81.2292 495.691 81.892C496.818 82.5549 497.694 83.5019 498.319 84.733C498.944 85.9545 499.257 87.4129 499.257 89.108V103H493.206V90.1875C493.215 88.8523 492.874 87.8106 492.183 87.0625C491.492 86.3049 490.54 85.9261 489.328 85.9261C488.513 85.9261 487.794 86.1013 487.169 86.4517C486.553 86.8021 486.07 87.3134 485.72 87.9858C485.379 88.6487 485.204 89.4489 485.194 90.3864ZM511.186 103.355C509.528 103.355 508.027 102.929 506.683 102.077C505.348 101.215 504.287 99.9508 503.501 98.2841C502.724 96.608 502.336 94.553 502.336 92.1193C502.336 89.6193 502.739 87.5407 503.544 85.8835C504.349 84.2169 505.419 82.9716 506.754 82.1477C508.099 81.3144 509.571 80.8977 511.171 80.8977C512.393 80.8977 513.411 81.1061 514.225 81.5227C515.049 81.9299 515.712 82.4413 516.214 83.0568C516.725 83.6629 517.114 84.2595 517.379 84.8466H517.563V73.9091H523.6V103H517.635V99.5057H517.379C517.095 100.112 516.692 100.713 516.171 101.31C515.66 101.897 514.992 102.384 514.169 102.773C513.354 103.161 512.36 103.355 511.186 103.355ZM513.103 98.5398C514.079 98.5398 514.902 98.2746 515.575 97.7443C516.257 97.2045 516.777 96.4517 517.137 95.4858C517.507 94.5199 517.691 93.3883 517.691 92.0909C517.691 90.7936 517.511 89.6667 517.152 88.7102C516.792 87.7538 516.271 87.0152 515.589 86.4943C514.907 85.9735 514.079 85.7131 513.103 85.7131C512.109 85.7131 511.271 85.983 510.589 86.5227C509.907 87.0625 509.391 87.8106 509.041 88.767C508.69 89.7235 508.515 90.8314 508.515 92.0909C508.515 93.3598 508.69 94.482 509.041 95.4574C509.401 96.4233 509.917 97.1809 510.589 97.7301C511.271 98.2699 512.109 98.5398 513.103 98.5398Z" fill="black" fill-opacity="0.8"/>
<rect y="400" width="352" height="176" rx="6" fill="white"/>
<path d="M108.678 473V443.909H114.828V467.929H127.3V473H108.678ZM136.601 473.412C135.209 473.412 133.968 473.17 132.879 472.688C131.79 472.195 130.929 471.471 130.294 470.514C129.669 469.548 129.357 468.346 129.357 466.906C129.357 465.694 129.579 464.676 130.024 463.852C130.469 463.028 131.075 462.366 131.842 461.864C132.609 461.362 133.481 460.983 134.456 460.727C135.441 460.472 136.473 460.292 137.553 460.188C138.822 460.055 139.844 459.932 140.621 459.818C141.397 459.695 141.961 459.515 142.311 459.278C142.662 459.042 142.837 458.691 142.837 458.227V458.142C142.837 457.242 142.553 456.546 141.984 456.054C141.426 455.562 140.63 455.315 139.598 455.315C138.509 455.315 137.643 455.557 136.999 456.04C136.355 456.513 135.929 457.11 135.72 457.83L130.124 457.375C130.408 456.049 130.966 454.903 131.8 453.938C132.633 452.962 133.708 452.214 135.024 451.693C136.35 451.163 137.884 450.898 139.626 450.898C140.839 450.898 141.999 451.04 143.107 451.324C144.224 451.608 145.214 452.048 146.075 452.645C146.947 453.241 147.633 454.009 148.135 454.946C148.637 455.874 148.888 456.987 148.888 458.284V473H143.149V469.974H142.979C142.628 470.656 142.16 471.258 141.572 471.778C140.985 472.29 140.28 472.692 139.456 472.986C138.632 473.27 137.68 473.412 136.601 473.412ZM138.334 469.236C139.224 469.236 140.01 469.061 140.692 468.71C141.374 468.35 141.909 467.867 142.297 467.261C142.685 466.655 142.879 465.969 142.879 465.202V462.886C142.69 463.009 142.429 463.123 142.098 463.227C141.776 463.322 141.412 463.412 141.004 463.497C140.597 463.573 140.19 463.644 139.783 463.71C139.376 463.767 139.006 463.819 138.675 463.866C137.965 463.971 137.344 464.136 136.814 464.364C136.284 464.591 135.872 464.899 135.578 465.287C135.285 465.666 135.138 466.139 135.138 466.707C135.138 467.531 135.436 468.161 136.033 468.597C136.639 469.023 137.406 469.236 138.334 469.236ZM166.694 463.71V451.182H172.745V473H166.935V469.037H166.708C166.216 470.315 165.397 471.343 164.251 472.119C163.114 472.896 161.727 473.284 160.089 473.284C158.63 473.284 157.347 472.953 156.239 472.29C155.131 471.627 154.265 470.685 153.64 469.463C153.024 468.241 152.712 466.778 152.702 465.074V451.182H158.754V463.994C158.763 465.282 159.109 466.3 159.79 467.048C160.472 467.796 161.386 468.17 162.532 468.17C163.261 468.17 163.943 468.005 164.577 467.673C165.212 467.332 165.723 466.83 166.112 466.168C166.509 465.505 166.703 464.686 166.694 463.71ZM182.756 460.386V473H176.705V451.182H182.472V455.031H182.728C183.211 453.762 184.021 452.759 185.157 452.02C186.293 451.272 187.671 450.898 189.29 450.898C190.806 450.898 192.127 451.229 193.254 451.892C194.38 452.555 195.256 453.502 195.881 454.733C196.506 455.955 196.819 457.413 196.819 459.108V473H190.768V460.188C190.777 458.852 190.436 457.811 189.745 457.062C189.054 456.305 188.102 455.926 186.89 455.926C186.076 455.926 185.356 456.101 184.731 456.452C184.115 456.802 183.632 457.313 183.282 457.986C182.941 458.649 182.766 459.449 182.756 460.386ZM210.566 473.426C208.331 473.426 206.409 472.953 204.799 472.006C203.199 471.049 201.968 469.723 201.106 468.028C200.254 466.333 199.827 464.383 199.827 462.176C199.827 459.941 200.258 457.981 201.12 456.295C201.991 454.6 203.227 453.279 204.827 452.332C206.428 451.376 208.331 450.898 210.538 450.898C212.441 450.898 214.108 451.243 215.538 451.935C216.968 452.626 218.099 453.597 218.932 454.847C219.766 456.097 220.225 457.564 220.31 459.25H214.6C214.439 458.161 214.013 457.285 213.322 456.622C212.64 455.95 211.745 455.614 210.637 455.614C209.7 455.614 208.88 455.869 208.18 456.381C207.488 456.883 206.949 457.616 206.56 458.582C206.172 459.548 205.978 460.718 205.978 462.091C205.978 463.483 206.167 464.667 206.546 465.642C206.934 466.617 207.479 467.361 208.18 467.872C208.88 468.384 209.7 468.639 210.637 468.639C211.328 468.639 211.949 468.497 212.498 468.213C213.057 467.929 213.516 467.517 213.876 466.977C214.245 466.428 214.486 465.77 214.6 465.003H220.31C220.216 466.67 219.761 468.137 218.947 469.406C218.142 470.666 217.029 471.651 215.609 472.361C214.188 473.071 212.507 473.426 210.566 473.426ZM229.356 460.386V473H223.305V443.909H229.185V455.031H229.441C229.933 453.743 230.729 452.735 231.827 452.006C232.926 451.267 234.304 450.898 235.961 450.898C237.476 450.898 238.797 451.229 239.924 451.892C241.06 452.545 241.941 453.488 242.566 454.719C243.2 455.94 243.513 457.403 243.503 459.108V473H237.452V460.188C237.462 458.843 237.121 457.796 236.43 457.048C235.748 456.3 234.791 455.926 233.56 455.926C232.736 455.926 232.007 456.101 231.373 456.452C230.748 456.802 230.255 457.313 229.896 457.986C229.545 458.649 229.365 459.449 229.356 460.386ZM82.1024 514.094H75.8808C75.7672 513.289 75.5352 512.574 75.1848 511.949C74.8344 511.314 74.3846 510.775 73.8354 510.33C73.2861 509.884 72.6517 509.544 71.932 509.307C71.2217 509.07 70.45 508.952 69.6166 508.952C68.1109 508.952 66.7994 509.326 65.682 510.074C64.5645 510.812 63.6981 511.892 63.0825 513.312C62.467 514.723 62.1592 516.437 62.1592 518.455C62.1592 520.528 62.467 522.271 63.0825 523.682C63.7075 525.093 64.5788 526.158 65.6962 526.878C66.8136 527.598 68.1062 527.957 69.574 527.957C70.3979 527.957 71.1602 527.848 71.8609 527.631C72.5712 527.413 73.2009 527.096 73.7502 526.679C74.2994 526.253 74.7539 525.737 75.1138 525.131C75.4831 524.525 75.7388 523.833 75.8808 523.057L82.1024 523.085C81.9414 524.42 81.539 525.708 80.895 526.949C80.2606 528.18 79.4036 529.283 78.324 530.259C77.2539 531.224 75.9755 531.991 74.4888 532.56C73.0115 533.118 71.3401 533.398 69.4746 533.398C66.8799 533.398 64.5598 532.811 62.5144 531.636C60.4784 530.462 58.8685 528.762 57.6848 526.537C56.5106 524.312 55.9234 521.617 55.9234 518.455C55.9234 515.282 56.52 512.583 57.7132 510.358C58.9064 508.133 60.5257 506.437 62.5712 505.273C64.6166 504.098 66.9178 503.511 69.4746 503.511C71.1602 503.511 72.7227 503.748 74.1621 504.222C75.6109 504.695 76.8941 505.386 78.0115 506.295C79.1289 507.195 80.038 508.298 80.7388 509.605C81.449 510.912 81.9036 512.408 82.1024 514.094ZM95.3773 533.426C93.1708 533.426 91.2627 532.957 89.6528 532.02C88.0524 531.073 86.8167 529.757 85.9454 528.071C85.0742 526.376 84.6386 524.411 84.6386 522.176C84.6386 519.922 85.0742 517.953 85.9454 516.267C86.8167 514.572 88.0524 513.256 89.6528 512.318C91.2627 511.371 93.1708 510.898 95.3773 510.898C97.5837 510.898 99.4871 511.371 101.087 512.318C102.697 513.256 103.938 514.572 104.809 516.267C105.68 517.953 106.116 519.922 106.116 522.176C106.116 524.411 105.68 526.376 104.809 528.071C103.938 529.757 102.697 531.073 101.087 532.02C99.4871 532.957 97.5837 533.426 95.3773 533.426ZM95.4057 528.739C96.4095 528.739 97.2475 528.455 97.9199 527.886C98.5922 527.309 99.0988 526.523 99.4398 525.528C99.7901 524.534 99.9653 523.402 99.9653 522.134C99.9653 520.865 99.7901 519.733 99.4398 518.739C99.0988 517.744 98.5922 516.958 97.9199 516.381C97.2475 515.803 96.4095 515.514 95.4057 515.514C94.3924 515.514 93.5401 515.803 92.8488 516.381C92.167 516.958 91.6509 517.744 91.3006 518.739C90.9596 519.733 90.7892 520.865 90.7892 522.134C90.7892 523.402 90.9596 524.534 91.3006 525.528C91.6509 526.523 92.167 527.309 92.8488 527.886C93.5401 528.455 94.3924 528.739 95.4057 528.739ZM122.764 518.653V523.455H109.497V518.653H122.764ZM136.899 533.426C134.692 533.426 132.784 532.957 131.174 532.02C129.574 531.073 128.338 529.757 127.467 528.071C126.595 526.376 126.16 524.411 126.16 522.176C126.16 519.922 126.595 517.953 127.467 516.267C128.338 514.572 129.574 513.256 131.174 512.318C132.784 511.371 134.692 510.898 136.899 510.898C139.105 510.898 141.008 511.371 142.609 512.318C144.219 513.256 145.459 514.572 146.33 516.267C147.202 517.953 147.637 519.922 147.637 522.176C147.637 524.411 147.202 526.376 146.33 528.071C145.459 529.757 144.219 531.073 142.609 532.02C141.008 532.957 139.105 533.426 136.899 533.426ZM136.927 528.739C137.931 528.739 138.769 528.455 139.441 527.886C140.113 527.309 140.62 526.523 140.961 525.528C141.311 524.534 141.487 523.402 141.487 522.134C141.487 520.865 141.311 519.733 140.961 518.739C140.62 517.744 140.113 516.958 139.441 516.381C138.769 515.803 137.931 515.514 136.927 515.514C135.914 515.514 135.061 515.803 134.37 516.381C133.688 516.958 133.172 517.744 132.822 518.739C132.481 519.733 132.31 520.865 132.31 522.134C132.31 523.402 132.481 524.534 132.822 525.528C133.172 526.523 133.688 527.309 134.37 527.886C135.061 528.455 135.914 528.739 136.927 528.739ZM150.692 533V511.182H156.558V514.989H156.786C157.183 513.634 157.851 512.612 158.788 511.92C159.726 511.22 160.805 510.869 162.027 510.869C162.33 510.869 162.657 510.888 163.007 510.926C163.358 510.964 163.665 511.016 163.93 511.082V516.452C163.646 516.366 163.253 516.291 162.751 516.224C162.25 516.158 161.79 516.125 161.374 516.125C160.483 516.125 159.688 516.319 158.987 516.707C158.296 517.086 157.747 517.616 157.34 518.298C156.942 518.98 156.743 519.766 156.743 520.656V533H150.692ZM173.203 533.355C171.546 533.355 170.045 532.929 168.7 532.077C167.365 531.215 166.304 529.951 165.518 528.284C164.742 526.608 164.354 524.553 164.354 522.119C164.354 519.619 164.756 517.541 165.561 515.884C166.366 514.217 167.436 512.972 168.771 512.148C170.116 511.314 171.589 510.898 173.189 510.898C174.411 510.898 175.429 511.106 176.243 511.523C177.067 511.93 177.73 512.441 178.232 513.057C178.743 513.663 179.131 514.259 179.396 514.847H179.581V503.909H185.618V533H179.652V529.506H179.396C179.112 530.112 178.71 530.713 178.189 531.31C177.678 531.897 177.01 532.384 176.186 532.773C175.372 533.161 174.377 533.355 173.203 533.355ZM175.121 528.54C176.096 528.54 176.92 528.275 177.592 527.744C178.274 527.205 178.795 526.452 179.155 525.486C179.524 524.52 179.709 523.388 179.709 522.091C179.709 520.794 179.529 519.667 179.169 518.71C178.809 517.754 178.288 517.015 177.607 516.494C176.925 515.973 176.096 515.713 175.121 515.713C174.126 515.713 173.288 515.983 172.607 516.523C171.925 517.062 171.409 517.811 171.058 518.767C170.708 519.723 170.533 520.831 170.533 522.091C170.533 523.36 170.708 524.482 171.058 525.457C171.418 526.423 171.934 527.181 172.607 527.73C173.288 528.27 174.126 528.54 175.121 528.54ZM189.713 533V511.182H195.764V533H189.713ZM192.753 508.369C191.853 508.369 191.081 508.071 190.437 507.474C189.803 506.868 189.486 506.144 189.486 505.301C189.486 504.468 189.803 503.753 190.437 503.156C191.081 502.55 191.853 502.247 192.753 502.247C193.652 502.247 194.419 502.55 195.054 503.156C195.698 503.753 196.02 504.468 196.02 505.301C196.02 506.144 195.698 506.868 195.054 507.474C194.419 508.071 193.652 508.369 192.753 508.369ZM205.783 520.386V533H199.731V511.182H205.499V515.031H205.754C206.237 513.762 207.047 512.759 208.183 512.02C209.32 511.272 210.697 510.898 212.317 510.898C213.832 510.898 215.153 511.229 216.28 511.892C217.407 512.555 218.283 513.502 218.908 514.733C219.533 515.955 219.845 517.413 219.845 519.108V533H213.794V520.188C213.803 518.852 213.463 517.811 212.771 517.062C212.08 516.305 211.128 515.926 209.916 515.926C209.102 515.926 208.382 516.101 207.757 516.452C207.142 516.802 206.659 517.313 206.308 517.986C205.967 518.649 205.792 519.449 205.783 520.386ZM229.956 533.412C228.564 533.412 227.323 533.17 226.234 532.688C225.145 532.195 224.284 531.471 223.649 530.514C223.024 529.548 222.712 528.346 222.712 526.906C222.712 525.694 222.934 524.676 223.379 523.852C223.824 523.028 224.43 522.366 225.197 521.864C225.964 521.362 226.836 520.983 227.811 520.727C228.796 520.472 229.828 520.292 230.908 520.188C232.177 520.055 233.199 519.932 233.976 519.818C234.752 519.695 235.316 519.515 235.666 519.278C236.017 519.042 236.192 518.691 236.192 518.227V518.142C236.192 517.242 235.908 516.546 235.339 516.054C234.781 515.562 233.985 515.315 232.953 515.315C231.864 515.315 230.998 515.557 230.354 516.04C229.71 516.513 229.284 517.11 229.075 517.83L223.479 517.375C223.763 516.049 224.321 514.903 225.155 513.938C225.988 512.962 227.063 512.214 228.379 511.693C229.705 511.163 231.239 510.898 232.981 510.898C234.194 510.898 235.354 511.04 236.462 511.324C237.579 511.608 238.569 512.048 239.43 512.645C240.302 513.241 240.988 514.009 241.49 514.946C241.992 515.874 242.243 516.987 242.243 518.284V533H236.504V529.974H236.334C235.983 530.656 235.515 531.258 234.927 531.778C234.34 532.29 233.635 532.692 232.811 532.986C231.987 533.27 231.035 533.412 229.956 533.412ZM231.689 529.236C232.579 529.236 233.365 529.061 234.047 528.71C234.729 528.35 235.264 527.867 235.652 527.261C236.04 526.655 236.234 525.969 236.234 525.202V522.886C236.045 523.009 235.784 523.123 235.453 523.227C235.131 523.322 234.767 523.412 234.359 523.497C233.952 523.573 233.545 523.644 233.138 523.71C232.731 523.767 232.361 523.819 232.03 523.866C231.32 523.971 230.699 524.136 230.169 524.364C229.639 524.591 229.227 524.899 228.933 525.287C228.64 525.666 228.493 526.139 228.493 526.707C228.493 527.531 228.791 528.161 229.388 528.597C229.994 529.023 230.761 529.236 231.689 529.236ZM257.663 511.182V515.727H244.523V511.182H257.663ZM247.506 505.955H253.557V526.295C253.557 526.854 253.643 527.29 253.813 527.602C253.984 527.905 254.22 528.118 254.523 528.241C254.836 528.365 255.196 528.426 255.603 528.426C255.887 528.426 256.171 528.402 256.455 528.355C256.739 528.298 256.957 528.256 257.109 528.227L258.06 532.73C257.757 532.825 257.331 532.934 256.782 533.057C256.233 533.189 255.565 533.27 254.779 533.298C253.321 533.355 252.042 533.161 250.944 532.716C249.855 532.271 249.007 531.58 248.401 530.642C247.795 529.705 247.497 528.521 247.506 527.091V505.955ZM270.348 533.426C268.141 533.426 266.233 532.957 264.623 532.02C263.023 531.073 261.787 529.757 260.916 528.071C260.045 526.376 259.609 524.411 259.609 522.176C259.609 519.922 260.045 517.953 260.916 516.267C261.787 514.572 263.023 513.256 264.623 512.318C266.233 511.371 268.141 510.898 270.348 510.898C272.554 510.898 274.458 511.371 276.058 512.318C277.668 513.256 278.908 514.572 279.78 516.267C280.651 517.953 281.087 519.922 281.087 522.176C281.087 524.411 280.651 526.376 279.78 528.071C278.908 529.757 277.668 531.073 276.058 532.02C274.458 532.957 272.554 533.426 270.348 533.426ZM270.376 528.739C271.38 528.739 272.218 528.455 272.89 527.886C273.563 527.309 274.069 526.523 274.41 525.528C274.761 524.534 274.936 523.402 274.936 522.134C274.936 520.865 274.761 519.733 274.41 518.739C274.069 517.744 273.563 516.958 272.89 516.381C272.218 515.803 271.38 515.514 270.376 515.514C269.363 515.514 268.511 515.803 267.819 516.381C267.138 516.958 266.622 517.744 266.271 518.739C265.93 519.733 265.76 520.865 265.76 522.134C265.76 523.402 265.93 524.534 266.271 525.528C266.622 526.523 267.138 527.309 267.819 527.886C268.511 528.455 269.363 528.739 270.376 528.739ZM284.141 533V511.182H290.008V514.989H290.235C290.633 513.634 291.3 512.612 292.238 511.92C293.175 511.22 294.255 510.869 295.476 510.869C295.779 510.869 296.106 510.888 296.457 510.926C296.807 510.964 297.115 511.016 297.38 511.082V516.452C297.096 516.366 296.703 516.291 296.201 516.224C295.699 516.158 295.24 516.125 294.823 516.125C293.933 516.125 293.137 516.319 292.437 516.707C291.745 517.086 291.196 517.616 290.789 518.298C290.391 518.98 290.192 519.766 290.192 520.656V533H284.141Z" fill="black" fill-opacity="0.8"/>
<path d="M450 184C450 182.895 449.105 182 448 182C446.895 182 446 182.895 446 184H448H450ZM174.586 392.914C175.367 393.695 176.633 393.695 177.414 392.914L190.142 380.186C190.923 379.405 190.923 378.139 190.142 377.358C189.361 376.577 188.095 376.577 187.314 377.358L176 388.672L164.686 377.358C163.905 376.577 162.639 376.577 161.858 377.358C161.077 378.139 161.077 379.405 161.858 380.186L174.586 392.914ZM448 184H446V264H448H450V184H448ZM424 288V286H200V288V290H424V288ZM176 312H174V391.5H176H178V312H176ZM200 288V286C185.641 286 174 297.641 174 312H176H178C178 299.85 187.85 290 200 290V288ZM448 264H446C446 276.15 436.15 286 424 286V288V290C438.359 290 450 278.359 450 264H448Z" fill="#757575"/>
<rect x="544" y="400" width="352" height="176" rx="6" fill="white"/>
<path d="M593.433 443.909H601.019L609.03 463.455H609.371L617.382 443.909H624.967V473H619.002V454.065H618.76L611.232 472.858H607.169L599.641 453.994H599.399V473H593.433V443.909ZM635.263 473.412C633.871 473.412 632.63 473.17 631.541 472.688C630.452 472.195 629.591 471.471 628.956 470.514C628.331 469.548 628.019 468.346 628.019 466.906C628.019 465.694 628.241 464.676 628.686 463.852C629.131 463.028 629.737 462.366 630.504 461.864C631.271 461.362 632.143 460.983 633.118 460.727C634.103 460.472 635.135 460.292 636.215 460.188C637.484 460.055 638.506 459.932 639.283 459.818C640.059 459.695 640.623 459.515 640.973 459.278C641.324 459.042 641.499 458.691 641.499 458.227V458.142C641.499 457.242 641.215 456.546 640.646 456.054C640.088 455.562 639.292 455.315 638.26 455.315C637.171 455.315 636.305 455.557 635.661 456.04C635.017 456.513 634.591 457.11 634.382 457.83L628.786 457.375C629.07 456.049 629.628 454.903 630.462 453.938C631.295 452.962 632.37 452.214 633.686 451.693C635.012 451.163 636.546 450.898 638.288 450.898C639.501 450.898 640.661 451.04 641.769 451.324C642.886 451.608 643.876 452.048 644.737 452.645C645.609 453.241 646.295 454.009 646.797 454.946C647.299 455.874 647.55 456.987 647.55 458.284V473H641.811V469.974H641.641C641.29 470.656 640.822 471.258 640.235 471.778C639.647 472.29 638.942 472.692 638.118 472.986C637.294 473.27 636.342 473.412 635.263 473.412ZM636.996 469.236C637.886 469.236 638.672 469.061 639.354 468.71C640.036 468.35 640.571 467.867 640.959 467.261C641.347 466.655 641.541 465.969 641.541 465.202V462.886C641.352 463.009 641.092 463.123 640.76 463.227C640.438 463.322 640.074 463.412 639.666 463.497C639.259 463.573 638.852 463.644 638.445 463.71C638.038 463.767 637.668 463.819 637.337 463.866C636.627 463.971 636.006 464.136 635.476 464.364C634.946 464.591 634.534 464.899 634.24 465.287C633.947 465.666 633.8 466.139 633.8 466.707C633.8 467.531 634.098 468.161 634.695 468.597C635.301 469.023 636.068 469.236 636.996 469.236ZM651.364 473V451.182H657.416V473H651.364ZM654.404 448.369C653.505 448.369 652.733 448.071 652.089 447.474C651.454 446.868 651.137 446.144 651.137 445.301C651.137 444.468 651.454 443.753 652.089 443.156C652.733 442.55 653.505 442.247 654.404 442.247C655.304 442.247 656.071 442.55 656.705 443.156C657.349 443.753 657.671 444.468 657.671 445.301C657.671 446.144 657.349 446.868 656.705 447.474C656.071 448.071 655.304 448.369 654.404 448.369ZM667.434 460.386V473H661.383V451.182H667.15V455.031H667.406C667.889 453.762 668.698 452.759 669.835 452.02C670.971 451.272 672.349 450.898 673.968 450.898C675.483 450.898 676.804 451.229 677.931 451.892C679.058 452.555 679.934 453.502 680.559 454.733C681.184 455.955 681.497 457.413 681.497 459.108V473H675.445V460.188C675.455 458.852 675.114 457.811 674.423 457.062C673.731 456.305 672.78 455.926 671.568 455.926C670.753 455.926 670.033 456.101 669.408 456.452C668.793 456.802 668.31 457.313 667.96 457.986C667.619 458.649 667.444 459.449 667.434 460.386ZM705.496 451.182V455.727H692.031V451.182H705.496ZM695.113 473V449.605C695.113 448.024 695.421 446.712 696.036 445.67C696.661 444.629 697.514 443.848 698.593 443.327C699.673 442.806 700.899 442.545 702.272 442.545C703.2 442.545 704.048 442.616 704.815 442.759C705.591 442.901 706.169 443.028 706.548 443.142L705.468 447.688C705.231 447.612 704.938 447.541 704.587 447.474C704.246 447.408 703.896 447.375 703.536 447.375C702.646 447.375 702.026 447.583 701.675 448C701.325 448.407 701.15 448.98 701.15 449.719V473H695.113ZM717.475 473.426C715.231 473.426 713.299 472.972 711.68 472.062C710.07 471.144 708.829 469.847 707.958 468.17C707.087 466.485 706.651 464.491 706.651 462.19C706.651 459.946 707.087 457.976 707.958 456.281C708.829 454.586 710.056 453.265 711.637 452.318C713.228 451.371 715.094 450.898 717.234 450.898C718.673 450.898 720.013 451.13 721.254 451.594C722.504 452.048 723.593 452.735 724.521 453.653C725.458 454.572 726.187 455.727 726.708 457.119C727.229 458.502 727.489 460.121 727.489 461.977V463.639H709.066V459.889H721.793C721.793 459.018 721.604 458.246 721.225 457.574C720.846 456.902 720.321 456.376 719.648 455.997C718.986 455.609 718.214 455.415 717.333 455.415C716.415 455.415 715.6 455.628 714.89 456.054C714.189 456.471 713.64 457.034 713.242 457.744C712.844 458.445 712.641 459.226 712.631 460.088V463.653C712.631 464.733 712.83 465.666 713.228 466.452C713.635 467.238 714.208 467.844 714.947 468.27C715.685 468.696 716.561 468.909 717.575 468.909C718.247 468.909 718.862 468.814 719.421 468.625C719.98 468.436 720.458 468.152 720.856 467.773C721.254 467.394 721.557 466.93 721.765 466.381L727.362 466.75C727.077 468.095 726.495 469.269 725.614 470.273C724.743 471.267 723.616 472.044 722.234 472.602C720.861 473.152 719.274 473.426 717.475 473.426ZM736.78 473.412C735.388 473.412 734.147 473.17 733.058 472.688C731.969 472.195 731.107 471.471 730.473 470.514C729.848 469.548 729.535 468.346 729.535 466.906C729.535 465.694 729.758 464.676 730.203 463.852C730.648 463.028 731.254 462.366 732.021 461.864C732.788 461.362 733.66 460.983 734.635 460.727C735.62 460.472 736.652 460.292 737.732 460.188C739 460.055 740.023 459.932 740.8 459.818C741.576 459.695 742.14 459.515 742.49 459.278C742.84 459.042 743.016 458.691 743.016 458.227V458.142C743.016 457.242 742.732 456.546 742.163 456.054C741.605 455.562 740.809 455.315 739.777 455.315C738.688 455.315 737.821 455.557 737.178 456.04C736.534 456.513 736.107 457.11 735.899 457.83L730.303 457.375C730.587 456.049 731.145 454.903 731.979 453.938C732.812 452.962 733.887 452.214 735.203 451.693C736.529 451.163 738.063 450.898 739.805 450.898C741.017 450.898 742.178 451.04 743.285 451.324C744.403 451.608 745.392 452.048 746.254 452.645C747.125 453.241 747.812 454.009 748.314 454.946C748.816 455.874 749.067 456.987 749.067 458.284V473H743.328V469.974H743.158C742.807 470.656 742.339 471.258 741.751 471.778C741.164 472.29 740.459 472.692 739.635 472.986C738.811 473.27 737.859 473.412 736.78 473.412ZM738.513 469.236C739.403 469.236 740.189 469.061 740.871 468.71C741.553 468.35 742.088 467.867 742.476 467.261C742.864 466.655 743.058 465.969 743.058 465.202V462.886C742.869 463.009 742.608 463.123 742.277 463.227C741.955 463.322 741.59 463.412 741.183 463.497C740.776 463.573 740.369 463.644 739.962 463.71C739.554 463.767 739.185 463.819 738.854 463.866C738.143 463.971 737.523 464.136 736.993 464.364C736.463 464.591 736.051 464.899 735.757 465.287C735.464 465.666 735.317 466.139 735.317 466.707C735.317 467.531 735.615 468.161 736.212 468.597C736.818 469.023 737.585 469.236 738.513 469.236ZM764.486 451.182V455.727H751.347V451.182H764.486ZM754.33 445.955H760.381V466.295C760.381 466.854 760.467 467.29 760.637 467.602C760.807 467.905 761.044 468.118 761.347 468.241C761.66 468.365 762.02 468.426 762.427 468.426C762.711 468.426 762.995 468.402 763.279 468.355C763.563 468.298 763.781 468.256 763.932 468.227L764.884 472.73C764.581 472.825 764.155 472.934 763.606 473.057C763.057 473.189 762.389 473.27 761.603 473.298C760.145 473.355 758.866 473.161 757.768 472.716C756.679 472.271 755.831 471.58 755.225 470.642C754.619 469.705 754.321 468.521 754.33 467.091V445.955ZM781.54 463.71V451.182H787.591V473H781.781V469.037H781.554C781.061 470.315 780.242 471.343 779.097 472.119C777.96 472.896 776.573 473.284 774.935 473.284C773.476 473.284 772.193 472.953 771.085 472.29C769.977 471.627 769.111 470.685 768.486 469.463C767.87 468.241 767.558 466.778 767.548 465.074V451.182H773.599V463.994C773.609 465.282 773.954 466.3 774.636 467.048C775.318 467.796 776.232 468.17 777.378 468.17C778.107 468.17 778.789 468.005 779.423 467.673C780.058 467.332 780.569 466.83 780.957 466.168C781.355 465.505 781.549 464.686 781.54 463.71ZM791.551 473V451.182H797.417V454.989H797.645C798.042 453.634 798.71 452.612 799.648 451.92C800.585 451.22 801.665 450.869 802.886 450.869C803.189 450.869 803.516 450.888 803.866 450.926C804.217 450.964 804.525 451.016 804.79 451.082V456.452C804.506 456.366 804.113 456.291 803.611 456.224C803.109 456.158 802.65 456.125 802.233 456.125C801.343 456.125 800.547 456.319 799.846 456.707C799.155 457.086 798.606 457.616 798.199 458.298C797.801 458.98 797.602 459.766 797.602 460.656V473H791.551ZM815.966 473.426C813.721 473.426 811.79 472.972 810.17 472.062C808.56 471.144 807.32 469.847 806.449 468.17C805.578 466.485 805.142 464.491 805.142 462.19C805.142 459.946 805.578 457.976 806.449 456.281C807.32 454.586 808.546 453.265 810.128 452.318C811.719 451.371 813.584 450.898 815.724 450.898C817.164 450.898 818.504 451.13 819.744 451.594C820.994 452.048 822.083 452.735 823.011 453.653C823.949 454.572 824.678 455.727 825.199 457.119C825.72 458.502 825.98 460.121 825.98 461.977V463.639H807.557V459.889H820.284C820.284 459.018 820.095 458.246 819.716 457.574C819.337 456.902 818.811 456.376 818.139 455.997C817.476 455.609 816.704 455.415 815.824 455.415C814.905 455.415 814.091 455.628 813.381 456.054C812.68 456.471 812.131 457.034 811.733 457.744C811.335 458.445 811.131 459.226 811.122 460.088V463.653C811.122 464.733 811.321 465.666 811.719 466.452C812.126 467.238 812.699 467.844 813.437 468.27C814.176 468.696 815.052 468.909 816.065 468.909C816.738 468.909 817.353 468.814 817.912 468.625C818.471 468.436 818.949 468.152 819.346 467.773C819.744 467.394 820.047 466.93 820.256 466.381L825.852 466.75C825.568 468.095 824.986 469.269 824.105 470.273C823.234 471.267 822.107 472.044 820.724 472.602C819.351 473.152 817.765 473.426 815.966 473.426ZM847.202 457.403L841.662 457.744C841.568 457.271 841.364 456.845 841.052 456.466C840.739 456.078 840.327 455.77 839.816 455.543C839.314 455.306 838.713 455.188 838.012 455.188C837.074 455.188 836.284 455.386 835.64 455.784C834.996 456.172 834.674 456.693 834.674 457.347C834.674 457.867 834.882 458.308 835.299 458.668C835.716 459.027 836.43 459.316 837.444 459.534L841.393 460.33C843.514 460.765 845.095 461.466 846.137 462.432C847.179 463.398 847.699 464.667 847.699 466.239C847.699 467.669 847.278 468.923 846.435 470.003C845.602 471.082 844.456 471.925 842.998 472.531C841.549 473.128 839.877 473.426 837.983 473.426C835.095 473.426 832.794 472.825 831.08 471.622C829.376 470.41 828.376 468.762 828.083 466.679L834.035 466.366C834.215 467.247 834.65 467.92 835.341 468.384C836.033 468.838 836.918 469.065 837.998 469.065C839.058 469.065 839.911 468.862 840.555 468.455C841.208 468.038 841.539 467.503 841.549 466.849C841.539 466.3 841.307 465.85 840.853 465.5C840.398 465.14 839.698 464.866 838.751 464.676L834.972 463.923C832.841 463.497 831.255 462.759 830.214 461.707C829.181 460.656 828.665 459.316 828.665 457.688C828.665 456.286 829.044 455.079 829.802 454.065C830.569 453.052 831.644 452.271 833.026 451.722C834.418 451.172 836.047 450.898 837.912 450.898C840.668 450.898 842.837 451.48 844.418 452.645C846.009 453.81 846.937 455.396 847.202 457.403ZM626.102 514.094H619.881C619.767 513.289 619.535 512.574 619.185 511.949C618.834 511.314 618.385 510.775 617.835 510.33C617.286 509.884 616.652 509.544 615.932 509.307C615.222 509.07 614.45 508.952 613.617 508.952C612.111 508.952 610.799 509.326 609.682 510.074C608.565 510.812 607.698 511.892 607.083 513.312C606.467 514.723 606.159 516.437 606.159 518.455C606.159 520.528 606.467 522.271 607.083 523.682C607.708 525.093 608.579 526.158 609.696 526.878C610.814 527.598 612.106 527.957 613.574 527.957C614.398 527.957 615.16 527.848 615.861 527.631C616.571 527.413 617.201 527.096 617.75 526.679C618.299 526.253 618.754 525.737 619.114 525.131C619.483 524.525 619.739 523.833 619.881 523.057L626.102 523.085C625.941 524.42 625.539 525.708 624.895 526.949C624.261 528.18 623.404 529.283 622.324 530.259C621.254 531.224 619.976 531.991 618.489 532.56C617.012 533.118 615.34 533.398 613.475 533.398C610.88 533.398 608.56 532.811 606.514 531.636C604.478 530.462 602.869 528.762 601.685 526.537C600.511 524.312 599.923 521.617 599.923 518.455C599.923 515.282 600.52 512.583 601.713 510.358C602.906 508.133 604.526 506.437 606.571 505.273C608.617 504.098 610.918 503.511 613.475 503.511C615.16 503.511 616.723 503.748 618.162 504.222C619.611 504.695 620.894 505.386 622.012 506.295C623.129 507.195 624.038 508.298 624.739 509.605C625.449 510.912 625.904 512.408 626.102 514.094ZM639.377 533.426C637.171 533.426 635.263 532.957 633.653 532.02C632.052 531.073 630.817 529.757 629.945 528.071C629.074 526.376 628.639 524.411 628.639 522.176C628.639 519.922 629.074 517.953 629.945 516.267C630.817 514.572 632.052 513.256 633.653 512.318C635.263 511.371 637.171 510.898 639.377 510.898C641.584 510.898 643.487 511.371 645.087 512.318C646.697 513.256 647.938 514.572 648.809 516.267C649.68 517.953 650.116 519.922 650.116 522.176C650.116 524.411 649.68 526.376 648.809 528.071C647.938 529.757 646.697 531.073 645.087 532.02C643.487 532.957 641.584 533.426 639.377 533.426ZM639.406 528.739C640.409 528.739 641.248 528.455 641.92 527.886C642.592 527.309 643.099 526.523 643.44 525.528C643.79 524.534 643.965 523.402 643.965 522.134C643.965 520.865 643.79 519.733 643.44 518.739C643.099 517.744 642.592 516.958 641.92 516.381C641.248 515.803 640.409 515.514 639.406 515.514C638.392 515.514 637.54 515.803 636.849 516.381C636.167 516.958 635.651 517.744 635.301 518.739C634.96 519.733 634.789 520.865 634.789 522.134C634.789 523.402 634.96 524.534 635.301 525.528C635.651 526.523 636.167 527.309 636.849 527.886C637.54 528.455 638.392 528.739 639.406 528.739ZM666.764 518.653V523.455H653.497V518.653H666.764ZM680.899 533.426C678.692 533.426 676.784 532.957 675.174 532.02C673.574 531.073 672.338 529.757 671.467 528.071C670.595 526.376 670.16 524.411 670.16 522.176C670.16 519.922 670.595 517.953 671.467 516.267C672.338 514.572 673.574 513.256 675.174 512.318C676.784 511.371 678.692 510.898 680.899 510.898C683.105 510.898 685.008 511.371 686.609 512.318C688.219 513.256 689.459 514.572 690.33 516.267C691.202 517.953 691.637 519.922 691.637 522.176C691.637 524.411 691.202 526.376 690.33 528.071C689.459 529.757 688.219 531.073 686.609 532.02C685.008 532.957 683.105 533.426 680.899 533.426ZM680.927 528.739C681.931 528.739 682.769 528.455 683.441 527.886C684.113 527.309 684.62 526.523 684.961 525.528C685.311 524.534 685.487 523.402 685.487 522.134C685.487 520.865 685.311 519.733 684.961 518.739C684.62 517.744 684.113 516.958 683.441 516.381C682.769 515.803 681.931 515.514 680.927 515.514C679.914 515.514 679.061 515.803 678.37 516.381C677.688 516.958 677.172 517.744 676.822 518.739C676.481 519.733 676.31 520.865 676.31 522.134C676.31 523.402 676.481 524.534 676.822 525.528C677.172 526.523 677.688 527.309 678.37 527.886C679.061 528.455 679.914 528.739 680.927 528.739ZM694.692 533V511.182H700.558V514.989H700.786C701.183 513.634 701.851 512.612 702.788 511.92C703.726 511.22 704.805 510.869 706.027 510.869C706.33 510.869 706.657 510.888 707.007 510.926C707.358 510.964 707.665 511.016 707.93 511.082V516.452C707.646 516.366 707.253 516.291 706.751 516.224C706.25 516.158 705.79 516.125 705.374 516.125C704.483 516.125 703.688 516.319 702.987 516.707C702.296 517.086 701.747 517.616 701.34 518.298C700.942 518.98 700.743 519.766 700.743 520.656V533H694.692ZM717.203 533.355C715.546 533.355 714.045 532.929 712.7 532.077C711.365 531.215 710.304 529.951 709.518 528.284C708.742 526.608 708.354 524.553 708.354 522.119C708.354 519.619 708.756 517.541 709.561 515.884C710.366 514.217 711.436 512.972 712.771 512.148C714.116 511.314 715.589 510.898 717.189 510.898C718.411 510.898 719.429 511.106 720.243 511.523C721.067 511.93 721.73 512.441 722.232 513.057C722.743 513.663 723.131 514.259 723.396 514.847H723.581V503.909H729.618V533H723.652V529.506H723.396C723.112 530.112 722.71 530.713 722.189 531.31C721.678 531.897 721.01 532.384 720.186 532.773C719.372 533.161 718.377 533.355 717.203 533.355ZM719.121 528.54C720.096 528.54 720.92 528.275 721.592 527.744C722.274 527.205 722.795 526.452 723.155 525.486C723.524 524.52 723.709 523.388 723.709 522.091C723.709 520.794 723.529 519.667 723.169 518.71C722.809 517.754 722.288 517.015 721.607 516.494C720.925 515.973 720.096 515.713 719.121 515.713C718.126 515.713 717.288 515.983 716.607 516.523C715.925 517.062 715.409 517.811 715.058 518.767C714.708 519.723 714.533 520.831 714.533 522.091C714.533 523.36 714.708 524.482 715.058 525.457C715.418 526.423 715.934 527.181 716.607 527.73C717.288 528.27 718.126 528.54 719.121 528.54ZM733.713 533V511.182H739.764V533H733.713ZM736.753 508.369C735.853 508.369 735.081 508.071 734.437 507.474C733.803 506.868 733.486 506.144 733.486 505.301C733.486 504.468 733.803 503.753 734.437 503.156C735.081 502.55 735.853 502.247 736.753 502.247C737.652 502.247 738.419 502.55 739.054 503.156C739.698 503.753 740.02 504.468 740.02 505.301C740.02 506.144 739.698 506.868 739.054 507.474C738.419 508.071 737.652 508.369 736.753 508.369ZM749.783 520.386V533H743.731V511.182H749.499V515.031H749.754C750.237 513.762 751.047 512.759 752.183 512.02C753.32 511.272 754.697 510.898 756.317 510.898C757.832 510.898 759.153 511.229 760.28 511.892C761.407 512.555 762.283 513.502 762.908 514.733C763.533 515.955 763.845 517.413 763.845 519.108V533H757.794V520.188C757.803 518.852 757.463 517.811 756.771 517.062C756.08 516.305 755.128 515.926 753.916 515.926C753.102 515.926 752.382 516.101 751.757 516.452C751.142 516.802 750.659 517.313 750.308 517.986C749.967 518.649 749.792 519.449 749.783 520.386ZM773.956 533.412C772.564 533.412 771.323 533.17 770.234 532.688C769.145 532.195 768.284 531.471 767.649 530.514C767.024 529.548 766.712 528.346 766.712 526.906C766.712 525.694 766.934 524.676 767.379 523.852C767.824 523.028 768.43 522.366 769.197 521.864C769.964 521.362 770.836 520.983 771.811 520.727C772.796 520.472 773.828 520.292 774.908 520.188C776.177 520.055 777.199 519.932 777.976 519.818C778.752 519.695 779.316 519.515 779.666 519.278C780.017 519.042 780.192 518.691 780.192 518.227V518.142C780.192 517.242 779.908 516.546 779.339 516.054C778.781 515.562 777.985 515.315 776.953 515.315C775.864 515.315 774.998 515.557 774.354 516.04C773.71 516.513 773.284 517.11 773.075 517.83L767.479 517.375C767.763 516.049 768.321 514.903 769.155 513.938C769.988 512.962 771.063 512.214 772.379 511.693C773.705 511.163 775.239 510.898 776.981 510.898C778.194 510.898 779.354 511.04 780.462 511.324C781.579 511.608 782.569 512.048 783.43 512.645C784.302 513.241 784.988 514.009 785.49 514.946C785.992 515.874 786.243 516.987 786.243 518.284V533H780.504V529.974H780.334C779.983 530.656 779.515 531.258 778.927 531.778C778.34 532.29 777.635 532.692 776.811 532.986C775.987 533.27 775.035 533.412 773.956 533.412ZM775.689 529.236C776.579 529.236 777.365 529.061 778.047 528.71C778.729 528.35 779.264 527.867 779.652 527.261C780.04 526.655 780.234 525.969 780.234 525.202V522.886C780.045 523.009 779.784 523.123 779.453 523.227C779.131 523.322 778.767 523.412 778.359 523.497C777.952 523.573 777.545 523.644 777.138 523.71C776.731 523.767 776.361 523.819 776.03 523.866C775.32 523.971 774.699 524.136 774.169 524.364C773.639 524.591 773.227 524.899 772.933 525.287C772.64 525.666 772.493 526.139 772.493 526.707C772.493 527.531 772.791 528.161 773.388 528.597C773.994 529.023 774.761 529.236 775.689 529.236ZM801.663 511.182V515.727H788.523V511.182H801.663ZM791.506 505.955H797.557V526.295C797.557 526.854 797.643 527.29 797.813 527.602C797.984 527.905 798.22 528.118 798.523 528.241C798.836 528.365 799.196 528.426 799.603 528.426C799.887 528.426 800.171 528.402 800.455 528.355C800.739 528.298 800.957 528.256 801.109 528.227L802.06 532.73C801.757 532.825 801.331 532.934 800.782 533.057C800.233 533.189 799.565 533.27 798.779 533.298C797.321 533.355 796.042 533.161 794.944 532.716C793.855 532.271 793.007 531.58 792.401 530.642C791.795 529.705 791.497 528.521 791.506 527.091V505.955ZM814.348 533.426C812.141 533.426 810.233 532.957 808.623 532.02C807.023 531.073 805.787 529.757 804.916 528.071C804.045 526.376 803.609 524.411 803.609 522.176C803.609 519.922 804.045 517.953 804.916 516.267C805.787 514.572 807.023 513.256 808.623 512.318C810.233 511.371 812.141 510.898 814.348 510.898C816.554 510.898 818.458 511.371 820.058 512.318C821.668 513.256 822.908 514.572 823.78 516.267C824.651 517.953 825.087 519.922 825.087 522.176C825.087 524.411 824.651 526.376 823.78 528.071C822.908 529.757 821.668 531.073 820.058 532.02C818.458 532.957 816.554 533.426 814.348 533.426ZM814.376 528.739C815.38 528.739 816.218 528.455 816.89 527.886C817.563 527.309 818.069 526.523 818.41 525.528C818.761 524.534 818.936 523.402 818.936 522.134C818.936 520.865 818.761 519.733 818.41 518.739C818.069 517.744 817.563 516.958 816.89 516.381C816.218 515.803 815.38 515.514 814.376 515.514C813.363 515.514 812.511 515.803 811.819 516.381C811.138 516.958 810.622 517.744 810.271 518.739C809.93 519.733 809.76 520.865 809.76 522.134C809.76 523.402 809.93 524.534 810.271 525.528C810.622 526.523 811.138 527.309 811.819 527.886C812.511 528.455 813.363 528.739 814.376 528.739ZM828.141 533V511.182H834.008V514.989H834.235C834.633 513.634 835.3 512.612 836.238 511.92C837.175 511.22 838.255 510.869 839.476 510.869C839.779 510.869 840.106 510.888 840.457 510.926C840.807 510.964 841.115 511.016 841.38 511.082V516.452C841.096 516.366 840.703 516.291 840.201 516.224C839.699 516.158 839.24 516.125 838.823 516.125C837.933 516.125 837.137 516.319 836.437 516.707C835.745 517.086 835.196 517.616 834.789 518.298C834.391 518.98 834.192 519.766 834.192 520.656V533H828.141Z" fill="black" fill-opacity="0.8"/>
<path d="M450 184C450 182.895 449.105 182 448 182C446.895 182 446 182.895 446 184H448H450ZM718.586 392.914C719.367 393.695 720.633 393.695 721.414 392.914L734.142 380.186C734.923 379.405 734.923 378.139 734.142 377.358C733.361 376.577 732.095 376.577 731.314 377.358L720 388.672L708.686 377.358C707.905 376.577 706.639 376.577 705.858 377.358C705.077 378.139 705.077 379.405 705.858 380.186L718.586 392.914ZM448 184H446V264H448H450V184H448ZM472 288V290H696V288V286H472V288ZM720 312H718V391.5H720H722V312H720ZM696 288V290C708.15 290 718 299.85 718 312H720H722C722 297.641 710.359 286 696 286V288ZM448 264H446C446 278.359 457.641 290 472 290V288V286C459.85 286 450 276.15 450 264H448Z" fill="#757575"/>
<rect x="544" y="784" width="352" height="176" rx="6" fill="#1E1E1E" stroke="#1E1E1E" stroke-width="4" stroke-linecap="round"/>
<path d="M627.412 887L619.088 857.909H625.807L630.622 878.122H630.863L636.176 857.909H641.929L647.227 878.165H647.483L652.298 857.909H659.017L650.693 887H644.699L639.159 867.98H638.932L633.406 887H627.412ZM665.193 887.412C663.801 887.412 662.56 887.17 661.471 886.688C660.382 886.195 659.521 885.471 658.886 884.514C658.261 883.548 657.949 882.346 657.949 880.906C657.949 879.694 658.171 878.676 658.616 877.852C659.061 877.028 659.667 876.366 660.434 875.864C661.201 875.362 662.073 874.983 663.048 874.727C664.033 874.472 665.065 874.292 666.145 874.188C667.414 874.055 668.436 873.932 669.213 873.818C669.989 873.695 670.553 873.515 670.903 873.278C671.254 873.042 671.429 872.691 671.429 872.227V872.142C671.429 871.242 671.145 870.546 670.576 870.054C670.018 869.562 669.222 869.315 668.19 869.315C667.101 869.315 666.235 869.557 665.591 870.04C664.947 870.513 664.521 871.11 664.312 871.83L658.716 871.375C659 870.049 659.558 868.903 660.392 867.938C661.225 866.962 662.3 866.214 663.616 865.693C664.942 865.163 666.476 864.898 668.218 864.898C669.431 864.898 670.591 865.04 671.699 865.324C672.816 865.608 673.806 866.048 674.667 866.645C675.539 867.241 676.225 868.009 676.727 868.946C677.229 869.874 677.48 870.987 677.48 872.284V887H671.741V883.974H671.571C671.22 884.656 670.752 885.258 670.165 885.778C669.577 886.29 668.872 886.692 668.048 886.986C667.224 887.27 666.272 887.412 665.193 887.412ZM666.926 883.236C667.816 883.236 668.602 883.061 669.284 882.71C669.966 882.35 670.501 881.867 670.889 881.261C671.277 880.655 671.471 879.969 671.471 879.202V876.886C671.282 877.009 671.022 877.123 670.69 877.227C670.368 877.322 670.004 877.412 669.596 877.497C669.189 877.573 668.782 877.644 668.375 877.71C667.968 877.767 667.598 877.819 667.267 877.866C666.557 877.971 665.936 878.136 665.406 878.364C664.876 878.591 664.464 878.899 664.17 879.287C663.877 879.666 663.73 880.139 663.73 880.707C663.73 881.531 664.028 882.161 664.625 882.597C665.231 883.023 665.998 883.236 666.926 883.236ZM684.249 895.182C683.482 895.182 682.762 895.12 682.09 894.997C681.427 894.884 680.878 894.737 680.442 894.557L681.806 890.04C682.516 890.258 683.155 890.376 683.723 890.395C684.301 890.414 684.798 890.281 685.215 889.997C685.641 889.713 685.987 889.23 686.252 888.548L686.607 887.625L678.78 865.182H685.144L689.661 881.205H689.888L694.448 865.182H700.854L692.374 889.358C691.967 890.532 691.413 891.555 690.712 892.426C690.021 893.307 689.145 893.984 688.084 894.457C687.024 894.94 685.745 895.182 684.249 895.182ZM714.804 865.182V869.727H701.338V865.182H714.804ZM704.42 887V863.605C704.42 862.024 704.728 860.712 705.343 859.67C705.968 858.629 706.821 857.848 707.9 857.327C708.98 856.806 710.206 856.545 711.579 856.545C712.507 856.545 713.355 856.616 714.122 856.759C714.898 856.901 715.476 857.028 715.855 857.142L714.775 861.688C714.539 861.612 714.245 861.541 713.895 861.474C713.554 861.408 713.203 861.375 712.843 861.375C711.953 861.375 711.333 861.583 710.983 862C710.632 862.407 710.457 862.98 710.457 863.719V887H704.42ZM717.62 887V865.182H723.672V887H717.62ZM720.66 862.369C719.761 862.369 718.989 862.071 718.345 861.474C717.71 860.868 717.393 860.144 717.393 859.301C717.393 858.468 717.71 857.753 718.345 857.156C718.989 856.55 719.761 856.247 720.66 856.247C721.56 856.247 722.327 856.55 722.961 857.156C723.605 857.753 723.927 858.468 723.927 859.301C723.927 860.144 723.605 860.868 722.961 861.474C722.327 862.071 721.56 862.369 720.66 862.369ZM733.69 874.386V887H727.639V865.182H733.406V869.031H733.662C734.145 867.762 734.954 866.759 736.091 866.02C737.227 865.272 738.605 864.898 740.224 864.898C741.739 864.898 743.06 865.229 744.187 865.892C745.314 866.555 746.19 867.502 746.815 868.733C747.44 869.955 747.752 871.413 747.752 873.108V887H741.701V874.188C741.711 872.852 741.37 871.811 740.679 871.062C739.987 870.305 739.036 869.926 737.823 869.926C737.009 869.926 736.289 870.101 735.664 870.452C735.049 870.802 734.566 871.313 734.216 871.986C733.875 872.649 733.699 873.449 733.69 874.386ZM759.681 887.355C758.024 887.355 756.523 886.929 755.179 886.077C753.843 885.215 752.783 883.951 751.997 882.284C751.22 880.608 750.832 878.553 750.832 876.119C750.832 873.619 751.234 871.541 752.039 869.884C752.844 868.217 753.914 866.972 755.25 866.148C756.594 865.314 758.067 864.898 759.667 864.898C760.889 864.898 761.907 865.106 762.721 865.523C763.545 865.93 764.208 866.441 764.71 867.057C765.221 867.663 765.609 868.259 765.875 868.847H766.059V857.909H772.096V887H766.13V883.506H765.875C765.591 884.112 765.188 884.713 764.667 885.31C764.156 885.897 763.488 886.384 762.664 886.773C761.85 887.161 760.856 887.355 759.681 887.355ZM761.599 882.54C762.574 882.54 763.398 882.275 764.071 881.744C764.752 881.205 765.273 880.452 765.633 879.486C766.002 878.52 766.187 877.388 766.187 876.091C766.187 874.794 766.007 873.667 765.647 872.71C765.287 871.754 764.767 871.015 764.085 870.494C763.403 869.973 762.574 869.713 761.599 869.713C760.605 869.713 759.767 869.983 759.085 870.523C758.403 871.062 757.887 871.811 757.537 872.767C757.186 873.723 757.011 874.831 757.011 876.091C757.011 877.36 757.186 878.482 757.537 879.457C757.896 880.423 758.412 881.181 759.085 881.73C759.767 882.27 760.605 882.54 761.599 882.54ZM802.652 857.909H808.802V876.801C808.802 878.922 808.295 880.778 807.282 882.369C806.278 883.96 804.872 885.201 803.063 886.091C801.255 886.972 799.148 887.412 796.742 887.412C794.328 887.412 792.216 886.972 790.407 886.091C788.599 885.201 787.192 883.96 786.188 882.369C785.185 880.778 784.683 878.922 784.683 876.801V857.909H790.833V876.276C790.833 877.384 791.075 878.368 791.558 879.23C792.05 880.092 792.742 880.769 793.632 881.261C794.522 881.754 795.559 882 796.742 882C797.936 882 798.973 881.754 799.853 881.261C800.743 880.769 801.43 880.092 801.913 879.23C802.405 878.368 802.652 877.384 802.652 876.276V857.909ZM819.133 857.909V887H812.982V857.909H819.133Z" fill="white"/>
<path d="M722 584C722 582.895 721.105 582 720 582C718.895 582 718 582.895 718 584H720H722ZM718.586 776.914C719.367 777.695 720.633 777.695 721.414 776.914L734.142 764.186C734.923 763.405 734.923 762.139 734.142 761.358C733.361 760.577 732.095 760.577 731.314 761.358L720 772.672L708.686 761.358C707.905 760.577 706.639 760.577 705.858 761.358C705.077 762.139 705.077 763.405 705.858 764.186L718.586 776.914ZM720 584H718V775.5H720H722V584H720Z" fill="#757575"/>
<rect x="1024" y="784" width="352" height="176" rx="6" fill="white"/>
<path d="M1074.7 887L1066.37 857.909H1073.09L1077.91 878.122H1078.15L1083.46 857.909H1089.21L1094.51 878.165H1094.77L1099.58 857.909H1106.3L1097.98 887H1091.98L1086.45 867.98H1086.22L1080.69 887H1074.7ZM1112.48 887.412C1111.09 887.412 1109.85 887.17 1108.76 886.688C1107.67 886.195 1106.81 885.471 1106.17 884.514C1105.55 883.548 1105.23 882.346 1105.23 880.906C1105.23 879.694 1105.46 878.676 1105.9 877.852C1106.35 877.028 1106.95 876.366 1107.72 875.864C1108.49 875.362 1109.36 874.983 1110.33 874.727C1111.32 874.472 1112.35 874.292 1113.43 874.188C1114.7 874.055 1115.72 873.932 1116.5 873.818C1117.28 873.695 1117.84 873.515 1118.19 873.278C1118.54 873.042 1118.71 872.691 1118.71 872.227V872.142C1118.71 871.242 1118.43 870.546 1117.86 870.054C1117.3 869.562 1116.51 869.315 1115.48 869.315C1114.39 869.315 1113.52 869.557 1112.88 870.04C1112.23 870.513 1111.81 871.11 1111.6 871.83L1106 871.375C1106.29 870.049 1106.84 868.903 1107.68 867.938C1108.51 866.962 1109.59 866.214 1110.9 865.693C1112.23 865.163 1113.76 864.898 1115.5 864.898C1116.72 864.898 1117.88 865.04 1118.98 865.324C1120.1 865.608 1121.09 866.048 1121.95 866.645C1122.82 867.241 1123.51 868.009 1124.01 868.946C1124.52 869.874 1124.77 870.987 1124.77 872.284V887H1119.03V883.974H1118.86C1118.51 884.656 1118.04 885.258 1117.45 885.778C1116.86 886.29 1116.16 886.692 1115.33 886.986C1114.51 887.27 1113.56 887.412 1112.48 887.412ZM1114.21 883.236C1115.1 883.236 1115.89 883.061 1116.57 882.71C1117.25 882.35 1117.79 881.867 1118.18 881.261C1118.56 880.655 1118.76 879.969 1118.76 879.202V876.886C1118.57 877.009 1118.31 877.123 1117.98 877.227C1117.65 877.322 1117.29 877.412 1116.88 877.497C1116.48 877.573 1116.07 877.644 1115.66 877.71C1115.25 877.767 1114.88 877.819 1114.55 877.866C1113.84 877.971 1113.22 878.136 1112.69 878.364C1112.16 878.591 1111.75 878.899 1111.46 879.287C1111.16 879.666 1111.02 880.139 1111.02 880.707C1111.02 881.531 1111.31 882.161 1111.91 882.597C1112.52 883.023 1113.28 883.236 1114.21 883.236ZM1131.54 895.182C1130.77 895.182 1130.05 895.12 1129.38 894.997C1128.71 894.884 1128.16 894.737 1127.73 894.557L1129.09 890.04C1129.8 890.258 1130.44 890.376 1131.01 890.395C1131.59 890.414 1132.08 890.281 1132.5 889.997C1132.93 889.713 1133.27 889.23 1133.54 888.548L1133.89 887.625L1126.07 865.182H1132.43L1136.95 881.205H1137.17L1141.73 865.182H1148.14L1139.66 889.358C1139.25 890.532 1138.7 891.555 1138 892.426C1137.31 893.307 1136.43 893.984 1135.37 894.457C1134.31 894.94 1133.03 895.182 1131.54 895.182ZM1162.09 865.182V869.727H1148.62V865.182H1162.09ZM1151.71 887V863.605C1151.71 862.024 1152.01 860.712 1152.63 859.67C1153.25 858.629 1154.11 857.848 1155.19 857.327C1156.27 856.806 1157.49 856.545 1158.87 856.545C1159.79 856.545 1160.64 856.616 1161.41 856.759C1162.18 856.901 1162.76 857.028 1163.14 857.142L1162.06 861.688C1161.82 861.612 1161.53 861.541 1161.18 861.474C1160.84 861.408 1160.49 861.375 1160.13 861.375C1159.24 861.375 1158.62 861.583 1158.27 862C1157.92 862.407 1157.74 862.98 1157.74 863.719V887H1151.71ZM1164.91 887V865.182H1170.96V887H1164.91ZM1167.95 862.369C1167.05 862.369 1166.28 862.071 1165.63 861.474C1165 860.868 1164.68 860.144 1164.68 859.301C1164.68 858.468 1165 857.753 1165.63 857.156C1166.28 856.55 1167.05 856.247 1167.95 856.247C1168.85 856.247 1169.61 856.55 1170.25 857.156C1170.89 857.753 1171.21 858.468 1171.21 859.301C1171.21 860.144 1170.89 860.868 1170.25 861.474C1169.61 862.071 1168.85 862.369 1167.95 862.369ZM1180.98 874.386V887H1174.93V865.182H1180.69V869.031H1180.95C1181.43 867.762 1182.24 866.759 1183.38 866.02C1184.51 865.272 1185.89 864.898 1187.51 864.898C1189.03 864.898 1190.35 865.229 1191.47 865.892C1192.6 866.555 1193.48 867.502 1194.1 868.733C1194.73 869.955 1195.04 871.413 1195.04 873.108V887H1188.99V874.188C1189 872.852 1188.66 871.811 1187.96 871.062C1187.27 870.305 1186.32 869.926 1185.11 869.926C1184.3 869.926 1183.58 870.101 1182.95 870.452C1182.34 870.802 1181.85 871.313 1181.5 871.986C1181.16 872.649 1180.99 873.449 1180.98 874.386ZM1206.97 887.355C1205.31 887.355 1203.81 886.929 1202.46 886.077C1201.13 885.215 1200.07 883.951 1199.28 882.284C1198.51 880.608 1198.12 878.553 1198.12 876.119C1198.12 873.619 1198.52 871.541 1199.33 869.884C1200.13 868.217 1201.2 866.972 1202.54 866.148C1203.88 865.314 1205.35 864.898 1206.95 864.898C1208.18 864.898 1209.19 865.106 1210.01 865.523C1210.83 865.93 1211.49 866.441 1212 867.057C1212.51 867.663 1212.9 868.259 1213.16 868.847H1213.35V857.909H1219.38V887H1213.42V883.506H1213.16C1212.88 884.112 1212.47 884.713 1211.95 885.31C1211.44 885.897 1210.77 886.384 1209.95 886.773C1209.14 887.161 1208.14 887.355 1206.97 887.355ZM1208.89 882.54C1209.86 882.54 1210.68 882.275 1211.36 881.744C1212.04 881.205 1212.56 880.452 1212.92 879.486C1213.29 878.52 1213.47 877.388 1213.47 876.091C1213.47 874.794 1213.29 873.667 1212.93 872.71C1212.57 871.754 1212.05 871.015 1211.37 870.494C1210.69 869.973 1209.86 869.713 1208.89 869.713C1207.89 869.713 1207.05 869.983 1206.37 870.523C1205.69 871.062 1205.17 871.811 1204.82 872.767C1204.47 873.723 1204.3 874.831 1204.3 876.091C1204.3 877.36 1204.47 878.482 1204.82 879.457C1205.18 880.423 1205.7 881.181 1206.37 881.73C1207.05 882.27 1207.89 882.54 1208.89 882.54ZM1231.97 857.909H1239.55L1247.57 877.455H1247.91L1255.92 857.909H1263.5V887H1257.54V868.065H1257.3L1249.77 886.858H1245.7L1238.18 867.994H1237.93V887H1231.97V857.909ZM1273.8 887.412C1272.41 887.412 1271.17 887.17 1270.08 886.688C1268.99 886.195 1268.13 885.471 1267.49 884.514C1266.87 883.548 1266.55 882.346 1266.55 880.906C1266.55 879.694 1266.78 878.676 1267.22 877.852C1267.67 877.028 1268.27 876.366 1269.04 875.864C1269.81 875.362 1270.68 874.983 1271.65 874.727C1272.64 874.472 1273.67 874.292 1274.75 874.188C1276.02 874.055 1277.04 873.932 1277.82 873.818C1278.59 873.695 1279.16 873.515 1279.51 873.278C1279.86 873.042 1280.03 872.691 1280.03 872.227V872.142C1280.03 871.242 1279.75 870.546 1279.18 870.054C1278.62 869.562 1277.83 869.315 1276.8 869.315C1275.71 869.315 1274.84 869.557 1274.2 870.04C1273.55 870.513 1273.13 871.11 1272.92 871.83L1267.32 871.375C1267.61 870.049 1268.16 868.903 1269 867.938C1269.83 866.962 1270.91 866.214 1272.22 865.693C1273.55 865.163 1275.08 864.898 1276.82 864.898C1278.04 864.898 1279.2 865.04 1280.3 865.324C1281.42 865.608 1282.41 866.048 1283.27 866.645C1284.14 867.241 1284.83 868.009 1285.33 868.946C1285.83 869.874 1286.09 870.987 1286.09 872.284V887H1280.35V883.974H1280.18C1279.83 884.656 1279.36 885.258 1278.77 885.778C1278.18 886.29 1277.48 886.692 1276.65 886.986C1275.83 887.27 1274.88 887.412 1273.8 887.412ZM1275.53 883.236C1276.42 883.236 1277.21 883.061 1277.89 882.71C1278.57 882.35 1279.11 881.867 1279.49 881.261C1279.88 880.655 1280.08 879.969 1280.08 879.202V876.886C1279.89 877.009 1279.63 877.123 1279.3 877.227C1278.97 877.322 1278.61 877.412 1278.2 877.497C1277.79 877.573 1277.39 877.644 1276.98 877.71C1276.57 877.767 1276.2 877.819 1275.87 877.866C1275.16 877.971 1274.54 878.136 1274.01 878.364C1273.48 878.591 1273.07 878.899 1272.78 879.287C1272.48 879.666 1272.34 880.139 1272.34 880.707C1272.34 881.531 1272.63 882.161 1273.23 882.597C1273.84 883.023 1274.6 883.236 1275.53 883.236ZM1289.9 895.182V865.182H1295.87V868.847H1296.14C1296.4 868.259 1296.78 867.663 1297.29 867.057C1297.8 866.441 1298.46 865.93 1299.28 865.523C1300.1 865.106 1301.12 864.898 1302.34 864.898C1303.93 864.898 1305.4 865.314 1306.75 866.148C1308.09 866.972 1309.17 868.217 1309.97 869.884C1310.78 871.541 1311.18 873.619 1311.18 876.119C1311.18 878.553 1310.79 880.608 1310 882.284C1309.22 883.951 1308.16 885.215 1306.82 886.077C1305.48 886.929 1303.99 887.355 1302.33 887.355C1301.15 887.355 1300.16 887.161 1299.33 886.773C1298.52 886.384 1297.85 885.897 1297.33 885.31C1296.81 884.713 1296.41 884.112 1296.14 883.506H1295.95V895.182H1289.9ZM1295.82 876.091C1295.82 877.388 1296 878.52 1296.36 879.486C1296.72 880.452 1297.24 881.205 1297.93 881.744C1298.61 882.275 1299.44 882.54 1300.41 882.54C1301.4 882.54 1302.23 882.27 1302.91 881.73C1303.59 881.181 1304.11 880.423 1304.46 879.457C1304.82 878.482 1305 877.36 1305 876.091C1305 874.831 1304.82 873.723 1304.47 872.767C1304.12 871.811 1303.61 871.062 1302.93 870.523C1302.24 869.983 1301.41 869.713 1300.41 869.713C1299.43 869.713 1298.59 869.973 1297.91 870.494C1297.24 871.015 1296.72 871.754 1296.36 872.71C1296 873.667 1295.82 874.794 1295.82 876.091ZM1332.49 871.403L1326.95 871.744C1326.85 871.271 1326.65 870.845 1326.34 870.466C1326.02 870.078 1325.61 869.77 1325.1 869.543C1324.6 869.306 1324 869.188 1323.3 869.188C1322.36 869.188 1321.57 869.386 1320.92 869.784C1320.28 870.172 1319.96 870.693 1319.96 871.347C1319.96 871.867 1320.17 872.308 1320.58 872.668C1321 873.027 1321.71 873.316 1322.73 873.534L1326.68 874.33C1328.8 874.765 1330.38 875.466 1331.42 876.432C1332.46 877.398 1332.98 878.667 1332.98 880.239C1332.98 881.669 1332.56 882.923 1331.72 884.003C1330.89 885.082 1329.74 885.925 1328.28 886.531C1326.83 887.128 1325.16 887.426 1323.27 887.426C1320.38 887.426 1318.08 886.825 1316.36 885.622C1314.66 884.41 1313.66 882.762 1313.37 880.679L1319.32 880.366C1319.5 881.247 1319.93 881.92 1320.63 882.384C1321.32 882.838 1322.2 883.065 1323.28 883.065C1324.34 883.065 1325.19 882.862 1325.84 882.455C1326.49 882.038 1326.82 881.503 1326.83 880.849C1326.82 880.3 1326.59 879.85 1326.14 879.5C1325.68 879.14 1324.98 878.866 1324.03 878.676L1320.26 877.923C1318.13 877.497 1316.54 876.759 1315.5 875.707C1314.47 874.656 1313.95 873.316 1313.95 871.688C1313.95 870.286 1314.33 869.079 1315.09 868.065C1315.85 867.052 1316.93 866.271 1318.31 865.722C1319.7 865.172 1321.33 864.898 1323.2 864.898C1325.95 864.898 1328.12 865.48 1329.7 866.645C1331.29 867.81 1332.22 869.396 1332.49 871.403Z" fill="black" fill-opacity="0.8"/>
<path d="M722 584C722 582.895 721.105 582 720 582C718.895 582 718 582.895 718 584H720H722ZM1198.59 776.914C1199.37 777.695 1200.63 777.695 1201.41 776.914L1214.14 764.186C1214.92 763.405 1214.92 762.139 1214.14 761.358C1213.36 760.577 1212.09 760.577 1211.31 761.358L1200 772.672L1188.69 761.358C1187.91 760.577 1186.64 760.577 1185.86 761.358C1185.08 762.139 1185.08 763.405 1185.86 764.186L1198.59 776.914ZM720 584H718V656H720H722V584H720ZM744 680V682H1176V680V678H744V680ZM1200 704H1198V775.5H1200H1202V704H1200ZM1176 680V682C1188.15 682 1198 691.85 1198 704H1200H1202C1202 689.641 1190.36 678 1176 678V680ZM720 656H718C718 670.359 729.641 682 744 682V680V678C731.85 678 722 668.15 722 656H720Z" fill="#757575"/>
<rect x="64" y="784" width="352" height="176" rx="6" fill="white"/>
<path d="M92.9089 857.909L99.9402 880.011H100.21L107.256 857.909H114.074L104.045 887H96.1192L86.0766 857.909H92.9089ZM124.064 887.426C121.819 887.426 119.888 886.972 118.268 886.062C116.658 885.144 115.418 883.847 114.547 882.17C113.675 880.485 113.24 878.491 113.24 876.19C113.24 873.946 113.675 871.976 114.547 870.281C115.418 868.586 116.644 867.265 118.226 866.318C119.817 865.371 121.682 864.898 123.822 864.898C125.262 864.898 126.602 865.13 127.842 865.594C129.092 866.048 130.181 866.735 131.109 867.653C132.047 868.572 132.776 869.727 133.297 871.119C133.818 872.502 134.078 874.121 134.078 875.977V877.639H115.655V873.889H128.382C128.382 873.018 128.193 872.246 127.814 871.574C127.435 870.902 126.909 870.376 126.237 869.997C125.574 869.609 124.802 869.415 123.922 869.415C123.003 869.415 122.189 869.628 121.479 870.054C120.778 870.471 120.229 871.034 119.831 871.744C119.433 872.445 119.229 873.226 119.22 874.088V877.653C119.22 878.733 119.419 879.666 119.817 880.452C120.224 881.238 120.797 881.844 121.535 882.27C122.274 882.696 123.15 882.909 124.163 882.909C124.836 882.909 125.451 882.814 126.01 882.625C126.568 882.436 127.047 882.152 127.444 881.773C127.842 881.394 128.145 880.93 128.354 880.381L133.95 880.75C133.666 882.095 133.084 883.269 132.203 884.273C131.332 885.267 130.205 886.044 128.822 886.602C127.449 887.152 125.863 887.426 124.064 887.426ZM143.198 874.386V887H137.147V857.909H143.027V869.031H143.283C143.776 867.743 144.571 866.735 145.67 866.006C146.768 865.267 148.146 864.898 149.803 864.898C151.318 864.898 152.639 865.229 153.766 865.892C154.902 866.545 155.783 867.488 156.408 868.719C157.043 869.94 157.355 871.403 157.346 873.108V887H151.295V874.188C151.304 872.843 150.963 871.796 150.272 871.048C149.59 870.3 148.634 869.926 147.402 869.926C146.579 869.926 145.849 870.101 145.215 870.452C144.59 870.802 144.098 871.313 143.738 871.986C143.387 872.649 143.207 873.449 143.198 874.386ZM161.228 887V865.182H167.279V887H161.228ZM164.268 862.369C163.368 862.369 162.596 862.071 161.952 861.474C161.318 860.868 161 860.144 161 859.301C161 858.468 161.318 857.753 161.952 857.156C162.596 856.55 163.368 856.247 164.268 856.247C165.167 856.247 165.934 856.55 166.569 857.156C167.213 857.753 167.535 858.468 167.535 859.301C167.535 860.144 167.213 860.868 166.569 861.474C165.934 862.071 165.167 862.369 164.268 862.369ZM181.104 887.426C178.869 887.426 176.947 886.953 175.337 886.006C173.737 885.049 172.506 883.723 171.644 882.028C170.792 880.333 170.366 878.383 170.366 876.176C170.366 873.941 170.796 871.981 171.658 870.295C172.529 868.6 173.765 867.279 175.366 866.332C176.966 865.376 178.869 864.898 181.076 864.898C182.979 864.898 184.646 865.243 186.076 865.935C187.506 866.626 188.637 867.597 189.471 868.847C190.304 870.097 190.763 871.564 190.848 873.25H185.138C184.977 872.161 184.551 871.285 183.86 870.622C183.178 869.95 182.283 869.614 181.175 869.614C180.238 869.614 179.419 869.869 178.718 870.381C178.026 870.883 177.487 871.616 177.098 872.582C176.71 873.548 176.516 874.718 176.516 876.091C176.516 877.483 176.705 878.667 177.084 879.642C177.473 880.617 178.017 881.361 178.718 881.872C179.419 882.384 180.238 882.639 181.175 882.639C181.866 882.639 182.487 882.497 183.036 882.213C183.595 881.929 184.054 881.517 184.414 880.977C184.783 880.428 185.025 879.77 185.138 879.003H190.848C190.754 880.67 190.299 882.137 189.485 883.406C188.68 884.666 187.567 885.651 186.147 886.361C184.726 887.071 183.045 887.426 181.104 887.426ZM199.894 857.909V887H193.843V857.909H199.894ZM213.804 887.426C211.56 887.426 209.628 886.972 208.009 886.062C206.399 885.144 205.159 883.847 204.287 882.17C203.416 880.485 202.981 878.491 202.981 876.19C202.981 873.946 203.416 871.976 204.287 870.281C205.159 868.586 206.385 867.265 207.966 866.318C209.557 865.371 211.423 864.898 213.563 864.898C215.002 864.898 216.342 865.13 217.583 865.594C218.833 866.048 219.922 866.735 220.85 867.653C221.787 868.572 222.516 869.727 223.037 871.119C223.558 872.502 223.819 874.121 223.819 875.977V877.639H205.395V873.889H218.123C218.123 873.018 217.933 872.246 217.554 871.574C217.176 870.902 216.65 870.376 215.978 869.997C215.315 869.609 214.543 869.415 213.662 869.415C212.744 869.415 211.929 869.628 211.219 870.054C210.518 870.471 209.969 871.034 209.571 871.744C209.174 872.445 208.97 873.226 208.961 874.088V877.653C208.961 878.733 209.159 879.666 209.557 880.452C209.964 881.238 210.537 881.844 211.276 882.27C212.015 882.696 212.891 882.909 213.904 882.909C214.576 882.909 215.192 882.814 215.75 882.625C216.309 882.436 216.787 882.152 217.185 881.773C217.583 881.394 217.886 880.93 218.094 880.381L223.691 880.75C223.407 882.095 222.824 883.269 221.944 884.273C221.072 885.267 219.945 886.044 218.563 886.602C217.19 887.152 215.604 887.426 213.804 887.426ZM261.047 868.094H254.825C254.711 867.289 254.479 866.574 254.129 865.949C253.779 865.314 253.329 864.775 252.779 864.33C252.23 863.884 251.596 863.544 250.876 863.307C250.166 863.07 249.394 862.952 248.561 862.952C247.055 862.952 245.743 863.326 244.626 864.074C243.509 864.812 242.642 865.892 242.027 867.312C241.411 868.723 241.103 870.437 241.103 872.455C241.103 874.528 241.411 876.271 242.027 877.682C242.652 879.093 243.523 880.158 244.64 880.878C245.758 881.598 247.05 881.957 248.518 881.957C249.342 881.957 250.104 881.848 250.805 881.631C251.515 881.413 252.145 881.096 252.694 880.679C253.243 880.253 253.698 879.737 254.058 879.131C254.427 878.525 254.683 877.833 254.825 877.057L261.047 877.085C260.886 878.42 260.483 879.708 259.839 880.949C259.205 882.18 258.348 883.283 257.268 884.259C256.198 885.224 254.92 885.991 253.433 886.56C251.956 887.118 250.284 887.398 248.419 887.398C245.824 887.398 243.504 886.811 241.458 885.636C239.422 884.462 237.813 882.762 236.629 880.537C235.455 878.312 234.868 875.617 234.868 872.455C234.868 869.282 235.464 866.583 236.657 864.358C237.85 862.133 239.47 860.437 241.515 859.273C243.561 858.098 245.862 857.511 248.419 857.511C250.104 857.511 251.667 857.748 253.106 858.222C254.555 858.695 255.838 859.386 256.956 860.295C258.073 861.195 258.982 862.298 259.683 863.605C260.393 864.912 260.848 866.408 261.047 868.094ZM274.321 887.426C272.115 887.426 270.207 886.957 268.597 886.02C266.997 885.073 265.761 883.757 264.89 882.071C264.018 880.376 263.583 878.411 263.583 876.176C263.583 873.922 264.018 871.953 264.89 870.267C265.761 868.572 266.997 867.256 268.597 866.318C270.207 865.371 272.115 864.898 274.321 864.898C276.528 864.898 278.431 865.371 280.032 866.318C281.641 867.256 282.882 868.572 283.753 870.267C284.624 871.953 285.06 873.922 285.06 876.176C285.06 878.411 284.624 880.376 283.753 882.071C282.882 883.757 281.641 885.073 280.032 886.02C278.431 886.957 276.528 887.426 274.321 887.426ZM274.35 882.739C275.354 882.739 276.192 882.455 276.864 881.886C277.536 881.309 278.043 880.523 278.384 879.528C278.734 878.534 278.909 877.402 278.909 876.134C278.909 874.865 278.734 873.733 278.384 872.739C278.043 871.744 277.536 870.958 276.864 870.381C276.192 869.803 275.354 869.514 274.35 869.514C273.336 869.514 272.484 869.803 271.793 870.381C271.111 870.958 270.595 871.744 270.245 872.739C269.904 873.733 269.733 874.865 269.733 876.134C269.733 877.402 269.904 878.534 270.245 879.528C270.595 880.523 271.111 881.309 271.793 881.886C272.484 882.455 273.336 882.739 274.35 882.739ZM294.166 874.386V887H288.115V865.182H293.882V869.031H294.137C294.62 867.762 295.43 866.759 296.566 866.02C297.703 865.272 299.081 864.898 300.7 864.898C302.215 864.898 303.536 865.229 304.663 865.892C305.79 866.555 306.666 867.502 307.291 868.733C307.916 869.955 308.228 871.413 308.228 873.108V887H302.177V874.188C302.187 872.852 301.846 871.811 301.154 871.062C300.463 870.305 299.511 869.926 298.299 869.926C297.485 869.926 296.765 870.101 296.14 870.452C295.525 870.802 295.042 871.313 294.691 871.986C294.35 872.649 294.175 873.449 294.166 874.386ZM318.169 874.386V887H312.117V865.182H317.884V869.031H318.14C318.623 867.762 319.433 866.759 320.569 866.02C321.706 865.272 323.083 864.898 324.703 864.898C326.218 864.898 327.539 865.229 328.666 865.892C329.793 866.555 330.669 867.502 331.294 868.733C331.919 869.955 332.231 871.413 332.231 873.108V887H326.18V874.188C326.189 872.852 325.849 871.811 325.157 871.062C324.466 870.305 323.514 869.926 322.302 869.926C321.488 869.926 320.768 870.101 320.143 870.452C319.527 870.802 319.045 871.313 318.694 871.986C318.353 872.649 318.178 873.449 318.169 874.386ZM346.063 887.426C343.819 887.426 341.887 886.972 340.268 886.062C338.658 885.144 337.418 883.847 336.546 882.17C335.675 880.485 335.24 878.491 335.24 876.19C335.24 873.946 335.675 871.976 336.546 870.281C337.418 868.586 338.644 867.265 340.225 866.318C341.816 865.371 343.682 864.898 345.822 864.898C347.261 864.898 348.601 865.13 349.842 865.594C351.092 866.048 352.181 866.735 353.109 867.653C354.046 868.572 354.776 869.727 355.296 871.119C355.817 872.502 356.078 874.121 356.078 875.977V877.639H337.654V873.889H350.382C350.382 873.018 350.192 872.246 349.813 871.574C349.435 870.902 348.909 870.376 348.237 869.997C347.574 869.609 346.802 869.415 345.921 869.415C345.003 869.415 344.188 869.628 343.478 870.054C342.777 870.471 342.228 871.034 341.83 871.744C341.433 872.445 341.229 873.226 341.22 874.088V877.653C341.22 878.733 341.419 879.666 341.816 880.452C342.223 881.238 342.796 881.844 343.535 882.27C344.274 882.696 345.15 882.909 346.163 882.909C346.835 882.909 347.451 882.814 348.009 882.625C348.568 882.436 349.046 882.152 349.444 881.773C349.842 881.394 350.145 880.93 350.353 880.381L355.95 880.75C355.666 882.095 355.083 883.269 354.203 884.273C353.331 885.267 352.205 886.044 350.822 886.602C349.449 887.152 347.863 887.426 346.063 887.426ZM369.004 887.426C366.77 887.426 364.847 886.953 363.237 886.006C361.637 885.049 360.406 883.723 359.544 882.028C358.692 880.333 358.266 878.383 358.266 876.176C358.266 873.941 358.697 871.981 359.558 870.295C360.43 868.6 361.665 867.279 363.266 866.332C364.866 865.376 366.77 864.898 368.976 864.898C370.879 864.898 372.546 865.243 373.976 865.935C375.406 866.626 376.538 867.597 377.371 868.847C378.204 870.097 378.664 871.564 378.749 873.25H373.039C372.878 872.161 372.451 871.285 371.76 870.622C371.078 869.95 370.183 869.614 369.075 869.614C368.138 869.614 367.319 869.869 366.618 870.381C365.927 870.883 365.387 871.616 364.999 872.582C364.611 873.548 364.416 874.718 364.416 876.091C364.416 877.483 364.606 878.667 364.985 879.642C365.373 880.617 365.917 881.361 366.618 881.872C367.319 882.384 368.138 882.639 369.075 882.639C369.767 882.639 370.387 882.497 370.936 882.213C371.495 881.929 371.954 881.517 372.314 880.977C372.683 880.428 372.925 879.77 373.039 879.003H378.749C378.654 880.67 378.2 882.137 377.385 883.406C376.58 884.666 375.468 885.651 374.047 886.361C372.627 887.071 370.946 887.426 369.004 887.426ZM393.348 865.182V869.727H380.209V865.182H393.348ZM383.192 859.955H389.243V880.295C389.243 880.854 389.328 881.29 389.499 881.602C389.669 881.905 389.906 882.118 390.209 882.241C390.521 882.365 390.881 882.426 391.289 882.426C391.573 882.426 391.857 882.402 392.141 882.355C392.425 882.298 392.643 882.256 392.794 882.227L393.746 886.73C393.443 886.825 393.017 886.934 392.467 887.057C391.918 887.189 391.251 887.27 390.465 887.298C389.006 887.355 387.728 887.161 386.629 886.716C385.54 886.271 384.693 885.58 384.087 884.642C383.481 883.705 383.182 882.521 383.192 881.091V859.955Z" fill="black" fill-opacity="0.8"/>
<path d="M722 584C722 582.895 721.105 582 720 582C718.895 582 718 582.895 718 584H720H722ZM238.586 776.914C239.367 777.695 240.633 777.695 241.414 776.914L254.142 764.186C254.923 763.405 254.923 762.139 254.142 761.358C253.361 760.577 252.095 760.577 251.314 761.358L240 772.672L228.686 761.358C227.905 760.577 226.639 760.577 225.858 761.358C225.077 762.139 225.077 763.405 225.858 764.186L238.586 776.914ZM720 584H718V656H720H722V584H720ZM696 680V678H264V680V682H696V680ZM240 704H238V775.5H240H242V704H240ZM264 680V678C249.641 678 238 689.641 238 704H240H242C242 691.85 251.85 682 264 682V680ZM720 656H718C718 668.15 708.15 678 696 678V680V682C710.359 682 722 670.359 722 656H720Z" fill="#757575"/>
</svg>
